<svg width="87" height="87" viewBox="0 0 87 87" fill="none" xmlns="http://www.w3.org/2000/svg">
<g clip-path="url(#clip0)">
<mask id="mask0" mask-type="alpha" maskUnits="userSpaceOnUse" x="0" y="0" width="87" height="87">
<path d="M0 0H86.9599V86.959H0V0Z" fill="white"/>
</mask>
<g mask="url(#mask0)">
<path fill-rule="evenodd" clip-rule="evenodd" d="M86.96 43.479C86.96 67.493 67.493 86.959 43.481 86.959C19.467 86.959 0 67.493 0 43.479C0 19.466 19.467 0 43.481 0C67.493 0 86.96 19.466 86.96 43.479Z" fill="#050303"/>
</g>
<path fill-rule="evenodd" clip-rule="evenodd" d="M52.009 16.1885C52.03 14.1525 50.257 13.2255 49.084 12.2335C43.521 7.52751 37.624 3.21751 30.456 1.26051C24.913 -0.251492 19.248 -0.366493 13.582 0.718507C13.45 2.40251 14.862 2.21051 15.773 2.34151C17.409 2.57751 19.067 2.67051 20.647 3.20451C21.157 3.37551 21.949 3.43551 21.874 4.15751C21.822 4.66551 21.123 4.77151 20.641 4.91851C19.91 5.14051 19.182 5.41451 18.439 5.53951C16.308 5.90051 14.438 6.73551 12.856 8.22351C12.438 8.61651 11.87 8.80051 11.369 9.07751C11.214 9.16951 11.077 9.28751 10.958 9.41851C10.756 9.73751 10.835 10.0805 10.883 10.4155C10.95 10.8975 10.597 11.0975 10.261 11.3135C9.953 11.4775 9.627 11.5815 9.301 11.7025C8.598 12.0075 7.821 12.1715 7.321 12.8265C6.889 13.9005 6.681 14.9555 7.557 15.9175C8.192 16.3075 8.862 16.1135 9.531 16.0105C9.95 15.9465 10.489 15.7805 10.642 16.3325C10.784 16.8515 10.28 17.0495 9.882 17.2215C9.484 17.3935 9.05 17.4575 8.638 17.5925C8.47 17.6425 8.307 17.7095 8.147 17.7815C7.68 18.0365 7.142 18.1225 6.679 18.3915C6.446 18.5485 6.279 18.7585 6.164 19.0115C5.981 20.0565 5.101 20.9575 5.507 22.1255C5.597 22.2825 5.722 22.4065 5.872 22.5045C6.759 23.0665 7.999 22.4405 8.762 23.3585C8.806 23.5515 8.789 23.7435 8.661 23.9205C8.393 24.1895 8.049 24.3105 7.708 24.4535C7.225 24.6825 6.705 24.6865 6.193 24.7625C5.223 24.9195 4.241 25.0435 3.738 26.0565C3.523 26.6415 3.396 27.2615 3.161 27.8465C2.724 28.9365 2.986 29.6735 4.187 30.0025C4.655 30.1305 5.309 30.2345 5.271 30.8625C5.226 31.6155 4.468 31.5195 3.951 31.6595C3.527 31.7735 3.085 31.8275 2.674 32.0035C2.332 32.1545 2.022 32.3525 1.724 32.5735C0.859 33.3265 0.221 34.2205 0 35.3675C0.371 37.0065 2.055 36.7175 3.046 37.4375C3.415 37.6615 3.472 38.0325 3.488 38.4305C3.517 38.7005 3.58 38.9535 3.67 39.2075C4.761 43.3945 8.472 44.7095 11.737 46.4065C13.468 47.3055 15.472 47.7015 17.458 47.6765C19.094 47.6565 20.798 47.5845 21.794 45.9115C21.916 44.5545 22.603 43.8025 24.03 43.8655C24.292 43.8985 24.552 43.9455 24.814 44.0055C25.572 44.1745 26.32 44.2905 27.005 43.7855C27.858 42.5025 28.403 41.0965 28.685 39.5895C28.426 38.2945 27.184 38.4545 26.342 38.0145C25.861 37.7635 25.134 37.6015 25.363 36.8675C25.572 36.1955 26.256 36.3245 26.822 36.3505C27.937 36.4025 28.905 37.3355 30.102 36.9035C31.242 36.3065 31.489 34.8365 32.669 34.2755C32.811 34.1625 32.929 34.0285 33.025 33.8755C33.521 32.3765 32.263 32.1475 31.409 31.5705C30.799 31.1585 29.51 30.9605 29.988 29.9645C30.489 28.9185 31.525 29.6835 32.329 29.9175C33.256 30.1855 33.938 31.2445 35.096 30.7745C36.208 29.7145 37.647 28.9775 38.326 27.4925C38.412 27.0985 38.308 26.7625 38.023 26.4835C37.887 26.3635 37.737 26.2615 37.58 26.1715C37.428 26.0845 37.267 26.0075 37.107 25.9375C36.636 25.6705 35.809 25.4365 36.1 24.8295C36.477 24.0415 37.169 24.7155 37.709 24.9015C38.004 25.0025 38.242 25.2215 38.513 25.3805C38.78 25.5545 39.065 25.6965 39.331 25.8645C40.325 26.4885 41.133 26.1825 41.838 25.3715C42.582 24.5145 42.205 23.7485 41.657 22.9765C41.417 22.6375 40.81 22.2575 41.145 21.8855C41.592 21.3885 42.017 22.0265 42.403 22.2725C42.879 22.5775 43.222 23.0635 43.746 23.3185C44.92 23.6275 45.801 22.6485 46.896 22.6085C48.025 21.4795 47.926 20.9485 46.298 19.3605C46.185 19.2615 46.037 19.1875 45.926 19.0735C45.877 19.0245 45.97 18.9175 45.981 18.9315C46.062 19.0425 46.101 19.1805 46.23 19.2685C46.749 19.6285 47.239 20.0055 47.676 20.4585C48.255 21.0565 48.909 21.3195 49.672 20.7605C50.433 20.2035 50.623 19.5015 50.258 18.6195C50.155 18.3705 49.762 18.1875 50.017 17.8585C50.036 17.8335 50.368 18.1505 50.547 18.3175C50.867 18.6145 51.17 18.9375 51.623 19.0415C51.809 19.0255 51.968 18.9545 52.097 18.8215C52.396 18.3175 52.346 17.8025 52.144 17.2885C51.958 16.9425 51.625 16.6105 52.009 16.1885Z" transform="translate(22.1647 5.09094)" fill="#E5E5E1"/>
<path fill-rule="evenodd" clip-rule="evenodd" d="M28.2819 9.671C28.1399 9.403 27.9989 9.135 27.8559 8.867C27.7089 8.768 27.5379 8.761 27.3689 8.746C27.5439 8.738 27.7099 8.761 27.8519 8.874C28.5659 8.824 29.2919 8.688 29.7779 8.158C31.8499 5.9 34.7179 5.526 37.4519 4.812C37.9969 4.669 38.5369 4.454 39.0319 4.186C39.3989 3.985 39.9109 3.683 39.9689 3.357C40.0849 2.699 39.3539 2.674 38.9299 2.464C37.0809 1.546 35.0899 1.274 33.0519 1.175C32.0639 1.127 30.9849 1.156 30.4789 0C21.3869 1.705 14.2139 6.428 8.48187 13.631C4.47687 18.663 1.66687 24.347 0.816871 30.561C0.00687099 36.491 -0.798129 42.676 1.55787 48.577C1.77787 49.127 1.85487 50.082 2.91487 49.831C3.73987 49.287 3.41487 48.553 3.25287 47.856C1.93687 46.02 2.09387 43.897 2.13687 41.797C2.14187 41.551 2.10887 41.222 2.40287 41.144C2.67587 41.071 2.84387 41.335 2.97387 41.547C3.80687 42.905 4.55787 44.308 5.19787 45.777C5.46587 46.324 5.70387 46.881 6.24487 47.224C6.89687 47.464 7.50187 47.39 8.05587 46.975C8.43887 46.539 8.42287 46.049 8.24187 45.547C8.03087 45.295 7.83887 45.027 8.08887 44.678C8.22987 44.332 8.02787 43.776 8.38587 43.648C8.69587 43.536 8.70087 44.071 8.85287 44.312C9.62787 45.527 10.4779 45.478 11.2549 44.207C12.1139 42.802 11.2989 41.503 11.0619 40.172C10.9549 39.816 10.7979 39.457 10.9699 39.069C12.1259 39.186 11.9589 40.483 12.7519 40.986C13.9839 41.772 15.2459 42.475 16.5539 43.075C16.7719 43.243 16.9259 43.447 16.8179 43.769C16.6509 44.083 16.4189 44.314 16.1409 44.488C15.6349 44.765 15.2979 44.347 14.8889 44.163C14.2949 43.891 13.6729 43.75 13.0469 43.674C11.3569 43.468 10.5169 44.664 11.0949 46.401C12.0479 46.386 12.6589 46.834 12.9009 47.775C12.9949 47.932 13.1089 48.067 13.2409 48.192C17.6709 51.265 22.3629 53.923 26.8679 56.879C29.1909 58.404 32.0529 58.907 34.5919 60.075C35.4019 60.448 36.2089 60.106 36.8699 59.509C37.0519 59.266 37.0779 58.998 36.9979 58.713C36.9179 58.545 36.8029 58.405 36.6519 58.295C36.8339 58.339 37.0129 58.324 37.1949 58.268C38.2769 57.627 39.2179 56.794 40.2009 56.029C41.7669 54.81 41.8449 53.276 40.5559 51.941C39.9939 51.775 39.3969 51.845 38.8349 51.696C38.4349 51.577 37.7929 51.629 37.8739 51.033C37.9539 50.45 38.6109 50.35 39.0969 50.328C41.1959 50.234 42.3489 49.181 42.6329 47.098C42.7999 45.862 42.4579 45.061 41.0849 45.1C40.1699 45.125 39.3759 44.634 38.4839 44.605C36.8449 47.18 34.3439 46.65 32.0769 46.12C27.2079 44.983 22.8629 42.94 20.6319 38.005C19.7779 37.691 18.8919 37.962 18.0149 37.864C16.5669 37.704 15.1759 37.477 13.9269 36.671C12.4949 36.739 11.8579 35.998 12.2079 34.675C12.9689 31.795 12.0869 28.694 13.4359 25.905C13.5179 25.735 13.5179 25.531 13.5009 25.342C13.0499 20.704 15.3229 17.398 18.7079 14.616C19.4409 14.014 20.1399 13.356 20.4669 12.418C20.4009 11.26 20.9519 10.695 22.1159 10.627C22.7719 10.589 23.5319 10.795 24.0059 10.067C24.0309 9.19 24.1289 8.322 24.0319 7.453C23.5999 6.709 22.9379 6.783 22.2629 6.95C21.9759 6.916 21.7349 7.525 21.4019 7.011C21.8979 6.401 22.6219 6.341 23.2809 6.133C23.8999 5.937 24.5689 5.717 24.4089 4.874C24.2659 4.122 23.6469 4.146 23.0499 4.216C22.8139 4.244 22.5839 4.375 22.3399 4.26C22.5049 4.033 22.7639 3.987 23.0089 3.944C24.1369 3.742 25.2359 3.448 26.2759 2.948C26.4439 2.867 26.6099 2.726 26.8259 2.779C26.6499 2.853 26.4709 2.92 26.3019 3.006C25.9599 3.179 25.6409 3.391 25.3829 3.675C24.9869 4.108 24.5969 4.597 24.8999 5.198C25.1799 5.755 25.7499 5.634 26.2589 5.548C26.5059 5.506 26.9159 5.338 26.9719 5.503C27.1079 5.899 26.6429 5.942 26.4039 6.092C25.6639 6.557 24.7289 6.743 24.2689 7.623C24.0659 8.572 23.7339 9.527 24.6509 10.309C25.9609 10.641 27.1939 10.566 28.2819 9.671Z" transform="translate(5.26782 5.81006)" fill="#D2CBC4"/>
<path fill-rule="evenodd" clip-rule="evenodd" d="M25.7395 37.9975C28.6185 35.2525 29.9755 31.6725 31.2355 28.0315C33.3005 22.0675 33.1325 15.9275 32.5135 9.7985C32.2945 7.6245 31.4355 5.5115 30.8345 3.3805C30.6995 2.9015 30.2535 2.7375 29.7695 2.7265C29.4275 2.8245 29.1175 2.6575 28.7935 2.6085C28.4525 2.5665 28.1315 2.6155 27.8465 2.8145C27.4805 3.1665 27.4815 3.6315 27.4685 4.0935C27.4615 4.0925 27.4315 4.2615 27.4315 4.2615C27.4315 4.2615 27.2605 4.2715 27.2605 4.2575C27.1315 4.1085 27.0445 3.9455 26.9555 3.7705C26.8725 3.4545 26.8305 3.1445 26.7935 2.8245C26.7265 2.2475 26.6665 1.6785 26.5025 1.1285C26.2795 0.380498 25.8575 -0.146501 24.9925 0.0364989C24.1235 0.221499 23.4375 0.649498 23.4545 1.6765C23.4675 2.4435 23.7885 3.1625 23.8575 3.9225C23.8795 4.1575 24.0265 4.4935 23.7315 4.5845C23.6245 4.6175 23.5575 4.1785 23.4975 3.9455C23.2735 3.0945 23.2005 2.1005 22.0585 1.9535C21.0915 1.8305 20.3215 2.2105 19.8575 3.1135C19.7615 3.3895 19.7275 3.6725 19.7315 3.9565C19.7645 4.7675 19.9775 5.5745 19.8625 6.3975C19.8185 6.7115 19.7675 7.1165 19.4295 7.1635C19.0435 7.2175 18.9585 6.8135 18.9375 6.5075C18.8535 5.2795 18.7185 4.1245 16.9835 4.6015C15.4005 5.0375 15.0205 5.9415 15.6195 7.8065C15.7885 8.1735 15.8375 8.5535 15.6775 8.9525C15.5795 9.2915 15.5505 9.6425 15.3855 9.9215C15.1415 9.9935 15.0985 9.7955 15.0275 9.6165C14.6525 8.5835 15.1045 6.9645 13.1835 7.0885C12.0465 7.8365 11.1665 8.8875 10.0795 9.6895C9.47254 11.5025 11.0575 12.8455 11.1185 14.5065C11.1525 14.6325 11.3135 14.7035 11.3075 14.8625C11.1865 14.8455 11.0735 14.8025 10.9685 14.7265C10.2135 14.3685 9.94854 13.4445 9.13354 13.1585C7.56854 13.0255 7.38154 14.7575 6.27954 15.2525C6.12554 15.3515 5.98754 15.4685 5.85854 15.5975C5.73854 15.7365 5.64254 15.8925 5.56854 16.0605C5.52054 16.2385 5.50854 16.4205 5.52954 16.6015C5.75654 17.4475 6.51054 17.9015 6.98954 18.5625C7.29054 18.9765 7.67154 19.4735 7.29654 19.9355C6.85854 20.4725 6.38654 19.9435 5.95454 19.7425C5.73754 19.5905 5.52154 19.4355 5.31154 19.2685C5.01854 19.0365 4.71854 18.8245 4.32554 18.8095C2.56654 19.3965 2.54454 21.0775 2.03054 22.4455C2.19354 23.6845 3.33854 24.2635 3.92054 25.2245C4.11154 25.5405 4.48354 25.8675 4.23954 26.2325C3.92154 26.7085 3.45154 26.4375 3.04354 26.2745C2.80554 26.1805 3.10154 26.3025 2.87654 26.1845C2.13654 25.7945 1.28254 24.8215 0.61554 25.9665C0.0375407 26.9575 -0.37346 28.2075 0.51854 29.3565C0.87254 29.8105 1.34454 30.1395 1.79254 30.4915C3.56354 31.8875 3.56454 31.8865 2.21854 33.6835C2.80254 35.4525 4.06954 36.3775 5.86454 36.3075C7.27954 36.2515 8.64854 35.9055 9.89154 35.2525C15.1865 32.4745 19.7775 28.9875 22.8395 23.6125C24.2185 21.1885 26.3125 19.1305 28.7625 17.5925C30.0625 16.7765 30.7575 17.1005 30.8505 18.6665C30.9755 20.7505 30.9305 22.7895 30.3325 24.8725C29.2065 28.7875 28.1845 32.7055 25.7935 36.1015C25.3985 36.6615 25.0765 37.3485 25.7395 37.9975Z" transform="translate(47.487 26.194)" fill="#D2CBC4"/>
<path fill-rule="evenodd" clip-rule="evenodd" d="M31.9643 11.388C30.5933 12.094 29.3993 11.58 28.0403 11.108C21.1353 8.708 15.4913 4.152 9.3583 0.435997C9.0423 0.244997 8.6733 0.144 8.3293 0C7.5513 1.169 6.6013 1.27 5.4473 0.532997C4.4793 -0.0870029 3.5373 -0.168002 2.8253 0.954998C2.0633 2.158 2.7903 2.826 3.7193 3.421C3.9853 3.591 4.2573 3.758 4.4723 3.995C4.6003 4.136 4.7683 4.305 4.6883 4.492C4.5603 4.789 4.2763 4.713 4.0453 4.634C3.3113 4.382 2.6843 3.974 2.1923 3.359C1.6883 2.728 1.0623 2.456 0.413302 3.093C-0.282697 3.778 -0.0166984 4.468 0.598302 5.078C0.734302 5.212 0.869302 5.35 1.0273 5.453C2.2973 6.29 1.5593 6.594 0.657302 6.86C0.565302 7.035 0.585303 7.198 0.715303 7.346C0.805303 7.551 0.895303 7.756 0.984303 7.962C1.1653 8.277 1.4333 8.501 1.7373 8.687C8.6253 19.126 18.0623 25.323 30.7323 26.268C34.1493 26.523 37.5493 26.725 40.9653 26.382C41.5323 26.287 42.0973 26.169 42.6783 26.193C43.0193 26.094 43.4333 26.039 43.0803 25.524C43.3623 24.841 44.3203 24.375 43.7573 23.423C43.6473 23.258 43.4923 23.147 43.3053 23.093C42.2113 22.91 41.6703 23.951 40.7873 24.243C40.5513 24.323 40.2963 24.328 40.0543 24.391C40.1523 24.108 40.4523 24.159 40.6473 24.034C41.4083 23.547 41.9373 22.922 41.5653 21.985C41.1543 20.952 40.3173 20.609 39.2413 20.828C38.8683 20.906 38.5123 21.063 38.1373 21.115C37.7353 21.17 37.1293 21.489 36.9933 20.992C36.9023 20.654 37.5843 20.723 37.9243 20.642C38.7423 20.445 39.4433 20.05 39.2843 19.121C39.0913 17.994 38.7213 16.876 37.4193 16.492C37.0523 16.384 36.6613 16.475 36.2843 16.453C35.8243 16.427 35.1383 16.831 34.9703 16.203C34.8623 15.802 35.6003 15.704 35.9363 15.442C36.9283 14.662 37.1473 12.813 36.4463 11.431C35.8393 10.233 34.8923 10.589 33.9793 10.87C33.3143 11.076 32.5823 11.013 31.9643 11.388Z" transform="translate(10.3159 53.692)" fill="#9F9C97"/>
<path fill-rule="evenodd" clip-rule="evenodd" d="M26.4629 21.5844C26.2349 20.6314 26.9079 20.0424 27.3719 19.3804C30.1819 15.3764 30.9939 10.6334 32.1799 6.05544C32.5459 4.64344 32.3179 3.02244 32.1139 1.53144C31.8749 -0.222563 30.759 -0.365564 29.281 0.574436C26.692 2.22344 24.5379 4.43944 23.0079 6.87644C21.2579 9.66144 19.3889 12.3024 16.8739 14.2554C14.0349 16.4594 11.0089 18.5774 7.31395 19.3054C5.23395 19.7144 3.93495 18.7944 3.06695 17.0164C2.65395 16.0714 1.95395 15.4384 0.912948 15.4444C0.340948 15.4474 0.128949 16.0474 0.0499481 16.5624C-0.114051 17.6384 0.0999469 18.5894 1.07995 19.2364C1.34495 19.4114 1.62295 19.5714 1.86795 19.7724C2.33395 20.1504 3.23795 20.3114 3.03895 21.0744C2.85895 21.7624 2.06795 21.4614 1.52795 21.4734C0.582949 21.4954 0.328948 22.0914 0.376948 22.8724C0.440948 23.8974 0.509948 24.9614 1.77995 25.2914C2.08995 25.3724 2.41195 25.2724 2.72795 25.2494C3.03095 25.2274 3.43195 25.1354 3.52395 25.5194C3.60895 25.8764 3.22295 26.0274 2.97095 26.2124C1.47095 27.3134 1.40995 27.7804 2.35095 29.1974C3.20995 30.4924 4.08895 29.7124 4.99395 29.3394C5.27895 29.2224 5.67295 28.9924 5.87195 29.2704C6.10895 29.5964 5.68095 29.7834 5.45995 29.9624C4.85295 30.4524 4.16895 30.9424 4.60595 31.8444C5.02195 32.7044 5.81295 32.6564 6.59295 32.4244C7.11495 32.2694 7.30495 32.2454 6.89195 32.8254C6.51895 33.3504 6.15995 33.9584 7.05995 34.3854L7.07795 34.3964C8.54795 35.0224 9.65995 33.4814 11.0679 33.7384C15.4489 32.8724 18.785 30.2864 21.82 27.2054C22.109 26.9904 22.331 26.7144 22.558 26.4394C22.875 26.1064 23.1929 25.7734 23.5109 25.4394C23.7909 25.2134 24.0049 24.9344 24.1789 24.6204C24.3999 24.3294 24.6209 24.0394 24.8429 23.7484C25.2219 23.3634 25.532 22.9264 25.82 22.4714C26.035 22.1754 26.2489 21.8794 26.4629 21.5844Z" transform="translate(46.7635 42.6071)" fill="#9F9C97"/>
<path fill-rule="evenodd" clip-rule="evenodd" d="M2.802 16.9025C3.569 16.7415 4.444 18.1685 4.95 17.0915C5.365 16.2145 4.112 15.7245 3.527 15.1085C3.088 14.6455 1.786 14.3885 2.784 13.4535C3.742 12.5555 3.765 13.9115 4.203 14.2685C4.252 14.3085 4.29 14.3665 4.345 14.3915C5.355 14.8585 6.465 16.1165 7.404 15.4615C8.732 14.5325 7.305 13.8225 6.608 13.2105C6.381 13.0105 6.031 12.9575 5.747 12.8165C5.133 12.5115 4.551 12.1145 5.152 11.3825C5.563 10.8815 5.866 9.8635 6.903 10.6815C7.339 11.0265 7.896 11.2255 8.407 11.4695C9.907 12.1845 10.76 11.9465 10.463 10.0505C10.376 9.9965 10.32 9.9205 10.292 9.8215C9.879 9.1895 9.434 8.6125 8.539 8.8255C7.558 8.1935 8.111 7.5255 8.553 6.9395C8.943 6.4235 9.301 5.7875 10.213 6.3125C10.783 6.6415 11.523 6.6795 12.186 6.8475C12.585 7.1035 13.019 7.0675 13.457 6.9945C13.772 6.6985 14.085 6.4025 14.4 6.1065C14.611 5.6755 14.658 5.2795 14.168 4.9965C12.05 3.8685 9.875 3.0135 8.72 0.472498C8.168 -0.741502 7.581 0.683498 7.328 1.4025C7.442 1.5785 7.472 1.7645 7.405 1.9645C7.62 3.4465 8.948 4.8275 7.85 6.4235C7.45 7.0045 6.977 7.6685 6.392 6.5445C6.023 5.8335 6.323 4.3135 5.206 4.5765C4.144 4.8265 4.911 6.2325 4.728 7.1045C4.801 7.2045 4.812 7.3095 4.76 7.4225C4.881 7.9175 5.001 8.4125 5.122 8.9065C4.598 9.7095 4.031 10.0645 3.339 9.0735C3.114 8.6775 2.89 8.2815 2.665 7.8845C1.442 7.7765 1.351 7.8935 1.387 9.5045C1.437 9.7995 1.481 10.1195 1.518 10.3695C1.51 10.2995 1.512 10.3905 1.492 10.3155C1.443 9.9015 1.304 9.6205 1.02 9.3975C0.6 9.2745 0.25 9.3235 0.0160008 9.7195C0.0110008 10.4795 0.005 11.2395 0 11.9995C0.051 12.2195 0.103 12.4405 0.154 12.6625C0.324 14.0115 0.425 15.3895 1.609 16.3395L1.625 16.3545C1.967 16.6455 2.289 16.9785 2.802 16.9025Z" transform="translate(8.18231 43.642)" fill="#A92A28"/>
<path fill-rule="evenodd" clip-rule="evenodd" d="M2.5653 7.54205C3.1023 8.33905 3.3323 7.95605 3.4903 7.30105C3.4383 6.93005 3.3873 6.55905 3.3363 6.18805C3.2983 5.14505 3.4793 4.03505 2.4533 3.29405C2.0863 2.00105 1.38029 0.917047 0.407296 0.00104646C0.072296 -0.0149536 -0.0437017 0.153047 0.0142983 0.469047C0.211298 1.06305 0.951302 1.52205 0.466302 2.28605C0.463302 2.37705 0.4603 2.46705 0.4563 2.55905C0.4583 2.74205 0.486298 2.92205 0.543298 3.09705C0.711298 3.53505 1.0043 3.88705 1.3163 4.22805C2.1783 5.16505 1.6653 6.62005 2.5653 7.54205Z" transform="translate(73.7666 21.621)" fill="#A92A28"/>
<path fill-rule="evenodd" clip-rule="evenodd" d="M4.436 0.438835C2.851 -0.891165 1.835 1.23983 0.445999 1.09583C0.768999 1.92783 0.102 2.56084 0 3.30784C1.479 2.35084 2.957 1.39483 4.436 0.438835Z" transform="translate(53.3959 75.907)" fill="#A92A28"/>
<path fill-rule="evenodd" clip-rule="evenodd" d="M1.53993 3.677C1.08393 2.44 0.923935 1.086 0.0849347 0C-0.0250653 1.461 -0.315065 2.993 1.53993 3.677Z" transform="translate(8.25098 56.304)" fill="#D2CBC4"/>
<path fill-rule="evenodd" clip-rule="evenodd" d="M1.714 0.370804C1.063 -0.290197 0.52 0.0327992 0 0.559799C0.605 0.795799 1.161 0.601804 1.714 0.370804Z" transform="translate(51.28 79.5129)" fill="#A92A28"/>
<path fill-rule="evenodd" clip-rule="evenodd" d="M0 0C0.294 0.965 0.588003 1.929 0.883003 2.894C1.033 1.793 1.519 0.591 0 0Z" transform="translate(76.2196 24.915)" fill="#D2CBC4"/>
<path fill-rule="evenodd" clip-rule="evenodd" d="M1.177 0.584264C0.813 0.341264 0.557 -0.134737 0 0.0362634C0.028 0.830263 0.574 1.01426 1.224 1.07726C1.208 0.913264 1.193 0.749264 1.177 0.584264Z" transform="translate(9.80731 59.96)" fill="#D2CBC4"/>
<path fill-rule="evenodd" clip-rule="evenodd" d="M0.978639 0C0.303639 0.159 -0.0163571 0.590001 0.000642894 1.277C0.734643 1.163 1.06364 0.74 0.978639 0Z" transform="translate(71.6052 65.079)" fill="#D2CBC4"/>
<path fill-rule="evenodd" clip-rule="evenodd" d="M0.764453 0.724999C0.687453 0.301999 0.444452 0.052 0.0104527 0C-0.0605473 0.578 0.234453 0.773999 0.764453 0.724999Z" transform="translate(11.2891 61.653)" fill="#D2CBC4"/>
<path fill-rule="evenodd" clip-rule="evenodd" d="M0.668262 0C0.213262 0.084 -0.00873703 0.358 0.000262973 0.82C0.548263 0.812 0.755262 0.525 0.668262 0Z" transform="translate(70.274 67.228)" fill="#D2CBC4"/>
<path fill-rule="evenodd" clip-rule="evenodd" d="M0.736 0C0.259 0.034 0.013 0.287998 0 0.765998C0.525 0.779998 0.754 0.509 0.736 0Z" transform="translate(68.5852 69.047)" fill="#D2CBC4"/>
<path fill-rule="evenodd" clip-rule="evenodd" d="M0.295086 0.810001C0.426086 0.654001 0.557092 0.498001 0.688092 0.342001C0.737092 0.228001 0.737092 0.115 0.688092 0C0.136092 0.0660001 -0.321914 0.177001 0.295086 0.810001Z" transform="translate(73.4861 21.2791)" fill="#9F9C97"/>
<path fill-rule="evenodd" clip-rule="evenodd" d="M11.9006 28.5411C11.1246 27.2781 12.3846 27.1131 12.9666 26.6071C13.2186 26.3891 13.8376 26.4321 13.6206 25.9121C13.4456 25.4911 12.9626 25.7151 12.6026 25.7581C12.5406 25.7661 12.4796 25.7981 12.4176 25.8001C11.4916 25.8241 10.3696 27.2101 9.71356 25.9171C8.99456 24.4951 10.8836 24.6831 11.4556 23.9971C11.7646 23.6261 12.0266 23.2971 11.7726 22.8311C11.5496 22.4231 11.1206 22.4351 10.7656 22.5651C10.0586 22.8271 9.35656 23.1191 8.69056 23.4721C7.56856 24.0671 7.47656 23.0721 7.11656 22.4981C6.71856 21.8651 6.59056 21.3251 7.58256 21.1271C7.94556 21.0541 8.29756 20.8711 8.62356 20.6841C9.12156 20.3941 9.68156 20.0421 9.46256 19.3641C9.20856 18.5751 8.42656 18.5411 7.87356 18.8091C5.90156 19.7631 5.80955 18.4261 5.59155 17.0961C5.42755 16.0981 5.71356 15.8151 6.68656 16.1661C7.54256 16.4751 8.45956 16.3791 8.79456 15.4751C9.14756 14.5231 8.28756 14.1941 7.54656 13.9171C7.31256 13.8291 7.11255 13.6541 6.88355 13.5461C5.48555 12.8781 4.60356 11.5891 5.44956 10.3601C6.36256 9.03213 6.97656 11.1171 7.90756 11.1731C8.81556 11.1211 9.57956 10.7601 9.71956 9.81412C9.84556 8.96612 9.03556 8.73513 8.45056 8.35213C7.00456 7.40413 5.25356 6.60513 6.23156 4.28413C6.62556 3.35213 6.92456 2.93612 7.71456 3.98012C8.42956 4.92712 9.49156 5.56613 10.4556 4.56313C11.4866 3.49113 10.0746 2.97913 9.54556 2.30513C9.00156 1.61113 8.43356 0.936125 7.87756 0.252125C7.62756 -0.0448744 7.31955 -0.0458738 6.98755 0.0771262C6.33655 0.813126 5.58156 0.453125 4.84356 0.280125C4.65856 0.0581255 4.47056 -0.147875 4.18656 0.155125C3.15956 0.444125 1.78856 0.284128 1.82956 1.96313C2.49456 2.45013 3.18556 2.80013 4.03956 2.93613C4.63056 3.03013 5.91156 2.29513 5.72856 3.60013C5.55156 4.86513 5.80656 6.63713 3.84756 7.00713C3.29256 7.11213 2.71855 7.12013 2.16055 7.21413C1.32055 7.35513 0.233558 7.26013 0.295558 8.56613C0.362558 9.98813 1.53156 9.45812 2.31156 9.59812C2.86256 9.57912 3.40355 9.42712 3.95955 9.48112C4.81055 11.0051 4.67956 12.3691 3.07256 13.2361C1.93756 13.8491 1.03356 14.6731 0.169559 15.5821C0.0245583 15.6481 -0.0274438 15.7221 0.0135562 15.8011C0.0585562 15.8911 0.101558 15.9321 0.143558 15.9261C0.214558 16.1601 0.286558 16.3951 0.357558 16.6281C1.02156 16.9351 1.67156 16.8841 2.38656 16.7291C3.06256 16.5841 4.11156 15.2201 4.42356 16.8531C4.65456 18.0591 6.05056 19.9181 3.40056 20.4771C2.64256 20.6371 1.83656 21.1061 2.07156 22.0261C2.31656 22.9841 3.22956 22.4081 3.85956 22.5001C4.74256 22.6281 5.78356 21.3231 6.51656 22.8111C7.18656 24.1701 8.30356 25.6701 5.34056 25.4161C4.71556 25.3621 3.94356 25.5971 4.03256 26.4221C4.10756 27.1171 4.85056 27.1681 5.40956 27.1041C6.15756 27.0201 6.92956 26.8981 7.61856 26.6161C8.60656 26.2101 9.27356 26.4861 9.58256 27.4121C9.94656 28.5051 9.12955 28.8031 8.28555 29.0721C7.71355 29.2551 6.55256 28.8091 6.71356 29.7871C6.83256 30.5171 7.91756 30.0441 8.57856 30.1151C10.0396 30.2731 10.6136 28.6731 11.9006 28.5411Z" transform="translate(41.9226 48.452)" fill="#A92A28"/>
<path fill-rule="evenodd" clip-rule="evenodd" d="M15.9964 8.79546C16.0384 8.23146 16.0804 7.66546 16.1214 7.10046C16.5274 6.55246 16.4684 5.94146 16.3684 5.32546C16.2754 4.83246 16.0964 4.37246 15.7914 3.97146C15.1554 3.52446 15.2914 2.55946 14.5844 2.15446C14.4584 2.01446 14.3334 1.87146 14.2054 1.73146C13.5934 1.06446 12.9684 -0.362541 12.2414 0.0854589C11.4684 0.561459 12.8534 1.28746 13.1514 1.98346C13.5354 2.88246 13.0944 3.21946 12.5574 3.70946C11.8664 4.34146 11.5714 3.88046 11.0434 3.43846C10.2704 2.79046 9.93343 1.46846 8.55643 1.67246C8.71743 1.83746 8.69243 1.92946 8.45243 1.93946C8.61943 3.16746 11.2104 3.47746 9.73643 5.32746C8.73743 5.48646 8.08343 6.77146 6.86243 6.20746C6.55543 5.89446 6.30243 5.46746 5.93043 5.29146C5.10643 4.90246 4.36343 3.34646 3.41443 4.44046C2.51543 5.47546 4.26543 5.63646 4.61443 6.33246C4.89243 6.88346 5.75843 7.37546 4.85943 8.07846C4.17643 8.61246 3.61943 9.68946 2.51943 8.64846C2.20543 8.35046 1.78443 8.16446 1.41243 7.92746C0.475434 7.96146 -0.225567 8.21546 0.0674332 9.38546C0.149433 9.42046 0.222433 9.47146 0.283433 9.53646C0.395433 9.53546 0.484435 9.58046 0.549435 9.67246C0.796435 9.91246 1.04443 10.1535 1.29243 10.3945C1.17643 10.8985 0.756435 11.4005 1.29243 11.9045C2.01443 11.3835 2.39043 11.6015 2.51643 12.4505C2.63143 13.2315 2.78543 14.0055 2.92343 14.7825C3.31543 15.0645 3.67443 14.9345 4.02343 14.6925C4.16543 14.1605 4.30843 13.6285 4.44943 13.0965C4.48843 12.8345 4.48743 12.5735 4.41843 12.3165C4.23443 11.7835 3.95543 11.2635 3.88743 10.7175C3.71843 9.36146 4.97443 9.26946 5.74743 9.02446C6.86943 8.66846 6.63943 9.63946 6.66643 10.3135C6.69843 11.1375 6.39443 12.4165 7.60943 12.3745C8.67543 12.3375 8.55643 11.0425 8.59943 10.2075C8.63043 9.60746 8.38343 8.99046 8.26043 8.38146C8.06843 8.00346 8.26344 7.66346 8.36544 7.31546C10.2444 5.86246 11.2744 6.13846 11.3354 8.69546C11.3514 9.40146 11.4054 10.4955 12.4844 10.2875C13.4454 10.1025 12.9744 9.12946 12.8924 8.50146C12.7964 7.75446 12.5904 7.01146 12.3384 6.29946C12.1714 5.82746 11.7264 5.36746 12.3444 4.98246C12.7524 4.72646 13.2884 4.45946 13.7264 4.51646C14.3374 4.59646 14.2514 5.29446 14.3474 5.77146C14.4724 6.39446 14.5544 7.02546 14.6544 7.65346C14.8664 7.91846 14.8914 8.28246 15.1254 8.53546C15.2494 8.64546 15.3744 8.75446 15.4984 8.86346C15.6754 8.91646 15.8414 8.89746 15.9964 8.79546Z" transform="translate(59.193 22.04)" fill="#A92A28"/>
<path fill-rule="evenodd" clip-rule="evenodd" d="M6.27958 5.19376C6.96158 5.66276 7.59658 6.63876 8.50758 5.65776C9.33758 4.76376 8.55558 4.01976 8.04558 3.34376C7.52058 2.65176 6.89458 2.03676 6.31358 1.38676C6.17758 1.02576 5.91358 0.846763 5.53258 0.828763C4.25758 1.13776 3.30458 0.0877619 2.10558 0.0187619C1.23958 -0.0302381 0.356583 -0.0542349 0.0605828 0.901765C-0.275417 1.98976 0.870585 1.97776 1.42558 2.36676C2.18458 2.89976 3.31858 2.56376 3.96258 3.41176C4.05458 4.27676 5.03358 3.63176 5.30158 4.19676C5.45758 4.40476 5.61258 4.61276 5.76658 4.82076C5.91358 4.97876 6.08258 5.10576 6.27958 5.19376Z" transform="translate(46.7809 41.033)" fill="#A92A28"/>
<path fill-rule="evenodd" clip-rule="evenodd" d="M7.26515 7.19566C8.28915 5.90566 7.15515 4.92466 6.73115 3.88266C6.45315 3.19866 5.73915 2.65466 6.38515 1.83466C6.19315 1.58266 5.95315 1.52166 5.66515 1.65366C4.58315 2.20066 4.15115 0.953656 3.30515 0.796656C2.22415 0.594656 0.915149 -0.859343 0.156149 0.746657C-0.542851 2.22266 1.28115 2.38966 2.14815 2.87666C2.93715 3.31866 3.51815 3.70466 3.34215 4.69566C3.29615 4.88766 3.36515 5.02166 3.54415 5.09766C4.00615 5.33266 4.59015 4.98365 5.01615 5.40565C5.63215 6.04165 5.76915 7.15166 6.88315 7.29666C7.00215 7.23266 7.13015 7.20066 7.26515 7.19566Z" transform="translate(51.602 34.131)" fill="#A92A28"/>
<path fill-rule="evenodd" clip-rule="evenodd" d="M1.54351 5.12586C3.45651 6.80586 5.67851 6.54486 7.92351 6.14286C7.93651 5.90086 7.94751 5.66086 7.96051 5.41986C8.10151 5.10886 8.13251 4.83586 7.72451 4.70786C6.60851 4.13086 5.49451 3.55286 4.37951 2.97486C4.27751 2.78886 4.14151 2.63386 3.97051 2.50786C3.24551 2.12086 3.12051 1.29186 2.64851 0.718861C1.77151 -0.350139 0.724509 -0.214141 0.197509 1.04186C-0.342491 2.32886 0.263508 4.16586 1.54351 5.12586Z" transform="translate(17.9759 37.673)" fill="#A92A28"/>
<path fill-rule="evenodd" clip-rule="evenodd" d="M3.25764 5.80872C3.67564 4.76172 4.63464 4.73972 5.53464 4.60672C6.02864 4.62472 6.48964 4.49872 6.93264 4.28572C7.19964 2.71972 6.53664 2.01672 4.96364 2.15672C4.88464 2.06072 4.80464 1.96472 4.72564 1.87072C4.86664 1.28872 4.60164 0.993719 4.04864 0.894719C3.43864 0.887719 2.99164 0.480719 2.47564 0.247719C1.71764 -0.0922809 0.973637 -0.149281 0.367637 0.508719C-0.278363 1.21372 0.0366365 1.92372 0.475637 2.59972C0.752637 3.02772 1.02964 3.45472 1.37264 3.83072C1.72664 4.21672 2.16264 4.54772 2.26364 5.11772C2.38764 5.46872 2.52964 5.80672 2.84964 6.03172C3.05464 6.08172 3.19364 6.01372 3.25764 5.80872Z" transform="translate(22.9542 25.577)" fill="#A92A28"/>
<path fill-rule="evenodd" clip-rule="evenodd" d="M4.477 4.05749L4.805 3.78749C5.187 3.31449 5.894 3.65049 6.283 3.19449L6.36 3.15749C6.706 2.53149 6.593 1.98649 6.069 1.51649C5.094 0.828489 3.87 0.71849 2.839 0.14349C0.614001 -0.24251 0.149 0.0724902 0 2.05249C0.085 2.33949 0.234 2.59549 0.438 2.81549C0.631 3.01949 0.853 3.19649 1.084 3.35749C1.301 3.51449 1.535 3.65149 1.772 3.77849C2.532 4.04749 2.889 4.82749 3.562 5.21149C4.207 5.09649 4.268 4.51849 4.477 4.05749Z" transform="translate(24.1274 19.9771)" fill="#A92A28"/>
<path fill-rule="evenodd" clip-rule="evenodd" d="M3.52092 6.18104C3.77092 6.05404 4.02192 5.92604 4.27192 5.79904C4.70392 4.60604 5.53792 3.38104 4.01292 2.34104C3.72792 2.19104 3.41492 2.07304 3.16592 1.84604C2.87492 1.56304 2.72392 1.19104 2.53592 0.836042C2.44992 0.679042 2.34992 0.53904 2.23392 0.40204C1.95892 0.0970397 1.63792 -0.069957 1.21292 0.028043C-0.245082 0.777043 -0.119081 2.03504 0.217919 3.29504C0.492919 4.32404 0.828919 5.35204 1.66992 6.10404C2.27192 6.49704 2.89292 6.44104 3.52092 6.18104Z" transform="translate(20.6538 31.838)" fill="#A92A28"/>
<path fill-rule="evenodd" clip-rule="evenodd" d="M8.32712 0L4.59811 0.448C4.33211 0.432 4.06911 0.451 3.81011 0.521C2.92411 0.563 2.01512 0.501001 1.15612 0.676001C0.267115 0.856001 -0.419885 1.342 0.302115 2.413C0.349115 2.606 0.465115 2.743 0.646115 2.824C1.01511 2.947 1.39712 2.929 1.77712 2.932C2.25312 2.955 2.72712 3.002 3.20712 2.998C3.72012 2.983 4.16211 2.806 4.52111 2.436C5.19211 2.164 5.86311 1.893 6.53311 1.62C6.83111 1.532 7.12012 1.419 7.41012 1.311C7.92812 1.021 8.48512 0.762 8.32712 0Z" transform="translate(25.2226 15.481)" fill="#A92A28"/>
<path fill-rule="evenodd" clip-rule="evenodd" d="M0 3.142C2.304 3.538 0.997001 5.109 1.01 6.25C1.378 6.156 1.753 6.082 2.112 5.96C2.994 5.662 4.418 6.032 4.413 4.542C4.408 3.234 3.191 3.303 2.273 3.182C1.38 3.064 1.437 2.56 1.742 1.973C2.067 1.349 2.4 0.74 2.296 0C2.072 0.017 1.848 0.0339987 1.624 0.0509987C0.304001 0.671999 0.117 1.889 0 3.142Z" transform="translate(23.9159 31.387)" fill="#9F9C97"/>
<path fill-rule="evenodd" clip-rule="evenodd" d="M0.0257997 1.16007C0.6338 1.57707 0.566801 2.22007 0.583801 2.83407C1.8518 2.52407 4.0338 2.72607 3.6528 0.942076C3.2188 -1.08793 1.4758 0.811077 0.3208 0.704077C-0.00420022 0.710077 -0.0362003 0.904076 0.0257997 1.16007Z" transform="translate(29.9028 20.301)" fill="#9F9C97"/>
<path fill-rule="evenodd" clip-rule="evenodd" d="M2.942 3.544C3.041 3.391 3.138 3.238 3.236 3.087C2.062 2.216 2.976 1.02 2.757 0C2.239 0.047 1.72 0.0940008 1.201 0.141C0.750998 0.954 0.602 1.911 0 2.651C0.781 3.609 1.919 3.387 2.942 3.544Z" transform="translate(26.9866 17.917)" fill="#D2CBC4"/>
<path fill-rule="evenodd" clip-rule="evenodd" d="M1.84657 2.60729C1.85657 1.71429 2.58757 1.49129 3.19357 1.15129C3.01057 0.990285 2.85557 0.760285 2.64457 0.682285C1.78257 0.363285 0.67557 -0.704716 0.10857 0.729284C-0.38543 1.97628 0.913568 2.28729 1.84657 2.60729Z" transform="translate(57.4141 28.818)" fill="#9F9C97"/>
<path fill-rule="evenodd" clip-rule="evenodd" d="M0 0.433388C1.025 0.678388 1.669 1.29939 1.883 2.34439C1.929 2.61739 2.071 2.68539 2.313 2.55039C2.692 2.34039 3.072 2.13039 3.452 1.92139C3.511 1.76839 3.588 1.62439 3.686 1.49439C3.095 -1.07661 1.324 0.454388 0 0.433388Z" transform="translate(27.9179 27.301)" fill="#9F9C97"/>
<path fill-rule="evenodd" clip-rule="evenodd" d="M0 3.351C0.24 3.412 0.478998 3.471 0.718998 3.532C1.833 3.205 2.508 2.335 3.218 1.51V0C2.214 1.183 0.605 1.787 0 3.351Z" transform="translate(57.2675 32.434)" fill="#9F9C97"/>
<path fill-rule="evenodd" clip-rule="evenodd" d="M3.173 0.785C3.078 -0.0780002 2.252 0.308 1.833 0C1.223 1.361 0.611 2.722 0 4.084C0.296 4.141 0.592999 4.2 0.889999 4.259C1.62 3.081 1.477 1.328 3.173 0.785Z" transform="translate(48.9099 44.4449)" fill="#9F9C97"/>
<path fill-rule="evenodd" clip-rule="evenodd" d="M0 2.882C0.261 3.068 0.520999 3.254 0.780999 3.441C0.853999 3.415 0.923 3.38 0.987 3.337C1.049 3.187 1.126 3.045 1.222 2.914L1.201 2.933C1.903 2.305 2.624 1.69 2.743 0.664002C2.696 0.360002 2.521 0.15 2.262 0C0.967001 0.536 0.637 1.829 0 2.882Z" transform="translate(52.3134 38.98)" fill="#9F9C97"/>
<path fill-rule="evenodd" clip-rule="evenodd" d="M1.9087 0C1.5127 0.343 1.1167 0.686 0.721698 1.028C-0.0743017 1.395 -0.190303 1.948 0.267697 2.662C0.507697 2.912 0.745697 3.162 0.983697 3.413C1.2927 2.275 1.5997 1.138 1.9087 0Z" transform="translate(26.6957 24.035)" fill="#9F9C97"/>
<path fill-rule="evenodd" clip-rule="evenodd" d="M2.49663 0.375C1.99263 0.25 1.48863 0.125 0.983629 0C-0.0113707 0.743 -0.23537 1.689 0.23863 2.82C0.38563 2.881 0.531629 2.941 0.677629 3.002C1.28363 2.127 1.89063 1.251 2.49663 0.375Z" transform="translate(21.6781 37.644)" fill="#9F9C97"/>
<path fill-rule="evenodd" clip-rule="evenodd" d="M0 0.949522C1.446 2.25452 2.08 0.900523 2.874 0.0695229C1.711 -0.308477 1.057 0.979522 0 0.949522Z" transform="translate(66.0556 27.298)" fill="#9F9C97"/>
<path fill-rule="evenodd" clip-rule="evenodd" d="M0 0.288001C0.329 0.886001 -0.110998 1.751 0.663002 2.192C0.921002 2.037 1.199 1.909 1.365 1.639C1.384 1.564 1.4 1.49 1.417 1.417C1.201 1.034 0.986004 0.652001 0.771004 0.270001C0.619004 0.234001 0.498005 0.152 0.408005 0.0249996L0.456001 0C0.304001 0.097 0.152 0.192001 0 0.288001Z" transform="translate(73.7773 23.907)" fill="#9F9C97"/>
<path fill-rule="evenodd" clip-rule="evenodd" d="M1.74 0.205999C1.596 0.137999 1.453 0.069 1.31 0C0.845 0.111 0.315 0.063999 0 0.539999C0.628 0.678999 1.236 0.715999 1.74 0.205999Z" transform="translate(28.4904 29.645)" fill="#D2CBC4"/>
<path fill-rule="evenodd" clip-rule="evenodd" d="M1.477 0C0.908001 0.004 0.395 0.151 0 0.594C0.567 0.583 1.146 0.599 1.477 0Z" transform="translate(28.9331 23.171)" fill="#9F9C97"/>
<path fill-rule="evenodd" clip-rule="evenodd" d="M0.876001 0.059716C0.494001 -0.091284 0.218 0.0557174 0 0.369718C0.349 0.426718 0.668001 0.400717 0.876001 0.059716Z" transform="translate(31.7567 16.7321)" fill="#D2CBC4"/>
<path fill-rule="evenodd" clip-rule="evenodd" d="M0 0.152001C0.085 0.368001 0.171 0.583001 0.257 0.798001C0.387 0.859001 0.518999 1.003 0.632999 0.772999C0.745999 0.544999 0.675001 0.360002 0.512001 0.192002C0.454001 0.135002 0.406999 0.072 0.368999 0C0.245999 0.049 0.123 0.100001 0 0.152001Z" transform="translate(54.5751 38.828)" fill="#A92A28"/>
<path fill-rule="evenodd" clip-rule="evenodd" d="M0 0C0.079 0.237 0.157 0.475002 0.236 0.712002C0.593 0.330002 0.491 0.101 0 0Z" transform="translate(25.7001 42.38)" fill="#D2CBC4"/>
<path fill-rule="evenodd" clip-rule="evenodd" d="M0.10301 0C0.0690101 0.09 0.0350056 0.178999 5.61081e-06 0.267999C-0.000994389 0.266999 0.132009 0.165001 0.132009 0.165001L0.10301 0Z" transform="translate(67.6459 23.712)" fill="#9F9C97"/>
<path fill-rule="evenodd" clip-rule="evenodd" d="M0.233999 0L0 0.428L0.233999 0Z" transform="translate(31.3694 28.7939)" fill="#D2CBC4"/>
<path fill-rule="evenodd" clip-rule="evenodd" d="M0.267003 0.149998L0.171002 0C0.171002 0 -0.000995656 0.0119967 4.34369e-06 0.0129967C0.00100434 0.0139967 0.0930028 0.16 0.0930028 0.16L0.267003 0.149998Z" transform="translate(59.4751 31.562)" fill="#9F9C97"/>
<path fill-rule="evenodd" clip-rule="evenodd" d="M0 0.110147C0.219 0.151147 0.437001 0.193148 0.657001 0.234148C0.479001 -0.0238524 0.262 -0.073853 0 0.110147Z" transform="translate(46.1093 48.4969)" fill="#D2CBC4"/>
<path fill-rule="evenodd" clip-rule="evenodd" d="M5.12608 22.59C5.37408 21.651 5.62208 20.711 5.87108 19.771C5.33008 17.966 2.83008 16.322 5.42208 14.262C5.89808 14.163 5.87708 14.657 6.11408 14.844L6.11508 14.845C6.53508 15.086 6.27708 15.668 6.66108 15.927C6.81508 16.17 6.97108 16.412 7.12608 16.654C7.66708 15.625 8.20808 14.595 8.74908 13.565C8.75208 13.232 8.75508 12.9 8.75808 12.568C8.46008 12.229 8.29708 11.794 7.97808 11.47C7.86508 11.25 7.73608 11.036 7.64408 10.809C7.32608 10.028 5.98008 9.462 6.91308 8.427C7.86908 7.365 8.53608 8.496 9.25508 8.976C9.61208 9.216 9.93308 9.257 10.1741 8.821C10.0881 8.213 10.2421 7.67 10.6261 7.19C10.7301 6.083 9.94008 5.777 9.11708 5.501C8.93308 5.453 8.78908 5.341 8.65708 5.209C8.49908 5.103 8.34108 4.995 8.18308 4.888C8.04508 4.772 7.89908 4.665 7.78108 4.527C7.52308 2.515 8.72608 2.428 10.1951 2.694C11.9251 2.493 11.5341 1.278 11.3971 0.184C11.0061 0.123 10.6141 0.062 10.2231 0C9.85508 0.287 9.47508 0.417 9.06408 0.0760002C8.96408 0.00400021 8.85308 -0.0140001 8.73308 0.0209999C6.63408 2.713 3.35308 4.426 2.30408 8.009C1.80208 9.722 1.22108 11.214 1.31508 13.202C1.39408 14.843 0.660085 16.824 0.641085 18.737C0.629085 19.93 0.337084 21.12 0.153084 22.309C-0.266916 25.037 0.0500834 25.362 2.72908 24.924C2.41408 23.906 2.06108 22.899 1.79808 21.867C1.62808 21.198 1.87208 20.538 2.51308 20.28C3.30008 19.964 3.32808 20.795 3.63408 21.214C4.03808 21.765 4.02108 22.796 5.12608 22.59Z" transform="translate(16.7908 17.874)" fill="#E5E5E1"/>
<path fill-rule="evenodd" clip-rule="evenodd" d="M4.047 5.82955C4.986 5.29655 5.934 4.77455 6.862 4.22355C7.223 4.00955 7.836 3.87555 7.683 3.32255C7.481 2.59955 6.854 3.02255 6.391 3.01455C5.688 3.00155 4.784 4.08455 4.409 3.21455C4.063 2.40955 5.302 2.02755 5.91 1.51855C6.547 0.985544 8.244 1.17355 7.88 0.333545C7.512 -0.517455 6.219 0.500545 5.352 0.736545C3.945 1.12055 2.568 1.61155 1.184 2.07355C0.759002 2.21655 0.202003 2.43955 0.377003 2.95155C0.591003 3.57855 1.111 3.09255 1.499 3.02055C1.621 2.99855 1.734 2.89255 1.854 2.88755C2.436 2.85655 3.222 1.80555 3.548 3.00555C3.814 3.98255 2.767 3.72355 2.244 3.92655C1.294 4.29755 -0.00199769 4.24755 2.31202e-06 5.77355C0.441002 5.99755 0.870003 5.95555 1.29 5.71555C1.877 5.53655 2.464 5.23655 3.052 5.71455C3.36 5.95755 3.698 5.94255 4.047 5.82955Z" transform="translate(25.9529 7.65002)" fill="#A92A28"/>
<path fill-rule="evenodd" clip-rule="evenodd" d="M3.10493 7.62729C3.19993 6.87929 2.95193 5.95929 4.06293 5.72429C3.66393 3.77529 2.34893 2.27029 1.51993 0.528291C1.33993 0.151291 0.858928 -0.115709 0.378928 0.0502907C0.203928 0.110291 -0.016072 0.430289 0.000927999 0.609289C0.211928 2.73929 -0.104072 4.91329 0.512928 7.00829C0.642928 7.44929 1.02893 7.51429 1.41493 7.55829C1.67593 7.55429 1.93893 7.54929 2.20093 7.54429C2.53193 7.25229 2.78793 7.77329 3.10493 7.62729Z" transform="translate(6.78366 45.803)" fill="#9F9C97"/>
<path fill-rule="evenodd" clip-rule="evenodd" d="M0.995001 0.115C0.664001 0.0769998 0.332 0.039 0 0C0.01 0.879 0.0189999 1.759 0.0279999 2.637C0.319 2.915 0.588001 2.957 0.815001 2.564C0.876001 1.748 0.935001 0.931 0.995001 0.115Z" transform="translate(29.0049 13.365)" fill="#9F9C97"/>
<path fill-rule="evenodd" clip-rule="evenodd" d="M0 0.167C0.011 0.814 0.0419997 1.622 0.872 1.535C1.566 1.462 2.046 0.852 1.783 0C1.188 0.056 0.595 0.111 0 0.167Z" transform="translate(11.5214 52.548)" fill="#9F9C97"/>
<path fill-rule="evenodd" clip-rule="evenodd" d="M0 0.730409C0.585 1.06241 1.169 1.39441 1.753 1.72641C1.69 0.960407 1.522 0.215409 0.659 0.0154082C0.214 -0.0875918 0.066 0.345409 0 0.730409Z" transform="translate(16.7216 51.7371)" fill="#9F9C97"/>
<path fill-rule="evenodd" clip-rule="evenodd" d="M1.271 0.28598C0.886 -0.10202 0.45 -0.0370201 0 0.13998C0.334 0.95998 0.768 0.92198 1.271 0.28598Z" transform="translate(20.3686 50.35)" fill="#9F9C97"/>
<path fill-rule="evenodd" clip-rule="evenodd" d="M1.29 0C0.859999 0.02 0.43 0.039 0 0.059C0.469 0.908 0.893999 0.767 1.29 0Z" transform="translate(25.9531 13.366)" fill="#9F9C97"/>
<path fill-rule="evenodd" clip-rule="evenodd" d="M1.446 0.277261C1.027 -0.142739 0.546 0.0042609 0.0720005 0.138261C0.0290005 0.150261 0.023 0.295261 0 0.378261C0.483 0.342261 0.967001 0.306261 1.45 0.270261L1.446 0.277261Z" transform="translate(31.674 14.407)" fill="#E5E5E1"/>
<path fill-rule="evenodd" clip-rule="evenodd" d="M1.648 0.118452C1.083 -0.0795487 0.534 -0.0215475 0 0.234453C0.575 0.555453 1.114 0.362452 1.648 0.118452Z" transform="translate(44.2337 57.8149)" fill="#9F9C97"/>
<path fill-rule="evenodd" clip-rule="evenodd" d="M0 0L0.230999 1.11C0.770999 0.611 0.709 0.238 0 0Z" transform="translate(22.3505 48.6379)" fill="#9F9C97"/>
<path fill-rule="evenodd" clip-rule="evenodd" d="M0.0749998 0.562999C0.0499998 0.374999 0.025 0.186 0 0C0.024 0.188 0.0499998 0.375999 0.0749998 0.562999Z" transform="translate(15.5118 45.0439)" fill="#9F9C97"/>
<path fill-rule="evenodd" clip-rule="evenodd" d="M0.226984 0.344002C0.288984 0.234002 0.295986 0.119 0.251986 0C-0.0720141 0.092 -0.0870156 0.206002 0.226984 0.344002Z" transform="translate(41.8393 64.0341)" fill="#9F9C97"/>
<path fill-rule="evenodd" clip-rule="evenodd" d="M0.0910476 0.318001C0.162048 0.204001 0.152048 0.097 0.059048 0C0.037048 0.078 0.00604799 0.154003 4.7994e-05 0.232003C-0.00195201 0.258003 0.0590476 0.290001 0.0910476 0.318001Z" transform="translate(12.8512 50.746)" fill="#9F9C97"/>
<path fill-rule="evenodd" clip-rule="evenodd" d="M1.572 0.302377C1.487 0.505377 1.401 0.708375 1.316 0.909375C0.877998 1.67038 0.439 2.43238 0 3.19538C1.697 3.26938 1.599 0.997375 3.103 0.819375C2.985 -0.518625 2.192 0.148377 1.572 0.302377Z" transform="translate(53.5148 38.718)" fill="#E5E5E1"/>
<path fill-rule="evenodd" clip-rule="evenodd" d="M0.108999 2.046C0.184999 2.637 0.262003 3.228 0.338003 3.817C0.677003 3.823 1.017 3.831 1.356 3.838C1.037 2.541 1.452 1.026 0.218 0C0.176 0.05 0.133999 0.101 0.0939989 0.152C-0.235001 0.786 0.430999 1.412 0.108999 2.046Z" transform="translate(74.9759 25.324)" fill="#9F9C97"/>
<path fill-rule="evenodd" clip-rule="evenodd" d="M0 0C0.01 0.261 0.0210021 0.520999 0.0310021 0.779999C0.396002 0.504999 0.571 0.237 0 0Z" transform="translate(63.6112 34.356)" fill="#9F9C97"/>
<path fill-rule="evenodd" clip-rule="evenodd" d="M0.496565 0C-0.0894346 0.303 -0.197439 0.651999 0.392561 1.067C0.426561 0.710999 0.461565 0.355 0.496565 0Z" transform="translate(67.0619 29.355)" fill="#9F9C97"/>
<path fill-rule="evenodd" clip-rule="evenodd" d="M1.101 0C0.734001 0.03 0.367 0.0600002 0 0.0900002C0.407 0.546 0.772002 0.484 1.101 0Z" transform="translate(62.1157 36.733)" fill="#9F9C97"/>
<path fill-rule="evenodd" clip-rule="evenodd" d="M0.471588 0.881001C0.314588 0.588001 0.158587 0.294 0.000587764 0C-0.00941223 0.383 0.106588 0.697001 0.471588 0.881001Z" transform="translate(73.8467 29.6949)" fill="#9F9C97"/>
<path fill-rule="evenodd" clip-rule="evenodd" d="M0.497002 0C0.332002 0.023 0.166 0.0460008 0 0.0680008C0.2 0.301001 0.370002 0.304 0.497002 0Z" transform="translate(74.6924 30.8361)" fill="#9F9C97"/>
<path fill-rule="evenodd" clip-rule="evenodd" d="M0.382 0C0.255 0.033 0.127 0.0670017 0 0.101002C0.128 0.0670017 0.255 0.033 0.382 0Z" transform="translate(58.4851 41.327)" fill="#9F9C97"/>
<path fill-rule="evenodd" clip-rule="evenodd" d="M0.233997 0C0.155997 0.141 0.078 0.281001 0 0.423001C0.078 0.281001 0.155997 0.141 0.233997 0Z" transform="translate(53.3011 41.894)" fill="#E5E5E1"/>
<path fill-rule="evenodd" clip-rule="evenodd" d="M0.512001 0.372001C0.341001 0.248001 0.171 0.124 0 0C0.17 0.124 0.341001 0.248001 0.512001 0.372001Z" transform="translate(52.5485 45.855)" fill="#9F9C97"/>
<path fill-rule="evenodd" clip-rule="evenodd" d="M0.903 0.404926C0.612 0.274926 0.37 -0.385074 0 0.320926C0.141 0.730926 0.284 1.13893 0.426 1.54893C0.654 1.87293 0.873 1.79193 1.088 1.53493C1.026 1.15793 0.964999 0.781926 0.903 0.404926Z" transform="translate(8.9856 53.025)" fill="#D2CBC4"/>
<path fill-rule="evenodd" clip-rule="evenodd" d="M0.66 0C0.44 0.005 0.22 0.0109994 0 0.0149994C0.081 0.578999 -0.005 1.431 0.809 1.28C1.191 1.21 0.857 0.434 0.66 0Z" transform="translate(9.41309 54.5601)" fill="#9F9C97"/>
<path fill-rule="evenodd" clip-rule="evenodd" d="M0 0.0720397C0.121 0.15404 0.241 0.23704 0.362 0.31804C0.319 0.12104 0.309 -0.12396 0 0.0720397Z" transform="translate(74.1855 23.86)" fill="#E5E5E1"/>
<path fill-rule="evenodd" clip-rule="evenodd" d="M0.643997 1.91015C1.014 1.27615 0.827997 0.645146 0.628997 0.0151465C0.120997 -0.0758535 0.035 0.257146 0 0.640146C0.214 1.06315 0.428997 1.48615 0.643997 1.91015Z" transform="translate(74.4409 25.459)" fill="#E5E5E1"/>
<path fill-rule="evenodd" clip-rule="evenodd" d="M0 0C0.027 0.531 0.0630007 1.056 0.780001 1.098C0.841001 0.504002 0.504 0.192 0 0Z" transform="translate(24.7685 29.344)" fill="#D2CBC4"/>
<path fill-rule="evenodd" clip-rule="evenodd" d="M0 0C0.134 0.121 0.267999 0.241001 0.400999 0.362001C0.267999 0.241001 0.134 0.121 0 0Z" transform="translate(24.5722 22.401)" fill="#D2CBC4"/>
<path fill-rule="evenodd" clip-rule="evenodd" d="M0 0C0.153 0.098 0.306999 0.194002 0.459999 0.292002C0.306999 0.194002 0.153 0.098 0 0Z" transform="translate(25.4482 23.084)" fill="#D2CBC4"/>
<path fill-rule="evenodd" clip-rule="evenodd" d="M0.546002 1.082C0.527002 0.640001 0.508 0.197 0 0C0.016 0.444 0.0960015 0.856001 0.546002 1.082Z" transform="translate(22.9061 32.719)" fill="#D2CBC4"/>
<path fill-rule="evenodd" clip-rule="evenodd" d="M0.691 0.602295C0.65 0.183295 0.475 -0.0767064 0 0.0202936C0.229 0.214294 0.461 0.408295 0.691 0.602295Z" transform="translate(22.2142 32.116)" fill="#D2CBC4"/>
<path fill-rule="evenodd" clip-rule="evenodd" d="M0 0.0760002C0.421 0.58 0.805999 0.53 1.158 0C0.771999 0.025 0.387 0.0510002 0 0.0760002Z" transform="translate(25.8554 17.875)" fill="#D2CBC4"/>
</g>
<defs>
<clipPath id="clip0">
<rect width="86.9599" height="86.959" fill="white"/>
</clipPath>
</defs>
</svg>
