<svg width="87" height="87" viewBox="0 0 87 87" fill="none" xmlns="http://www.w3.org/2000/svg">
<g clip-path="url(#clip0)">
<path fill-rule="evenodd" clip-rule="evenodd" d="M43.481 86.96C19.467 86.96 0 67.494 0 43.48C0 19.467 19.467 0 43.481 0C67.493 0 86.96 19.467 86.96 43.48C86.96 67.494 67.493 86.96 43.481 86.96Z" fill="#050505"/>
<path fill-rule="evenodd" clip-rule="evenodd" d="M73.3375 57.1881C83.4145 38.1911 76.1836 14.6241 57.1876 4.54711C38.1916 -5.52889 14.6246 1.70111 4.54755 20.6971C-5.52945 39.6931 1.70155 63.2611 20.6976 73.3371C39.6936 83.4141 63.2605 76.1831 73.3375 57.1881Z" transform="translate(3.47534 5.11218)" fill="#EC2024"/>
<path fill-rule="evenodd" clip-rule="evenodd" d="M17.6982 71.5545C32.8572 69.5445 46.8532 60.5005 54.5642 45.9625C61.6972 32.5145 61.9342 17.2445 56.5162 4.20453C37.6392 -5.35647 14.5042 1.91353 4.54521 20.6875C-4.98079 38.6465 0.969204 60.6865 17.6982 71.5545Z" transform="translate(3.47729 5.12158)" fill="#F26C21"/>
<path fill-rule="evenodd" clip-rule="evenodd" d="M75.3605 58.7613C85.6985 39.2713 78.2525 14.9983 58.7625 4.65933C39.2715 -5.67967 14.9985 1.76833 4.6595 21.2573C-5.6795 40.7483 1.7675 65.0213 21.2585 75.3603C40.7485 85.6993 65.0215 78.2523 75.3605 58.7613ZM22.3365 73.3233C21.7715 73.0233 21.2215 72.7103 20.6765 72.3853C20.5545 72.0993 20.4415 71.8053 20.3415 71.4913C20.1575 70.9123 20.0125 70.2773 19.9065 69.5853C19.8015 68.8923 19.7385 68.1523 19.7125 67.3503C19.6885 66.6393 19.7105 65.8953 19.7545 65.0953C19.7585 64.9963 19.7925 64.9083 19.7985 64.8053C20.0865 61.8283 20.7825 55.6793 25.3155 45.2953C27.2365 41.0563 31.9465 29.5913 42.1745 18.8463C42.1845 18.8293 42.0705 18.7683 42.0715 18.7653C42.0675 18.7403 42.1975 18.8103 42.1995 18.8063C43.1975 16.9253 44.4635 16.8233 46.1565 18.1413C51.5085 22.3073 51.3875 22.2433 51.4805 22.6103C51.5985 23.0803 51.3495 23.4163 51.0435 23.8423C49.4645 26.0513 48.7585 27.8753 49.3335 31.7263C50.9765 42.7673 56.6955 52.7513 57.6215 63.9753C58.0465 69.1083 56.7675 72.3963 55.2175 74.4843C45.0105 78.9703 32.9275 78.9323 22.3365 73.3233ZM57.8575 73.2073C61.3685 67.1993 58.3845 57.0693 56.7655 51.5683C56.7065 51.3873 51.4035 32.6683 51.4595 29.0103C51.5335 24.1193 53.4425 23.6983 57.1295 27.7513C73.2895 45.5163 71.5155 59.1053 71.4965 59.2413C71.4952 59.2433 71.5055 59.3107 71.5275 59.4433C71.5705 59.5273 71.5315 60.1093 71.3575 60.9623C67.8425 66.2293 63.1645 70.3633 57.8575 73.2073ZM29.8555 10.3463C32.0945 11.1093 25.9295 14.2773 25.8635 14.3093C23.0665 15.6323 20.0425 16.3993 17.2645 17.7773C14.8705 18.9703 12.1535 20.3183 9.2645 22.5633C6.9705 24.3443 5.4655 25.9823 4.4355 27.5143C5.0515 25.7623 5.8055 24.0313 6.7025 22.3403C9.0035 18.0033 12.0415 14.3083 15.5735 11.3093C22.2735 7.87633 29.7635 10.3193 29.8555 10.3463ZM32.8755 11.4443C33.7345 11.2193 39.9995 14.2863 40.2625 14.5583C40.8825 15.1973 40.3135 15.8543 39.5945 16.6843C34.6635 22.1863 27.4805 31.1773 21.2265 46.4013C20.9195 47.1713 20.6295 47.9423 20.3495 48.7043C20.0715 49.4673 19.8085 50.2253 19.5615 50.9743C19.3145 51.7233 19.0845 52.4723 18.8675 53.2063C18.6525 53.9453 18.4525 54.6713 18.2705 55.3923C18.0885 56.1093 17.9245 56.8183 17.7755 57.5173C17.6245 58.2153 17.4945 58.9033 17.3845 59.5783C17.2685 60.2553 17.1775 60.9193 17.1025 61.5683C17.0275 62.2183 16.9735 62.8533 16.9375 63.4713C16.8465 65.1433 16.8965 66.5753 17.0735 67.8333C17.2075 68.7883 17.4165 69.6373 17.6905 70.3883C5.0825 61.1353 -0.425502 44.9803 3.6525 30.0653C5.1465 27.3743 7.8485 24.4303 12.9065 21.6883C13.2635 21.4923 13.7405 21.2323 14.1005 21.0473C14.4775 20.8533 14.9855 20.5963 15.3625 20.4033C18.8275 18.6293 22.6185 17.6333 26.1405 15.9813C28.6125 14.8213 30.0845 12.1713 32.8755 11.4443ZM31.7185 3.25633C33.7355 3.83133 35.5195 5.56033 33.6485 7.88833C32.6695 9.10733 31.8875 9.22233 30.7895 9.01633C24.7015 7.86433 20.6245 8.38133 17.5995 9.69133C21.8295 6.57633 26.6535 4.40233 31.7185 3.25633ZM34.4395 2.74433C41.4665 1.68433 48.8435 2.59033 55.6975 5.73133C53.4045 5.94633 49.8625 7.18033 44.5585 11.8263C44.5195 11.8503 44.5165 11.8483 44.5145 11.8523C40.5075 15.1033 34.6495 9.64333 34.5965 9.58433C35.0125 8.39933 36.3215 7.85033 36.7055 6.64033C37.0105 5.67333 37.0365 5.02433 36.3295 4.13133C35.7375 3.38933 35.1025 2.96833 34.4395 2.74433ZM58.8285 7.34733C69.7365 13.6273 76.3775 24.6463 77.5155 36.4053C75.5525 30.7043 72.0275 26.9053 70.1665 25.2023C67.3605 22.6343 60.2945 16.9643 55.3385 19.8213C53.6375 20.8033 53.6375 20.8033 46.9905 16.3183C45.7315 15.4683 45.6955 14.8923 46.8415 13.7673C52.4905 8.95133 56.2035 7.44433 58.8285 7.34733ZM77.7025 39.6133C77.7775 45.7153 76.3715 51.9173 73.3115 57.6773C72.9745 58.3123 72.6225 58.9263 72.2565 59.5323C72.3165 59.0953 72.4005 58.6623 72.5535 58.2393C72.4015 58.3183 72.2185 58.5133 72.0265 58.7073C72.2185 58.5133 72.4055 58.3163 72.5875 58.1163C72.5125 57.8503 72.4805 57.4853 72.5245 57.2203C72.8945 54.8963 72.6055 50.4893 69.1325 42.6733C66.4855 36.7103 62.2575 30.6423 56.5625 24.6503C55.8535 23.9023 55.6405 23.6783 55.4975 23.1123C55.4845 23.0563 56.7995 18.9253 63.7515 22.5823C70.9845 26.3883 75.8315 32.3953 77.7025 39.6133Z" transform="translate(3.22 3.7207)" fill="#0B0908"/>
</g>
<defs>
<clipPath id="clip0">
<rect width="86.96" height="86.96" fill="white"/>
</clipPath>
</defs>
</svg>
