<svg width="88" height="88" viewBox="0 0 88 88" fill="none" xmlns="http://www.w3.org/2000/svg">
<path d="M40.5 80.9995C17.9053 80.9995 0.106579 62.7507 0 40.4466C0.106579 17.7157 18.3316 -0.106241 40.5 0.000476764C63.0947 0.000476764 81 18.2493 81 40.5534C81 63.1776 62.775 81.1062 40.5 80.9995Z" transform="translate(3.04999 3.05005)" fill="white"/>
<path d="M87.1 41C86.8 36.2 85.8 31.6 84 27.2C81.3 20.5 77.1 14.8 71.5 10.1C66.3 5.8 60.3 2.8 53.7 1.2C51.4 0.6 49.1 0.3 46.8 0.1C46.4 0.1 46 0.1 45.6 0.1C45.5 0.1 45.4 0.1 45.3 -1.49011e-09L41.8 0.1C36.5 0.3 31.5 1.5 26.7 3.5C17.5 7.5 10.4 13.9 5.5 22.8C3.1 27.1 1.5 31.5 0.7 36.3C0.4 38.1 0.2 39.8 0.1 41.6C0.1 41.7 0.1 41.9 -1.49012e-09 42V45.3C-1.49012e-09 45.4 0.1 45.5 0.1 45.6C0.5 53.1 2.6 60 6.5 66.4C10.5 72.9 15.9 78 22.6 81.7C26.6 83.9 30.9 85.4 35.4 86.3C37.2 86.7 39.1 86.9 41 87C41.3 87 41.6 87.1 41.9 87.1H45.2C45.5 87.1 45.8 87 46.1 87C50.6 86.7 54.9 85.8 59.1 84.2C68.9 80.4 76.5 73.9 81.6 64.7C83.9 60.7 85.4 56.4 86.3 51.9C86.7 50 86.9 48.1 87 46.1C87 46 87 45.9 87.1 45.8V41.4C87.1 41.3 87.1 41.2 87.1 41ZM43.6 81.5C22.4 81.5 5.7 64.4 5.6 43.5C5.7 22.2 22.8 5.5 43.6 5.6C64.8 5.6 81.6 22.7 81.6 43.6C81.6 64.8 64.5 81.6 43.6 81.5Z" fill="#272727"/>
<path opacity="0.2" d="M62.1 37.4C61.9 37.7 61.8 38.1 61.6 38.4C61.2 39.1 61 39.8 60.8 40.5C60.7 40.8 60.7 41.1 60.6 41.5C60.5 41.5 60.3 41.5 60.2 41.5C59.7 41.5 59.2 41.6 58.8 41.7C58.1 42 57.4 42.4 56.8 42.8C56.4 43.1 56 43.5 55.8 43.9C55.2 44.9 54.7 46 54.4 47.1C54.3 47.3 54.3 47.6 54.2 47.8C54.2 47.9 54.1 48 54 48C53.5 48.2 53 48.4 52.5 48.6C51.8 48.8 51.1 49.1 50.6 49.5C50.1 49.8 49.7 50.2 49.3 50.6C48.9 51 48.5 51.4 48.3 51.9C48.2 52.2 48.1 52.5 48 52.8C47.9 53.4 47.6 53.8 47.2 54.2C47.1 54.3 47 54.4 47 54.5C46.3 55.3 45.4 55.8 44.4 56C43.2 56.2 42 56.2 40.8 56.1C40.7 56.1 40.6 56.1 40.6 56C40 55.7 39.5 55.4 38.9 55.1C38.4 54.8 37.9 54.6 37.4 54.6C37 54.6 36.6 54.7 36.2 54.7C35.5 54.7 34.8 54.9 34.1 55.2C33.3 55.5 32.7 56 32.1 56.6C31.8 56.9 31.7 57.2 31.6 57.6C31.4 58.3 31.3 59.1 31.3 59.8C31.3 60 31.3 60.1 31.3 60.3C31.2 60.3 31.1 60.2 31 60.2C29.5 59.7 28 59.5 26.4 59.7C25.9 59.7 25.6 59.9 25.2 60.2C25 60.4 24.7 60.6 24.5 60.9C24 61.5 23.6 62.2 23.3 62.9C23.2 63.1 23.1 63.1 22.9 63.2C22.4 63.2 21.9 63.2 21.4 63.3C20.9 63.3 20.3 63.4 19.8 63.5C18.8 63.7 17.8 64 16.9 64.4C16.3 64.7 15.6 64.9 14.9 64.9C14.4 64.9 13.9 65 13.5 65.2C13 65.4 12.5 65.7 12.1 66.2C12.2 66.3 12.3 66.3 12.3 66.4C13.6 67.3 15 68 16.4 68.6C18.4 69.4 20.4 70.2 22.5 70.7C25.2 71.3 28 71.7 30.7 71.7C31.9 71.7 33.1 71.6 34.3 71.6C35.8 71.5 37.4 71.3 38.9 71C41.9 70.3 44.8 69.3 47.6 68C51.8 65.9 55.6 63.2 58.8 59.8C59.3 59.3 59.8 58.8 60.3 58.2C60.9 57.5 61.5 56.7 62 55.9C63.6 53.8 64.9 51.5 65.9 49.1C66.8 46.9 67.4 44.7 67.9 42.3C68.2 40.9 68.4 39.6 68.5 38.2C68.5 37.7 68.5 37.3 68.4 36.8C68.1 36.2 67.8 36 67.4 36C67.2 36 67 36 66.9 36C66.5 36 66 35.9 65.6 35.9C65.1 35.9 64.7 36 64.2 36C63.2 36 62.6 36.6 62.1 37.4ZM23 67.5C22.4 67.5 21.8 67.4 21.2 67C21 66.9 20.7 66.7 20.6 66.5C20.3 66.1 20.3 65.6 20.8 65.2C21 65.1 21.2 65 21.4 64.9C22.4 64.6 23.3 64.8 24.2 65.3C24.4 65.4 24.6 65.6 24.7 65.8C25 66.2 24.9 66.7 24.5 67C24.2 67.3 23.7 67.4 23.3 67.4C23.3 67.5 23.2 67.5 23 67.5ZM33.3 67.5C33.6 67.9 33.7 68.4 33.4 68.8C33.2 69 33 69.2 32.8 69.4C32.3 69.7 31.7 69.8 31 69.8C30.4 69.8 29.9 69.7 29.4 69.4C29.2 69.3 29 69.1 28.8 68.9C28.5 68.6 28.6 68.2 28.8 67.8C28.9 67.5 29.2 67.3 29.4 67.2C30.5 66.6 31.6 66.5 32.8 67.1C33 67.2 33.2 67.4 33.3 67.5ZM46.6 64.2C47.1 64.4 47.2 64.8 46.9 65.3C46.8 65.4 46.8 65.5 46.7 65.6C45.8 66.5 44.7 66.8 43.5 66.6C43.4 66.6 43.2 66.5 43.1 66.4C42.7 66.2 42.6 65.8 42.8 65.4C42.9 65.2 43.1 65 43.3 64.8C44 64.3 44.7 64 45.6 64C46 64 46.3 64.1 46.6 64.2ZM39.7 63.4C39.9 63.5 40.1 63.6 40.3 63.8C40.7 64.2 40.8 64.7 40.6 65.2C40.4 65.5 40.2 65.8 39.9 66C38.8 66.8 37.5 67.1 36.1 66.7C35.8 66.6 35.6 66.5 35.3 66.3C34.7 65.9 34.6 65.2 35 64.6C35.2 64.2 35.5 64 35.9 63.7C36.6 63.3 37.4 63.1 38.3 63.1C38.7 63.1 39.2 63.2 39.7 63.4ZM30.8 62.7C31.1 62.8 31.3 63 31.5 63.1C32 63.5 32 64.1 31.5 64.6C31.1 65 30.5 65.2 30 65.4C29.5 65.5 29.1 65.5 28.6 65.6C27.9 65.6 27.3 65.5 26.7 65.2C26.4 65.1 26.1 64.9 25.9 64.7C25.5 64.3 25.5 63.8 25.9 63.3C26.1 63.1 26.4 62.9 26.6 62.8C28 62.1 29.4 62.1 30.8 62.7ZM53.3 58.9C53.8 59.1 54 59.5 53.8 59.9C53.7 60.1 53.6 60.3 53.5 60.5C52.7 61.5 51.6 62 50.2 62.1C50 62.1 49.8 62 49.6 62C49.1 61.8 48.8 61.4 49.1 60.8C49.2 60.5 49.4 60.3 49.6 60C50.4 59.2 51.3 58.8 52.4 58.6C52.7 58.8 53 58.8 53.3 58.9ZM46.8 58.4C47.6 58.8 47.8 59.5 47.4 60.2C47.2 60.6 47 60.9 46.7 61.1C45.8 61.8 44.8 62.2 43.7 62.1C43.3 62.1 42.9 62 42.5 61.8C41.9 61.4 41.6 60.8 41.9 60.1C42.1 59.7 42.3 59.4 42.6 59.1C43.4 58.4 44.5 58 45.5 58C46 58.1 46.4 58.2 46.8 58.4ZM38 57C38.4 57.1 38.7 57.3 39 57.5C39.6 58 39.8 58.8 39.4 59.5C39.2 59.9 38.9 60.2 38.5 60.4C37.6 61.1 36.5 61.3 35.4 61.3C34.8 61.3 34.2 61.2 33.7 61C33.4 60.9 33.1 60.7 32.9 60.5C32.4 60 32.4 59.5 32.6 58.9C32.8 58.5 33 58.2 33.4 57.9C34.2 57.3 35.1 57 36 56.8C36.7 56.8 37.3 56.9 38 57ZM59 52.7C59.6 52.8 59.8 53.1 59.8 53.7C59.8 53.9 59.7 54.1 59.7 54.3C59.2 55.5 58.2 56.3 56.9 56.7C56.7 56.8 56.4 56.7 56.2 56.7C55.8 56.6 55.5 56.3 55.5 55.9C55.5 55.7 55.5 55.4 55.6 55.2C56.2 53.9 57.1 53.1 58.5 52.8C58.7 52.6 58.8 52.6 59 52.7ZM53.9 51.6C54.5 51.7 54.8 52.2 54.8 52.8C54.8 53 54.8 53.3 54.7 53.5C54.3 54.9 52.6 56.2 51.2 56.3C51.1 56.3 51.1 56.3 51 56.3C50.9 56.3 50.8 56.3 50.8 56.3C50 56.2 49.5 55.6 49.6 54.7C49.7 54.4 49.7 54.1 49.9 53.9C50.6 52.7 51.6 51.9 53 51.6C53.2 51.5 53.6 51.5 53.9 51.6ZM64.3 46.6C64.3 46.7 64.3 46.8 64.3 47C64.3 47.2 64.2 47.4 64.2 47.6C63.9 48.5 63.5 49.3 62.8 49.9C62.6 50.1 62.3 50.3 62.1 50.4C61.7 50.6 61.4 50.4 61.3 50C61.2 49.7 61.3 49.4 61.3 49.1C61.5 48.1 62 47.2 62.8 46.5C63 46.3 63.2 46.2 63.5 46C63.9 45.9 64.2 46.1 64.3 46.6ZM61.1 45.5C61.2 46 61.1 46.4 60.9 46.8C60.5 47.8 59.9 48.6 58.9 49.1C58.5 49.3 58.2 49.5 57.7 49.5C56.9 49.5 56.4 49 56.3 48.2C56.3 48.1 56.3 48 56.3 48C56.3 47.5 56.4 47.1 56.6 46.7C57 45.9 57.6 45.2 58.4 44.7C58.7 44.5 59.1 44.4 59.5 44.3C60.4 44.2 61.1 44.7 61.1 45.5ZM65.7 38.8C65.8 39.1 65.9 39.4 65.9 39.8C65.9 40.9 65.5 41.8 64.7 42.5C64.4 42.8 64.1 43 63.7 43.1C63.2 43.2 62.8 43 62.6 42.6C62.4 42.3 62.3 41.9 62.3 41.5C62.4 40.4 62.8 39.5 63.5 38.7C63.7 38.5 64 38.3 64.3 38.2C64.9 38 65.4 38.2 65.7 38.8ZM39.4 29.6C39.9 28.9 40.6 28.5 41.5 28.4C42.1 28.4 42.8 28.4 43.4 28.7C44 29 44.6 29.2 45.2 29.5C45.4 29.6 45.7 29.5 45.8 29.4C45.9 29.2 45.9 29.1 45.8 28.9C45.8 28.8 45.7 28.7 45.7 28.6C45.5 28.2 45.2 27.9 45 27.6C44.4 26.8 43.5 26.3 42.5 26C41.5 25.8 40.5 25.9 39.6 26.4C38.9 26.8 38.4 27.3 37.9 27.8C37.8 27.9 37.7 28 37.7 28.1C37.1 29 36.9 30 37.1 31C37.2 31.7 37.6 32.2 38.3 32.6C38.4 32.1 38.5 31.7 38.7 31.2C38.8 30.7 39.1 30.1 39.4 29.6ZM30.1 53.9C30.3 54 30.6 54 30.7 53.9C30.9 53.7 30.8 53.5 30.7 53.3C30 51.9 29 50.9 27.4 50.5C26.4 50.3 25.5 50.4 24.5 50.8C24 51.1 23.5 51.5 23.1 51.9C22.6 52.3 22.4 52.8 22.2 53.4C22.1 53.8 22 54.3 22 54.7C22 55.7 22.3 56.5 23.3 57C23.4 56.8 23.4 56.6 23.5 56.4C23.7 55.7 23.8 55.1 24.2 54.5C25 53 26.5 52.6 28 53.1C28.8 53.3 29.5 53.6 30.1 53.9ZM30.1 39.8C30.2 39.4 30.3 39 30.4 38.7C30.5 38.2 30.7 37.7 31 37.2C31.8 35.8 33.2 35.4 34.7 35.9C35.3 36.1 35.9 36.4 36.5 36.7C36.7 36.8 36.8 36.8 37 36.9C37.3 37 37.6 36.8 37.5 36.4C37.5 36.3 37.4 36.1 37.4 36C37.1 35.6 36.9 35.2 36.6 34.8C36 34 35.2 33.6 34.3 33.3C33.2 33 32.1 33.1 31.1 33.7C30.5 34.1 30 34.5 29.5 35C29.4 35.1 29.4 35.2 29.3 35.3C28.8 36.2 28.6 37.2 28.8 38.2C29 39 29.5 39.5 30.1 39.8ZM54.2 43.2C54.5 43.3 54.8 43.5 55.1 43.6C55.3 43.7 55.5 43.7 55.7 43.5C55.9 43.4 55.8 43.2 55.8 43C55.8 42.9 55.8 42.9 55.7 42.8C55.5 42.5 55.4 42.3 55.2 42C54.5 41 53.7 40.4 52.5 40.1C51.4 39.8 50.3 40 49.3 40.6C48.8 40.9 48.3 41.3 47.9 41.7C47.7 41.9 47.6 42.1 47.5 42.3C47.1 43 47 43.8 47 44.6C47.1 45.5 47.4 46.2 48.3 46.6C48.3 46.5 48.4 46.5 48.4 46.4C48.5 46.1 48.6 45.7 48.7 45.4C48.9 44.9 49 44.4 49.2 44C50 42.5 51.6 42.2 53 42.6C53.4 42.8 53.8 43 54.2 43.2ZM39.6 46.5C38.8 45 37.8 44 36.1 43.7C35.4 43.6 34.7 43.6 34.1 43.8C33.3 44.1 32.7 44.6 32.1 45.1C31.6 45.5 31.3 46.1 31.2 46.7C31.1 47.1 31 47.5 31 47.9C31 48.9 31.3 49.7 32.3 50.2C32.4 49.7 32.5 49.3 32.7 48.9C32.9 48.4 33 48 33.3 47.5C33.8 46.5 34.7 46 35.8 46C36.4 46 36.9 46.1 37.4 46.3C38 46.6 38.5 46.8 39.1 47.1C39.3 47.2 39.5 47.2 39.7 47.1C39.8 47 39.7 46.7 39.6 46.5ZM47 50.3C47.3 50.4 47.7 50.6 48 50.7C48.2 50.8 48.4 50.8 48.5 50.6C48.7 50.5 48.6 50.3 48.6 50.1C48.6 50.1 48.6 50.1 48.6 50C47.9 48.6 46.9 47.5 45.3 47.2C44.3 47 43.3 47.1 42.4 47.6C41.8 47.9 41.4 48.3 40.9 48.7C40.6 49 40.4 49.3 40.2 49.7C40 50.2 39.9 50.8 39.9 51.4C39.9 52.4 40.2 53.2 41.2 53.7C41.3 53.2 41.4 52.8 41.6 52.4C41.7 51.9 41.9 51.4 42.2 51C43 49.6 44.5 49.4 45.8 49.8C46.1 49.9 46.5 50.1 47 50.3ZM47.2 39.8C47.2 39.7 47.1 39.5 47.1 39.4C46.8 39 46.5 38.5 46.2 38.1C45.5 37.3 44.6 36.8 43.6 36.6C42.6 36.4 41.7 36.6 40.9 37C40.4 37.3 40 37.7 39.6 38C39.1 38.4 38.9 38.9 38.7 39.5C38.6 40 38.5 40.5 38.5 41C38.5 41.9 38.9 42.7 39.8 43.1C39.9 42.7 40 42.3 40.1 41.8C40.2 41.3 40.4 40.8 40.7 40.4C41 39.9 41.4 39.4 42 39.2C42.8 38.9 43.6 38.8 44.4 39.2C45 39.4 45.5 39.7 46.1 39.9C46.3 40 46.4 40.1 46.6 40.1C46.9 40.3 47.2 40.1 47.2 39.8ZM52.8 32.1C53.2 32.3 53.6 32.4 54 32.6C54.2 32.7 54.4 32.7 54.5 32.5C54.6 32.4 54.6 32.2 54.6 32V31.9C53.9 30.5 52.9 29.4 51.3 29.1C50.2 28.9 49.2 29 48.3 29.5C47.8 29.8 47.3 30.2 46.9 30.6C46.6 30.8 46.5 31.1 46.3 31.4C46 32.1 45.8 32.9 45.9 33.7C46 34.2 46.1 34.6 46.5 35C46.7 35.2 46.9 35.3 47.2 35.2C47.3 34.9 47.3 34.7 47.4 34.4C47.5 33.9 47.7 33.4 48 32.9C48.8 31.5 50.2 31.1 51.6 31.5C52.1 31.7 52.5 31.9 52.8 32.1ZM45.6 25.1C45.8 24.5 45.9 24 46.2 23.4C46.9 22 48.3 21.7 49.7 22.1C50.3 22.3 50.9 22.6 51.5 22.9C51.6 22.9 51.7 23 51.7 23C51.8 23 52 23 52.1 22.9C52.2 22.8 52.2 22.7 52.2 22.5C52.2 22.4 52.1 22.3 52.1 22.2C51.7 21.5 51.3 21 50.7 20.5C49.7 19.8 48.6 19.5 47.3 19.8C46.5 20 46 20.5 45.4 21C44.9 21.4 44.6 22 44.5 22.6C44.4 22.9 44.4 23.3 44.4 23.6C44.4 24.2 44.5 24.7 45 25.2C45.2 25.4 45.4 25.5 45.7 25.4C45.6 25.3 45.6 25.2 45.6 25.1ZM55.2 35.1C55 35.3 54.8 35.6 54.6 35.8C53.9 36.8 53.9 37.8 54.3 38.9C54.5 39.4 54.9 39.7 55.5 39.9C55.5 39.6 55.5 39.4 55.5 39.1C55.5 38.6 55.6 38.1 55.8 37.6C56.2 36.4 57.4 35.9 58.5 36C59.1 36.1 59.7 36.2 60.3 36.4C60.5 36.5 60.7 36.4 60.8 36.2C60.9 36 60.8 35.9 60.7 35.7C60 34.9 59.2 34.2 58.1 34C57.1 33.9 56.1 34.2 55.2 35.1ZM14.7 52.9C14.8 52.7 14.8 52.5 14.9 52.3C15.1 51.8 15.2 51.4 15.4 50.9C16 49.6 17.3 49.3 18.5 49.7C19 49.9 19.5 50.1 20 50.3C20.2 50.4 20.4 50.5 20.6 50.3C20.8 50.1 20.7 49.9 20.6 49.7C20.3 49.1 19.9 48.7 19.5 48.3C18.7 47.6 17.1 47.1 15.7 48C15.3 48.3 14.9 48.6 14.6 48.9C14.4 49.1 14.3 49.3 14.1 49.6C13.9 50.1 13.8 50.6 13.8 51.1C13.7 51.8 13.9 52.5 14.7 52.9ZM17 60.6C17.2 60.3 17.4 60 17.6 59.7C17.9 59.2 18.3 58.7 18.8 58.4C19.7 57.9 20.6 57.8 21.5 58.3C22 58.5 22.4 58.8 22.8 59.1C22.9 59.2 23.1 59.2 23.2 59.1C23.3 59 23.4 58.9 23.3 58.7C23.1 57.9 22.8 57.2 22.1 56.7C21.3 56.1 20.4 56 19.4 56.3C18.8 56.4 18.3 56.7 17.9 57C17.1 57.5 16.6 58.2 16.4 59.1C16.4 59.7 16.5 60.2 17 60.6ZM27.9 43.9C28.1 44 28.3 44 28.4 43.9C28.5 43.7 28.5 43.6 28.3 43.4C28.1 43.1 27.9 42.8 27.7 42.6C26.9 41.7 25.9 41.4 24.7 41.5C23.9 41.6 23.3 42 22.7 42.4C22.1 42.9 21.8 43.5 21.7 44.3C21.6 45 21.8 45.8 22.7 46.2C22.8 45.9 22.8 45.7 22.9 45.4C23 45.1 23.1 44.7 23.3 44.4C23.5 44 23.9 43.6 24.3 43.4C24.9 43.1 25.6 43.1 26.2 43.3C26.9 43.5 27.4 43.7 27.9 43.9ZM42 13.9C42.1 14.5 42.4 14.9 43 15.2C43 15 43.1 14.8 43.1 14.7C43.2 14.4 43.3 14 43.5 13.7C43.7 13.2 44.1 12.9 44.7 12.9C45.3 12.8 45.9 12.8 46.5 13C47 13.2 47.5 13.4 48.1 13.6C48.4 13.7 48.5 13.7 48.6 13.6C48.7 13.4 48.6 13.2 48.5 13.1C47.9 12.2 47 11.5 45.9 11.3C44.8 10.9 43.8 11.1 42.8 11.8C42.1 12.4 41.9 13.1 42 13.9ZM60.3 28.7C60 29.1 59.7 29.6 59.6 30.2C59.3 31.1 59.5 32 60 32.8C60.3 33.2 60.6 33.4 61.2 33.4C61.2 33.3 61.2 33.2 61.2 33.2C61.1 32.6 61 32 61 31.3C61.1 30.7 61.3 30.1 61.8 29.7C62.2 29.4 62.7 29.2 63.2 29.1C63.6 29.1 64 29.1 64.4 29C64.6 29 64.7 28.9 64.7 28.8C64.7 28.7 64.6 28.6 64.6 28.5C64.6 28.4 64.5 28.4 64.4 28.3C64.1 28.1 63.8 27.9 63.4 27.8C62.3 27.3 60.9 27.8 60.3 28.7ZM7.7 46C8.3 45.2 9.3 45.1 9.9 45.4C10.3 45.6 10.7 45.8 11.2 45.9C11.3 45.9 11.4 46 11.4 46C11.7 46 11.7 45.8 11.6 45.5C11.4 45 11.1 44.5 10.6 44.2C9.9 43.6 9.1 43.4 8.3 43.7C6.9 44.2 5.9 45.3 6 47C6 47.5 6.3 48 6.8 48.3C6.9 48 7 47.6 7.1 47.3C7.2 46.8 7.4 46.4 7.7 46ZM57.3 25.5C57.7 25.6 58.1 25.8 58.4 26C58.6 26.1 58.7 26.1 58.9 26C59.1 25.9 59 25.7 58.9 25.6C58.7 25.3 58.5 24.9 58.3 24.6C57.6 23.7 56.4 23.5 55.4 24.1C55.1 24.3 54.8 24.6 54.5 24.8C53.8 25.5 53.6 26.4 53.7 27.3C53.7 27.6 53.8 27.9 54.1 28.1C54.3 28.1 54.4 28 54.6 28C54.7 27.8 54.7 27.6 54.8 27.4C55 26.9 55.2 26.5 55.5 26.1C55.8 25.4 56.5 25.2 57.3 25.5ZM51.6 15.6C51.1 16 50.9 16.5 50.8 17C50.7 17.7 50.9 18.3 51.6 18.7C51.6 18.5 51.7 18.4 51.7 18.3C51.8 17.9 51.9 17.5 52.1 17.2C52.3 16.8 52.6 16.5 53.1 16.4C53.6 16.3 54.1 16.3 54.5 16.5C54.9 16.6 55.2 16.8 55.6 17C55.7 17 55.8 17.1 55.8 17.1C56.1 17.2 56.2 17 56.1 16.7C56.1 16.6 56 16.6 56 16.5C55.7 16.1 55.4 15.7 55 15.4C54.4 14.9 53.7 14.7 52.9 14.8C52.5 14.9 52 15.2 51.6 15.6ZM38.7 18.3C39.4 18 40.2 18 40.9 18.1C41.3 18.2 41.8 18.3 42.2 18.4C42.3 18.4 42.5 18.5 42.6 18.3C42.7 18.2 42.6 18 42.5 17.9C42.3 17.7 42.1 17.5 41.9 17.4C41.4 17.1 40.9 17 40.3 16.9C39.1 16.8 38.1 17.2 37.1 17.8C36.7 18 36.5 18.3 36.3 18.7C36.1 19.2 36.3 19.6 36.9 19.8C37 19.7 37.1 19.6 37.2 19.4C37.6 19 38.1 18.6 38.7 18.3ZM13.1 40.5C13.3 40.7 13.4 40.7 13.6 40.5C13.9 40.2 14.2 39.9 14.5 39.6C15.5 38.9 16.6 38.7 17.7 38.8C18 38.8 18.3 38.9 18.5 38.9C18.7 38.9 18.8 38.9 18.9 38.8C19 38.7 18.9 38.5 18.8 38.4C18.6 38.1 18.3 37.9 17.9 37.8C17.6 37.7 17.4 37.7 17.2 37.7C15.8 37.7 14.7 38.2 13.7 38.9C13.3 39.1 13.1 39.5 12.9 39.9C13 40.1 13 40.3 13.1 40.5ZM59.1 19.3C58.2 20.1 57.8 21.3 58.2 22.5C58.3 22.7 58.4 22.9 58.6 23.1C58.7 23 58.8 23 58.9 22.9C58.9 22.7 58.9 22.6 58.9 22.5C58.9 22.1 59 21.6 59.2 21.2C59.5 20.5 60.1 20.2 60.8 20.4C61 20.4 61.2 20.5 61.4 20.5C61.5 20.5 61.7 20.5 61.8 20.4C61.9 20.3 61.8 20.1 61.7 20C61.5 19.7 61.3 19.5 61 19.2C60.5 18.8 59.7 18.8 59.1 19.3ZM11.2 53.9C11.4 54 11.7 54.2 11.9 54.3C12 54.4 12.2 54.5 12.3 54.4C12.5 54.3 12.4 54.1 12.3 53.9C12 53 11.3 52.6 10.4 52.5C9.7 52.4 9 52.6 8.4 52.9C7.9 53.2 7.6 53.6 7.5 54.1C7.4 54.5 7.5 54.8 7.9 55.1C8 54.9 8.2 54.7 8.3 54.5C9.1 53.6 10.2 53.4 11.2 53.9ZM0.9 43.1C1 42.7 1 42.4 1.2 42C1.5 41.5 2.1 41.2 2.7 41.3C3 41.4 3.3 41.5 3.6 41.5C3.7 41.5 3.8 41.5 3.9 41.4C4 41.3 4 41.2 3.9 41.1C3.7 40.9 3.6 40.6 3.4 40.4C2.7 39.7 1.7 39.7 1 40.4C0.8 40.6 0.6 40.8 0.4 41.1C3.8743e-07 41.7 -0.0999998 42.3 0.1 43C0.2 43.2 0.3 43.5 0.5 43.6C0.6 43.6 0.7 43.5 0.8 43.5C0.9 43.4 0.9 43.3 0.9 43.1ZM39.7 9.3C39.9 9.4 40 9.4 40.1 9.5C40.2 9.6 40.4 9.6 40.5 9.5C40.6 9.4 40.6 9.3 40.6 9.2C40.5 8.8 40.3 8.4 39.9 8.2C39.5 8 39.1 7.9 38.7 7.9C37.8 7.9 37 8.1 36.3 8.4C35.9 8.6 35.5 8.9 35.3 9.2C35.1 9.5 35 9.9 35.4 10.1C35.7 9.9 36 9.6 36.4 9.4C37.4 8.8 38.5 8.7 39.7 9.3ZM65.8 30.7C65.7 30.9 65.6 31.1 65.5 31.3C65.1 32.4 65.2 33.5 65.4 34.6C65.4 34.7 65.5 34.9 65.6 35C65.7 35 65.8 35 66 34.9C66 34.5 66 34.1 66 33.7C66 33.3 66.1 32.8 66.3 32.4C66.5 32.1 66.7 32 67 32.3C67.1 32.4 67.3 32.6 67.4 32.7C67.5 32.8 67.6 32.9 67.7 33C67.8 33 67.9 33.1 67.9 33.1C68 33.1 68 33 68 32.9V32.8C67.8 32.3 67.7 31.7 67.4 31.2C67.3 31 67.1 30.8 66.9 30.6C66.3 30.4 66 30.4 65.8 30.7ZM62.9 24.1C62.6 25.1 62.9 25.9 63.5 26.7C63.6 26.8 63.7 26.9 63.8 27C63.9 26.9 64 26.8 64.1 26.8C64.1 26.6 64 26.5 64 26.3C63.9 26 63.8 25.6 63.8 25.2C63.8 24.5 64.2 24.2 64.9 24.3C65.1 24.3 65.3 24.4 65.6 24.4C65.7 24.4 65.8 24.4 65.9 24.3C66 24.2 65.9 24.1 65.8 24C65.5 23.7 65.2 23.4 64.8 23.2C63.9 22.8 63.1 23.2 62.9 24.1ZM41.5 5.6C42.1 5.3 42.8 5.3 43.5 5.3C43.9 5.3 44.3 5.4 44.7 5.5C44.8 5.5 44.8 5.5 44.9 5.5C45.1 5.5 45.1 5.4 45.1 5.2C45.1 5.1 45 5.1 44.9 5C44.6 4.7 44.3 4.6 43.9 4.5C42.7 4.2 41.5 4.4 40.5 5.1C40.2 5.3 40 5.5 39.9 5.9C39.8 6.2 40 6.4 40.3 6.6C40.4 6.6 40.5 6.7 40.6 6.7C40.6 6.2 41 5.9 41.5 5.6ZM34.9 2.8C35.3 2.7 35.7 2.7 36 2.8C36.6 2.8 37.2 3.1 37.8 3.3C37.9 3.3 38 3.4 38.1 3.4C38.3 3.4 38.4 3.3 38.3 3.1C38.3 3 38.2 2.9 38.1 2.9C37.8 2.6 37.5 2.4 37.1 2.2C36 1.8 34.9 1.8 33.7 2.3C33.5 2.4 33.3 2.6 33.1 2.8C32.8 3.2 32.9 3.6 33.4 3.9C33.5 3.8 33.6 3.7 33.6 3.6C34 3.1 34.4 2.9 34.9 2.8ZM48.1 7.9C47.9 8 47.8 8.2 47.7 8.5C47.7 9 47.8 9.4 48.2 9.7C48.4 9.8 48.6 10 48.7 10.1C48.7 10 48.6 9.9 48.6 9.8C48.4 9.3 48.7 8.8 49.2 8.7C49.4 8.7 49.6 8.7 49.9 8.8C50.5 8.9 50.9 9.2 51.4 9.4C51.5 9.4 51.6 9.5 51.7 9.5C51.8 9.5 51.9 9.5 51.9 9.5V9.3C51.9 9.3 51.9 9.2 51.8 9.2C51.2 8.5 50.5 8 49.6 7.8C49.2 7.6 48.6 7.6 48.1 7.9ZM16.6 61.9C16.6 61.8 16.5 61.7 16.5 61.7C16.3 61.4 16.1 61.1 15.7 60.9C14.7 60.3 13.6 60.2 12.4 60.5C12.1 60.6 11.9 60.7 11.7 61C11.4 61.3 11.5 61.7 11.8 61.9C11.8 61.9 11.8 61.9 11.9 61.9C11.9 61.9 12 61.9 12 61.8C12.7 61.2 13.6 61.1 14.5 61.3C15 61.4 15.5 61.7 15.9 62C16 62.1 16.1 62.1 16.2 62.2C16.5 62.3 16.6 62.1 16.6 61.9ZM3.9 49.9C4.4 50 4.8 50.2 5.3 50.4C5.4 50.5 5.5 50.5 5.6 50.6C5.7 50.7 5.9 50.6 5.9 50.4C5.9 50.3 5.9 50.3 5.9 50.2C5.7 49.8 5.5 49.4 5.1 49.2C4.1 48.6 3.2 48.7 2.2 49.3C1.9 49.5 1.7 49.8 1.6 50.1C1.5 50.5 1.6 50.8 1.9 51C2 50.9 2.1 50.7 2.2 50.6C2.6 50 3.1 49.8 3.9 49.9ZM55.8 11.7C55.6 12 55.5 12.3 55.5 12.7C55.5 13.2 55.6 13.7 55.8 14.1C55.9 14.4 56.1 14.6 56.4 14.8C56.4 14.6 56.4 14.4 56.3 14.1C56.3 13.7 56.2 13.3 56.3 12.9C56.4 12.6 56.5 12.5 56.8 12.6C57 12.7 57.2 12.8 57.4 12.9C57.7 13.1 57.9 13.2 58.1 13.4C58.3 13.3 58.3 13.2 58.2 13.1C57.9 12.6 57.7 12.2 57.3 11.8C57.1 11.6 56.9 11.5 56.7 11.4C56.4 11.2 56 11.3 55.8 11.7ZM61.5 16.5C61.2 17.3 61.4 18.1 61.7 18.9C61.7 19 61.8 19 61.8 19.1C61.8 19.1 61.9 19.1 61.9 19.2C62 19.2 62 19.1 62.1 19.1C62.1 18.7 62 18.3 62 17.9C62 17.7 62 17.5 62.1 17.3C62.2 17 62.4 17 62.7 17.1C62.9 17.2 63.1 17.3 63.3 17.4C63.5 17.3 63.5 17.2 63.4 17.1C63.2 16.8 63.1 16.5 62.8 16.3C62.4 15.7 61.7 15.6 61.5 16.5ZM46.5 3.5C46.9 3.4 47.3 3.4 47.7 3.5C47.9 3.5 48.1 3.6 48.3 3.6C48.4 3.6 48.5 3.6 48.5 3.5C48.4 3.2 48.1 3 47.7 2.9C46.9 2.7 46.1 2.8 45.3 3.2C45.2 3.3 45 3.4 45 3.5C44.8 3.8 44.9 4.1 45.3 4.2L45.4 4.1C45.7 3.8 46.1 3.6 46.5 3.5ZM39.7 0.6C40.1 0.6 40.5 0.7 41 0.7C41.1 0.7 41.3 0.8 41.4 0.6C41.3 0.5 41.3 0.4 41.2 0.4C41 0.3 40.8 0.1 40.5 0.1C39.7 -0.0999996 38.9 -3.8743e-07 38.2 0.4C38.1 0.5 37.9 0.6 37.8 0.8C37.6 1.1 37.8 1.4 38.2 1.4C38.5 0.8 39.1 0.6 39.7 0.6ZM53.2 8.2C53.1 7.7 52.7 7.3 52.8 6.7C53 6.6 53.2 6.7 53.3 6.7C53.5 6.8 53.7 6.9 54 7C54.1 7 54.1 7 54.2 7C54.2 6.9 54.2 6.8 54.2 6.8C53.8 6.4 53.4 6 52.9 5.8C52.7 5.7 52.4 5.6 52.2 5.8C52 6 52 6.2 52.1 6.5C52.1 6.6 52.1 6.7 52.2 6.7C52.4 7 52.6 7.3 52.8 7.6C52.8 8 53 8.1 53.2 8.2Z" transform="translate(12.3 9.09998)" fill="#272727"/>
</svg>
