<svg width="87" height="87" viewBox="0 0 87 87" fill="none" xmlns="http://www.w3.org/2000/svg">
<path d="M43.5 87C67.5244 87 87 67.5244 87 43.5C87 19.4756 67.5244 0 43.5 0C19.4756 0 0 19.4756 0 43.5C0 67.5244 19.4756 87 43.5 87Z" fill="#050303"/>
<path d="M38.5 77C59.763 77 77 59.763 77 38.5C77 17.237 59.763 0 38.5 0C17.237 0 0 17.237 0 38.5C0 59.763 17.237 77 38.5 77Z" transform="translate(5 5)" fill="#D6D6D6"/>
<path d="M4.47828 20.5188C-4.92172 38.2188 0.978283 60.0188 17.4783 70.7188C32.4783 68.7188 46.2783 59.8188 53.8783 45.4188C60.8783 32.1188 61.1783 17.0188 55.7783 4.11882C37.1783 -5.28118 14.2783 1.91882 4.47828 20.5188Z" transform="translate(5.02173 4.9812)" fill="white"/>
<path d="M-1.90735e-07 38.8C-1.90735e-07 60.2 17.4 77.6 38.8 77.6C60.2 77.6 77.6 60.2 77.6 38.8C77.6 17.4 60.2 -1.90735e-07 38.8 -1.90735e-07C17.4 -1.90735e-07 -1.90735e-07 17.4 -1.90735e-07 38.8ZM3.5 28.8C6 20 11.7 12.5 19.3 7.7C19.3 7.7 19.3 7.7 23.5 12.6C23.5 12.6 21.6 15.9 20.5 18.4C19.5 20.8 18.6 24.2 18.6 24.2C12.8 27.1 9 30.8 7.4 32.4C6 30.3 3.5 28.8 3.5 28.8ZM8.7 34.3C9.7 33.2 13.5 29.2 19.5 26.2C23.2 29.3 29.9 32.6 29.9 32.6L30.7 48.5L21.2 56.2C16 54.2 10.8 50.2 9.5 49.1C9.4 49 8 42.3 8.7 34.3ZM21.2 6.6C26.4 3.7 32.4 2.1 38.7 2.1C41.2 2.1 43.5 2.3 45.9 2.8L47.5 4.9C45.4 5.6 41.7 7.5 39.2 9.9C39.2 9.9 31.9 9.6 25.3 11.4L21.2 6.6ZM62.7 63.9C56.9 68.5 51.1 70.9 51.1 70.9C49.9 70.6 46.6 69.5 43.9 67.4C43.9 67.4 45.7 63 46.5 57.4C48.5 56.6 55.8 53.3 60.3 47.4C62.7 48.9 67.5 50.4 67.5 50.4C67.1 55.7 63.5 62.6 62.7 63.9ZM49.2 6.6C49.2 6.6 56.7 10 61.2 12.9C65.1 18.3 66.1 24.3 66.4 26.2C66.4 26.2 62.6 27.6 59.4 30C53.4 25.5 46.6 23.4 44.6 22.8C44.6 22.8 43.7 16.3 41 11.1C43.6 8.9 47.9 7 49.2 6.6ZM32.8 48.3L32 32.5C39.7 28.6 43.9 24.9 43.9 24.9C45.7 25.4 52.5 27.5 58.2 31.8C59 38.3 58.8 45.6 58.8 45.6C54.7 51.3 47.5 54.5 45.6 55.3L32.8 48.3ZM64.5 12.6C71.1 19 75.2 27.9 75.5 37.8C75.2 37.9 75 38 74.8 38C74.8 38 73.5 34.5 72.7 33C71 29.8 68.7 26.6 68.7 26.6C68.6 25.3 67.8 19 63.8 12.8L64.5 12.6ZM75.4 40C75.1 49.4 71.2 58 65 64.3H64.9C66.2 61.9 69.5 55.3 69.6 49.9C72.9 45.4 75 40.2 75 40.2C75.1 40.1 75.3 40.1 75.4 40ZM50.2 73.6C46.6 74.8 42.8 75.4 38.8 75.4C34.2 75.4 29.9 74.6 25.8 73C26.8 71.8 28 70.5 29.1 69.5C29.1 69.5 36.4 70.1 42.4 68.8C45.2 71.1 48.7 72.3 50.2 72.8V73.6ZM23.7 72.2C15.8 68.6 9.3 62.3 5.6 54.3C5.6 54.3 6.9 52.4 8.5 51C10.4 52.5 15.4 56.3 20.6 58.2C20.6 58.2 23.2 64.1 27.2 68.3C26 69.6 24.8 71 23.7 72.2Z" transform="translate(4.70001 4.69995)" fill="black"/>
</svg>
