<svg width="87" height="87" viewBox="0 0 87 87" fill="none" xmlns="http://www.w3.org/2000/svg">
<g clip-path="url(#clip0)">
<mask id="mask0" mask-type="alpha" maskUnits="userSpaceOnUse" x="0" y="0" width="87" height="87">
<path d="M0 0H86.9599V86.959H0V0Z" fill="white"/>
</mask>
<g mask="url(#mask0)">
<path fill-rule="evenodd" clip-rule="evenodd" d="M86.96 43.479C86.96 67.493 67.493 86.959 43.48 86.959C19.466 86.959 0 67.493 0 43.479C0 19.466 19.466 0 43.48 0C67.493 0 86.96 19.466 86.96 43.479Z" fill="#050303"/>
</g>
<path fill-rule="evenodd" clip-rule="evenodd" d="M8.81011 0.646055C8.89111 0.595055 8.97711 0.584055 9.06811 0.613055C11.7231 -0.346945 14.2081 -0.357945 16.3031 1.88406C16.6081 2.21006 16.9981 2.31206 17.4351 2.16706C19.7151 1.41406 21.5691 2.40706 23.3291 3.65606C24.0961 4.20006 24.8631 4.68706 25.7761 4.93306C26.2801 5.06906 26.7831 5.27606 27.1061 5.68606C28.3631 7.28306 30.1991 7.68206 32.0201 8.00206C34.4991 8.43906 36.4931 9.79106 38.4621 11.1881C39.1261 11.6591 39.6711 12.2901 40.4441 12.6291C40.9291 12.8421 41.3161 13.2411 41.4901 13.7301C42.3761 16.2171 43.2531 18.7171 41.7851 21.3041C41.6091 21.6141 41.3661 21.9481 41.4901 22.3161C42.0391 23.9471 41.1751 25.1111 40.1791 26.1791C38.7781 27.6801 37.5471 29.3701 35.7151 30.4171C35.0961 30.7881 34.4891 31.1671 34.0061 31.7241C32.4271 33.5441 30.4101 34.3341 28.0181 34.2291C27.2951 34.1981 26.7071 34.4811 26.3051 35.0911C25.2411 36.7051 23.3101 37.4431 22.2791 39.1011C22.0561 39.4601 21.5651 39.4941 21.1421 39.4431C20.5991 39.3761 20.1841 39.4761 19.7791 39.9301C19.0651 40.7321 18.5571 40.4241 18.2561 39.4991C17.5941 37.4591 16.2911 36.5251 14.2241 36.5881C14.0701 36.5931 13.8751 36.6621 13.7671 36.5841C12.0951 35.3951 9.94011 35.9001 8.18411 34.9621C6.92711 34.2921 6.64311 33.7391 7.41111 32.5411C8.01811 31.5911 8.05611 31.0721 6.84411 30.5901C5.23411 29.9501 5.20011 29.6141 6.02411 28.0821C6.42111 27.3441 5.76711 26.5521 4.67611 26.6641C3.75911 26.7581 3.07511 26.4361 2.38611 25.9601C1.06211 25.0451 0.881109 24.5521 1.65211 23.1601C2.00411 22.5241 1.80911 22.3041 1.33111 21.9261C-0.509892 20.4721 -0.445891 19.3571 1.55211 18.2781C2.11011 17.9761 2.14811 17.6621 1.95311 17.1661C1.69811 16.5131 1.79211 15.9711 2.42211 15.5531C3.21811 15.0241 3.12511 13.8671 4.00911 13.3341C4.43711 13.0751 4.00811 12.8671 3.69811 12.7891C1.40211 12.2121 1.35211 12.0651 1.95711 9.81706C2.24011 8.76506 2.45711 7.79606 3.38611 7.01906C4.38811 6.17806 2.91711 5.66206 2.86311 4.91606C2.82211 3.97306 3.44211 3.47806 4.13511 3.03306L4.12911 3.03706C4.45511 2.74106 4.87611 2.57306 5.18611 2.25506C6.12011 1.82806 7.05311 1.40106 7.98711 0.974056C8.28811 0.930056 8.52511 0.728055 8.81011 0.646055Z" transform="translate(25.9786 6.73303)" fill="#D9EF17"/>
<path fill-rule="evenodd" clip-rule="evenodd" d="M7.54106 41.225L7.22206 40.988C6.54606 40.262 5.78006 39.619 5.20306 38.801L5.14106 38.727C4.99506 38.419 4.63506 38.284 4.51406 37.954L4.43206 37.858C4.26506 37.66 4.10106 37.457 3.92706 37.264C3.83906 37.112 3.75106 36.96 3.66406 36.808C3.47006 36.357 2.98806 36.12 2.80806 35.657L2.73206 35.562C2.47506 35.254 2.26406 34.918 2.10506 34.55L2.04806 34.428C-0.332941 29.802 -0.269941 24.853 0.407059 19.921C0.834059 16.814 1.53406 13.7 2.61806 10.744C3.42606 8.542 4.63306 6.488 5.08306 4.147C5.13106 3.8 5.25106 3.48 5.43806 3.186C6.04106 2.606 6.33906 1.835 6.67806 1.101C6.92606 0.561999 7.20606 0.114 7.83306 0C9.13206 0.507 9.44906 1.199 8.65806 2.293C7.88706 3.36 7.37606 4.399 7.77606 5.729C7.85206 5.98 7.82006 6.291 7.63206 6.465C6.08606 7.888 6.98706 9.473 7.66206 10.715C8.35706 11.996 9.39006 13.206 11.2101 13.338C13.1481 13.479 13.3811 14 12.9351 15.865C12.7391 16.685 12.6831 17.526 13.6351 18.014C13.9111 18.156 14.1701 18.362 14.3111 18.639C15.0041 20.007 15.8521 20.538 17.1801 19.32C17.5601 18.971 17.9541 19.258 18.2351 19.609C18.4961 19.932 18.6941 20.305 18.8631 20.673C19.7391 22.593 21.2231 23.586 23.3101 23.774C23.9141 23.828 24.6351 23.905 24.7811 24.665C24.9281 25.437 24.2411 25.543 23.7201 25.747C23.5181 25.827 23.3331 25.964 23.4581 26.208C23.5941 26.473 23.7661 26.331 23.9471 26.214C24.6161 25.784 25.2161 26.035 25.8181 26.404C26.2031 26.639 26.3731 27.449 26.8141 27.206C27.5141 26.824 28.3971 26.546 28.7821 25.781C29.1161 25.117 29.4051 24.601 30.2671 24.815C30.4871 24.87 30.6551 24.697 30.7411 24.496C31.6791 22.305 34.3481 22.178 35.6451 20.389C35.9321 19.994 36.4971 20.101 36.8541 20.547C37.0641 21.171 36.7821 21.674 36.3851 22.081C34.2901 24.23 32.7071 26.736 31.2521 29.334C30.9811 29.669 30.5651 29.896 30.4801 30.371C30.4031 30.655 30.2651 30.908 30.0901 31.141C29.5411 31.566 29.4101 32.197 29.2661 32.821C29.2131 33.037 29.1311 33.242 29.0321 33.44C28.8311 33.758 28.6521 34.085 28.6121 34.47C28.5571 35.015 28.4181 35.538 28.2401 36.053C26.8121 40.854 27.8431 45.224 30.5161 49.329C31.3381 50.59 31.1821 50.888 29.6961 51.299C29.4671 51.29 29.2381 51.282 29.0101 51.273C27.9521 51.66 26.9831 50.73 25.9291 51.067L25.2421 50.929C24.8591 50.921 24.4941 50.835 24.1441 50.683C23.8151 50.599 23.4861 50.514 23.1581 50.43C22.1611 49.585 20.6771 50.032 19.7011 49.128L18.4751 48.701C17.6191 48.095 16.4781 48.024 15.7211 47.231C15.5021 47.137 15.2831 47.044 15.0631 46.952C14.4821 46.455 13.6931 46.285 13.1521 45.726C13.0451 45.66 12.9381 45.594 12.8321 45.528C12.5831 45.155 12.0351 45.171 11.8221 44.752C11.7081 44.683 11.5931 44.613 11.4781 44.543C11.1041 44.107 10.5111 43.932 10.1711 43.454C10.0631 43.388 9.95506 43.323 9.84606 43.257C9.04606 42.616 8.21106 42.014 7.54106 41.225Z" transform="translate(10.5303 29.4089)" fill="#96AD1A"/>
<path fill-rule="evenodd" clip-rule="evenodd" d="M1.977 39.136C2.093 38.838 2.208 38.539 2.324 38.241C2.635 38.036 2.739 37.677 2.953 37.401C4.962 34.491 6.971 31.581 8.98 28.671C9.788 27.521 10.812 26.583 11.889 25.698C12.295 25.467 12.685 25.219 12.915 24.788C12.991 24.679 13.078 24.578 13.173 24.486C13.363 24.3 13.605 24.186 13.807 24.017C13.908 23.935 14.015 23.861 14.123 23.788C14.359 23.662 14.51 23.441 14.705 23.267C14.804 23.176 14.914 23.099 15.03 23.03C15.641 22.817 15.933 22.233 16.393 21.845C16.99 21.362 17.501 20.775 18.165 20.371C18.497 20.238 18.812 20.067 19.14 19.924C19.436 19.849 19.721 19.825 19.935 20.107C20.07 20.33 20.164 20.579 20.185 20.831C20.375 23.086 22.392 23.191 23.853 23.922C24.233 24.113 24.651 23.82 24.992 23.578C27.148 22.052 29.014 20.218 30.67 18.167C30.952 17.819 31.339 17.429 31.054 16.934C30.798 16.491 30.282 16.365 29.826 16.443C28.06 16.742 26.099 15.875 24.517 17.379C24.174 17.705 23.558 17.832 23.194 17.199C23.127 16.456 23.706 16.095 24.151 15.7C25.619 14.399 27.036 13.041 28.498 11.733C31.121 9.383 32.56 6.313 33.677 3.061C33.88 2.471 33.868 1.848 33.738 1.223C33.647 0.789 33.472 0.29 34.04 0C35.239 1.215 36.438 2.43 37.637 3.644C37.336 4.22 37.355 4.826 37.447 5.448C38.1 9.846 36.524 13.623 34.11 17.136C33.24 18.404 32.295 19.625 31.309 20.808C31.23 20.933 31.144 21.056 31.058 21.177C30.849 21.458 30.504 21.612 30.332 21.931C30.16 22.219 29.938 22.465 29.67 22.668C29.409 22.852 29.125 23.011 28.93 23.278C28.841 23.374 28.743 23.461 28.64 23.543C28.313 23.769 28.031 24.037 27.825 24.38C27.75 24.488 27.664 24.584 27.572 24.676C27.337 24.887 27.054 25.038 26.84 25.277C26.664 25.453 26.484 25.626 26.292 25.788C26.097 25.945 25.895 26.093 25.741 26.295C25.657 26.392 25.565 26.479 25.468 26.563C25.268 26.719 25.069 26.876 24.912 27.079C24.736 27.27 24.54 27.437 24.333 27.591C24.038 27.758 23.839 28.012 23.682 28.307C21.352 30.478 19.072 32.699 16.769 34.898C16.513 35.111 16.192 35.242 15.99 35.523C15.904 35.622 15.809 35.713 15.711 35.8C15.432 35.985 15.262 36.257 15.115 36.548C14.938 36.832 14.73 37.091 14.488 37.322C14.145 37.558 13.916 37.89 13.714 38.246C13.628 38.366 13.532 38.474 13.425 38.575C11.249 41.027 9.088 43.509 6.392 45.399C3.306 47.562 2.181 47.285 0 44.134C0.165 43.525 0.329998 42.916 0.494999 42.307C0.748999 42.084 0.839001 41.789 0.861001 41.465C0.945001 41.249 1.029 41.034 1.112 40.82C1.684 40.404 1.452 39.575 1.977 39.136Z" transform="translate(38.3268 21.306)" fill="#E3E8AD"/>
<path fill-rule="evenodd" clip-rule="evenodd" d="M15.0912 3.71246C15.1312 3.64246 15.1782 3.57546 15.2322 3.51546C15.6242 3.17446 15.9332 2.74446 16.3672 2.44746C16.4082 2.37146 16.4562 2.29946 16.5102 2.23346C16.6792 1.98346 16.9602 1.86146 17.1632 1.64946C17.3582 1.40546 17.5532 1.16146 17.7472 0.91646C17.9362 0.68646 18.2102 0.557462 18.4182 0.350462C18.4492 0.273462 18.4902 0.200463 18.5402 0.133463C19.2672 -0.217537 19.5972 0.164464 19.7872 0.805464C19.5252 2.02846 18.4042 2.54346 17.6382 3.34246C17.1902 3.80946 16.8142 4.21146 16.8892 4.92846C16.9892 5.87946 16.3892 6.63246 15.6452 6.89946C14.1222 7.44546 13.1022 8.82046 11.5172 9.21546C11.2462 9.28246 10.8292 9.36046 10.8522 9.73646C10.8722 10.0795 11.2712 10.1445 11.5462 10.2635C11.8322 10.3885 12.1442 10.4185 12.4502 10.4635C13.0102 10.5465 13.6722 10.5625 13.8032 11.2615C13.9272 11.9235 13.3362 12.2355 12.9092 12.5985C12.7912 12.6985 12.6322 12.7585 12.5352 12.8715C12.0662 13.4195 10.9992 13.0305 10.8172 13.8235C10.7282 14.2085 14.1962 14.8645 14.6712 14.5385C16.4042 13.3505 16.8032 13.4895 17.5202 15.5315C17.6762 15.9775 17.8352 16.4675 18.3922 16.4955C18.9872 16.5255 18.9512 15.9725 19.0292 15.6015C19.2472 14.5515 19.9132 14.2955 20.8682 14.4805C21.3782 14.5785 21.9092 14.6715 22.3242 14.9795C23.5172 15.8625 24.6192 16.8905 26.2662 16.8335C26.5562 16.8235 26.8002 17.1245 26.8612 17.4705C26.8312 17.9615 26.7672 18.4375 26.3172 18.7465C26.2042 19.0255 26.0912 19.3035 25.9792 19.5815C24.9152 21.3185 23.8022 23.0225 22.4572 24.5615C22.4372 24.6615 22.3872 24.7435 22.3092 24.8095C21.5702 25.7615 20.7952 26.6845 19.9192 27.5165L19.9122 27.5225C19.6472 27.6175 19.4042 27.8805 19.0892 27.6445C17.7702 26.1675 17.6092 26.2155 15.7882 26.7665C14.7702 27.0745 14.9512 27.8485 14.7992 28.4705C14.3152 30.4465 14.0862 30.4895 12.4392 29.2875C10.7152 28.0305 8.80319 27.1045 6.65619 26.7555C6.31819 26.6995 6.06119 26.8355 5.78719 26.9875C5.24619 27.2895 4.75319 27.0335 4.69419 26.5465C4.47719 24.7695 2.79219 24.5955 1.74619 23.7465C1.27819 23.3655 0.237186 23.4825 0.521186 22.5165C0.765186 21.6855 1.57919 21.6495 2.34119 21.7315C2.54619 21.7525 2.28819 21.7335 2.49419 21.7515C2.85419 21.7805 3.21319 21.8195 3.57219 21.7585C3.26219 21.4855 2.86519 21.6155 2.51319 21.5355C1.32519 21.2625 -0.0968121 21.2865 0.00518795 19.4575C0.173188 18.6555 0.641187 18.0055 1.06819 17.3335C1.11219 17.2425 1.16119 17.1555 1.21819 17.0725C1.62419 16.9545 1.70719 16.5325 1.96719 16.2775C2.16219 16.0175 2.35819 15.7575 2.55219 15.4965C2.93119 15.3515 3.02619 14.9245 3.33219 14.7075C3.37019 14.6245 3.41619 14.5465 3.47019 14.4725C3.68019 14.2755 3.96919 14.1635 4.11119 13.8905C6.48619 11.6105 8.86119 9.33146 11.2372 7.05246C11.4392 6.83546 11.6982 6.69446 11.9342 6.52246C12.0942 6.36246 12.2532 6.20346 12.4132 6.04446C12.6222 5.83546 12.8862 5.69646 13.1092 5.50446C13.1542 5.43346 13.1982 5.36146 13.2432 5.29146C13.4332 5.06246 13.7012 4.92946 13.9222 4.73846L14.3912 4.25246C14.6182 4.06546 14.8902 3.93446 15.0912 3.71246Z" transform="translate(50.571 42.14)" fill="#B6CE14"/>
<path fill-rule="evenodd" clip-rule="evenodd" d="M5.7411 0.122047C6.0371 0.464047 6.2681 0.979047 6.6381 1.11505C7.9291 1.58705 9.2661 1.92804 10.5861 2.31704C9.3751 2.39104 8.1581 2.42505 6.9571 2.57805C6.7921 2.59905 6.7001 3.20305 6.5741 3.53705C7.0791 3.58705 7.9141 3.46805 8.0391 3.71305C9.8231 7.19505 14.2041 6.06505 16.4531 8.42705C19.9431 12.093 19.6311 6.22605 21.7161 6.50405C22.3001 6.58105 23.0581 6.16305 23.4841 6.41005C24.0191 6.72105 24.2961 7.47805 24.6841 8.04405C24.8511 8.39505 24.7971 8.68205 24.4381 8.87805L24.4201 8.90204C24.0281 9.23804 23.7211 9.66405 23.2931 9.96205L23.2911 9.96305C22.9701 10.141 22.8481 10.559 22.4601 10.656C22.3111 10.747 22.1631 10.839 22.0141 10.93C21.8111 11.104 21.5971 11.265 21.3581 11.387C15.7941 15.467 10.2061 19.481 2.6761 18.023C0.399101 17.206 0.1731 15.232 0.0321001 13.251C-0.2559 9.18604 1.4341 5.73605 3.4931 2.41405C3.8451 1.84505 4.1741 1.26105 4.5361 0.699047C4.8121 0.272047 5.0761 -0.237953 5.7411 0.122047Z" transform="translate(45.0891 61.713)" fill="#96AD1A"/>
<path fill-rule="evenodd" clip-rule="evenodd" d="M37.32 15.7195C38.099 23.5355 32.308 27.4175 27.605 31.9545C27.251 32.2965 26.956 32.6985 26.633 33.0725C26.645 33.2355 26.582 33.3595 26.444 33.4445C26.13 33.5485 25.853 33.4825 25.609 33.2645C25.119 32.3515 26.196 32.0425 26.339 31.3725C28.295 29.0695 31.208 27.0635 32.035 24.4075C35.065 14.6785 28.877 11.2485 20.845 8.98947C17.848 8.14647 15.381 4.95147 12.428 4.53247C8.17 3.92747 4.547 0.686466 0 1.75947C10.261 -4.01953 35.52 5.42847 37.32 15.7195Z" transform="translate(35.0463 5.58594)" fill="#CDE153"/>
<path fill-rule="evenodd" clip-rule="evenodd" d="M1.026 18.17C0.684001 17.888 0.341 17.606 0 17.323C3.443 12.248 7.748 7.472 5.847 0.519C5.827 0.442 6.502 0.177 6.852 0C13.422 6.684 14.034 30.535 7.776 35.937L8.095 34.404C8.015 33.776 8.237 33.181 8.3 32.568C8.381 31.79 8.763 30.977 7.488 30.649C6.708 30.45 6.94 29.672 7.205 29.075C8.104 27.048 9.109 25.084 10.435 23.289C11.611 21.696 11.262 19.926 9.572 18.836C8.839 18.364 8.06 17.947 7.191 17.748C6.427 17.572 5.857 17.142 5.686 16.359C5.49 15.461 5.129 15.534 4.571 16.064C3.935 16.668 3.354 17.327 2.715 17.926C2.231 18.38 1.709 18.927 1.026 18.17Z" transform="translate(69.1118 24.95)" fill="#CDE153"/>
<path fill-rule="evenodd" clip-rule="evenodd" d="M7.1612 22.836C7.0522 23.152 6.9432 23.469 6.8342 23.786C6.0142 26.21 4.9192 28.526 4.0292 30.923C3.9382 31.168 3.8572 31.432 3.6552 31.589C2.6812 32.352 2.1432 33.374 1.7632 34.525C1.5942 35.036 1.2062 35.442 0.578202 35.242C0.0382019 35.069 0.0222021 34.588 0.00520201 34.1C-0.0617979 32.263 0.534202 30.541 0.883202 28.774C1.1122 27.615 1.5732 26.497 1.5052 25.286C1.4512 24.603 1.5972 23.957 1.8832 23.34C2.0872 22.946 2.4032 22.611 2.5182 22.168C2.7472 21.564 2.9542 20.949 3.3352 20.415C3.7762 20.039 4.0212 19.557 4.1072 18.987C4.1642 18.713 4.2832 18.466 4.4372 18.233C4.6802 17.929 4.9692 17.649 4.9842 17.22C5.0302 17.024 5.1072 16.843 5.2172 16.676C5.4812 16.388 5.7602 16.108 5.8282 15.696C5.9132 15.437 6.0412 15.199 6.2132 14.986C6.6712 14.573 7.0662 14.116 7.2532 13.511C7.3232 13.157 7.4742 12.841 7.6792 12.547C7.8852 12.262 8.2182 12.066 8.2792 11.68C9.9372 8.357 12.5252 5.774 15.0702 3.158C15.3552 2.865 15.6962 2.625 15.9882 2.336C16.3932 1.965 16.9872 1.793 17.1882 1.204C18.4732 0.803 19.7582 0.401 21.0432 0C20.6852 0.65 20.3282 1.302 19.9712 1.952C19.9582 2.306 19.8382 2.616 19.6002 2.88C19.3612 3.113 19.0922 3.322 18.9412 3.634C18.3222 4.543 17.6292 5.397 16.9982 6.296C16.7272 6.585 16.3892 6.815 16.2272 7.198C16.1562 7.31 16.0722 7.412 15.9832 7.51C15.5862 7.784 15.4242 8.217 15.2362 8.632C15.0702 8.931 14.8622 9.194 14.6202 9.435C14.1082 9.741 14.0262 10.312 13.7932 10.79C13.7252 10.914 13.6432 11.027 13.5522 11.134C12.9072 11.724 12.5692 12.485 12.3372 13.307C12.2632 13.516 12.1522 13.704 12.0162 13.878C11.5092 14.261 11.3692 14.845 11.1872 15.405C10.9282 15.982 10.7032 16.576 10.3102 17.082C9.3902 18.732 8.4082 20.35 7.6682 22.092C7.5452 22.382 7.4562 22.673 7.1612 22.836Z" transform="translate(9.0708 9.76599)" fill="#E3E8AD"/>
<path fill-rule="evenodd" clip-rule="evenodd" d="M13.1489 2.361C8.08791 6.286 6.35691 16.398 10.0839 20.263C7.56991 20.587 5.05691 20.91 2.54491 21.234C4.26491 18.604 1.21391 17.363 0.701911 15.348C-0.120089 12.122 -0.320088 9.102 0.645912 5.965C8.46391 11.522 9.55191 2.058 13.9579 0L13.1489 2.361Z" transform="translate(37.6813 59.474)" fill="#CDE153"/>
<path fill-rule="evenodd" clip-rule="evenodd" d="M5.294 8.42127C5.088 9.11627 4.883 9.81127 4.678 10.5063C4.097 13.3693 2.897 16.1493 3.027 19.1053C3.166 22.2333 2.303 25.3193 2.817 28.4493C2.931 29.1433 3.117 30.0783 1.877 30.0863C1.787 29.7613 1.697 29.4363 1.606 29.1093C1.474 28.9143 1.373 28.7043 1.308 28.4763L1.219 28.0573C0.979 27.5503 1.04 26.9613 0.779 26.4613C0.768 26.2323 0.756 26.0023 0.746 25.7733C0.643 25.5563 0.555 25.3343 0.482 25.1073C0.436 24.5493 0.389 23.9913 0.343 23.4353C0.111 23.0443 0.356 22.5763 0.137 22.1853C0.138 21.9563 0.139 21.7293 0.14 21.5003C-0.0129996 21.2063 0.03 20.9013 0.092 20.5963C0.085 20.3893 0.0780002 20.1833 0.0700002 19.9773C0.0230002 19.6313 0.088 19.2783 0 18.9363C0.032 18.5073 0.0650001 18.0783 0.0970001 17.6503C0.182 15.8273 0.358 14.0153 0.757 12.2343C1.191 10.2903 1.627 8.34827 2.104 6.41427C2.177 6.20227 2.25 5.99027 2.323 5.77827C2.862 5.34127 2.626 4.49927 3.206 4.08227L5.153 0.382267C6.458 -0.315733 7.564 -0.0407338 8.5 1.06727C8.625 1.45227 8.516 1.76927 8.209 2.02427C8.128 2.23627 8.048 2.44927 7.968 2.66227C7.975 3.00027 7.881 3.28427 7.558 3.45027C7.44 3.74127 7.323 4.03127 7.206 4.32227C6.796 4.71827 6.94 5.42027 6.413 5.75127C6.133 6.44627 5.852 7.14327 5.571 7.83927C5.519 8.05227 5.418 8.24227 5.294 8.42127Z" transform="translate(6.2803 24.469)" fill="#96AD1A"/>
<path fill-rule="evenodd" clip-rule="evenodd" d="M0.0681816 21.003C0.343182 17.078 0.445182 13.131 0.952182 9.236C1.29718 6.593 2.21018 4.024 2.86818 1.422C2.49918 3.474 2.05318 5.515 1.79418 7.579C1.67818 8.503 0.723182 10.32 2.33718 10.137C3.29518 10.027 4.11618 7.841 4.80818 6.49C5.89618 4.37 6.82218 2.167 7.81618 0C5.51018 7.705 2.17918 15.22 3.15718 23.556C3.42318 25.82 4.03618 28.044 4.48818 30.285L0.322182 21.842C0.251182 21.593 0.114182 21.373 0.00318203 21.142C-0.00881797 21.08 0.0131816 21.033 0.0681816 21.003Z" transform="translate(8.08963 33.552)" fill="#CDE153"/>
<path fill-rule="evenodd" clip-rule="evenodd" d="M3.219 14.1297C2.146 13.8857 1.073 13.6417 0 13.3977C1.64 11.2307 3.281 9.0627 4.921 6.8957C5.266 6.7207 5.364 6.3007 5.696 6.1127L5.709 6.0997C6.836 5.0297 7.752 3.7407 9.058 2.8577L9.117 2.8087C9.414 2.4987 9.779 2.2877 10.153 2.0897L10.183 2.0687C10.409 1.9007 10.647 1.7487 10.893 1.6087C11.023 1.5257 11.154 1.4417 11.284 1.3587C11.519 1.2017 11.76 1.0527 12.009 0.917704L12.036 0.900703C12.385 0.655703 12.74 0.421703 13.135 0.256703L13.183 0.233704C13.437 0.0427034 13.732 -0.101296 14.013 0.0907038C14.264 0.260704 14.194 0.517703 13.991 0.723703C11.387 3.9187 8.784 7.1147 6.181 10.3117C6.042 10.5487 5.834 10.7127 5.605 10.8537C5.427 11.2227 5.249 11.5907 5.072 11.9597C4.808 12.4777 4.523 12.9797 4.076 13.3667C3.954 13.6427 3.832 13.9177 3.71 14.1917C3.518 14.3897 3.354 14.3707 3.219 14.1297Z" transform="translate(11.4329 11.454)" fill="#B6CE14"/>
<path fill-rule="evenodd" clip-rule="evenodd" d="M2.04999 0C1.38099 3.745 0.711987 7.491 0.0429877 11.235C-0.197013 7.327 0.580987 3.602 2.04999 0Z" transform="translate(6.33392 30.8831)" fill="#CDE153"/>
<path fill-rule="evenodd" clip-rule="evenodd" d="M0 4.979C1.174 3.32 2.348 1.66 3.521 0C2.348 1.66 1.174 3.32 0 4.979Z" transform="translate(73.0284 61.7219)" fill="#CDE153"/>
<path fill-rule="evenodd" clip-rule="evenodd" d="M3.349 0C2.233 1.08 1.117 2.161 0 3.242C1.117 2.161 2.233 1.08 3.349 0Z" transform="translate(17.1418 14.311)" fill="#CDE153"/>
<path fill-rule="evenodd" clip-rule="evenodd" d="M0 0C1.153 0.435 2.305 0.868002 3.458 1.303C2.305 0.868002 1.152 0.435 0 0Z" transform="translate(30.2315 78.537)" fill="#CDE153"/>
<path fill-rule="evenodd" clip-rule="evenodd" d="M0 2.707C0.797 1.805 1.593 0.902 2.39 0C1.593 0.902 0.797 1.805 0 2.707Z" transform="translate(70.4903 66.95)" fill="#CDE153"/>
<path fill-rule="evenodd" clip-rule="evenodd" d="M0 0C0.673 0.729 1.346 1.459 2.019 2.188C1.346 1.458 0.673 0.729 0 0Z" transform="translate(15.7335 68.21)" fill="#CDE153"/>
<path fill-rule="evenodd" clip-rule="evenodd" d="M0 0C1.027 0.069 2.055 0.138001 3.081 0.206001C2.054 0.138001 1.027 0.069 0 0Z" transform="translate(36.4596 80.476)" fill="#CDE153"/>
<path fill-rule="evenodd" clip-rule="evenodd" d="M0 0C0.769 0.678 1.537 1.355 2.306 2.032C1.537 1.354 0.768 0.678 0 0Z" transform="translate(18.0714 70.634)" fill="#CDE153"/>
<path fill-rule="evenodd" clip-rule="evenodd" d="M0 0C0.918 0.49 1.837 0.980001 2.754 1.471C1.836 0.979001 0.918 0.49 0 0Z" transform="translate(26.2515 76.64)" fill="#CDE153"/>
<path fill-rule="evenodd" clip-rule="evenodd" d="M0.808001 1.207C0.538001 1.044 0.269 0.881 0 0.718C0.548 0.478 1.096 0.239 1.643 0L0.808001 1.207Z" transform="translate(24.6159 10.97)" fill="#CDE153"/>
<path fill-rule="evenodd" clip-rule="evenodd" d="M0 0C0.637 0.408 1.274 0.816998 1.912 1.226C1.274 0.816998 0.637 0.408 0 0Z" transform="translate(23.6827 75.135)" fill="#CDE153"/>
<path fill-rule="evenodd" clip-rule="evenodd" d="M0.883 0C0.589 0.565 0.294 1.132 0 1.696L0.883 0Z" transform="translate(8.60339 28.551)" fill="#CDE153"/>
<path fill-rule="evenodd" clip-rule="evenodd" d="M0 0C0.146 0.532 0.293 1.064 0.44 1.596C0.293 1.063 0.146 0.531 0 0Z" transform="translate(7.0592 50.9299)" fill="#CDE153"/>
<path fill-rule="evenodd" clip-rule="evenodd" d="M0 0C0.436 0.363 0.872002 0.726997 1.307 1.09C0.871002 0.726997 0.436 0.363 0 0Z" transform="translate(20.7017 72.863)" fill="#CDE153"/>
<path fill-rule="evenodd" clip-rule="evenodd" d="M0 0C0.068 0.417 0.137 0.834 0.205 1.25C0.137 0.833 0.068 0.416 0 0Z" transform="translate(6.4176 46.6541)" fill="#CDE153"/>
<path fill-rule="evenodd" clip-rule="evenodd" d="M0 1.06C0.376 0.706005 0.751999 0.354 1.127 0C0.750999 0.354 0.376 0.706005 0 1.06Z" transform="translate(68.3819 70.615)" fill="#CDE153"/>
<path fill-rule="evenodd" clip-rule="evenodd" d="M0 0C0.286 0.384 0.571 0.769 0.856 1.152C0.57 0.768 0.285 0.384 0 0Z" transform="translate(13.3385 65.0659)" fill="#CDE153"/>
<path fill-rule="evenodd" clip-rule="evenodd" d="M0 0C0.337 0.259 0.673001 0.518001 1.01 0.775001C0.673001 0.517001 0.336 0.259 0 0Z" transform="translate(22.3526 74.161)" fill="#CDE153"/>
<path fill-rule="evenodd" clip-rule="evenodd" d="M0 0C0.367 0.082 0.732999 0.163994 1.099 0.246994C0.731999 0.163994 0.366 0.082 0 0Z" transform="translate(34.6739 80.092)" fill="#CDE153"/>
<path fill-rule="evenodd" clip-rule="evenodd" d="M0 0.930001C0.082 0.653001 0.164003 0.373993 0.246003 0.095993C0.482003 0.064993 0.720002 0.033 0.956002 0C0.638002 0.311 0.318 0.620001 0 0.930001Z" transform="translate(69.5274 69.661)" fill="#CDE153"/>
<path fill-rule="evenodd" clip-rule="evenodd" d="M1.057 0C0.705 0.26 0.352 0.521 0 0.781C0.353 0.521 0.705 0.26 1.057 0Z" transform="translate(30.1076 8.98901)" fill="#E3E8AD"/>
<path fill-rule="evenodd" clip-rule="evenodd" d="M1.099 0C0.732999 0.215 0.366 0.43 0 0.645C0.367 0.43 0.732999 0.215 1.099 0Z" transform="translate(23.469 11.71)" fill="#CDE153"/>
<path fill-rule="evenodd" clip-rule="evenodd" d="M0 0C0.209 0.338 0.418 0.675001 0.627 1.012C0.418 0.674001 0.209 0.337 0 0Z" transform="translate(12.6353 63.959)" fill="#CDE153"/>
<path fill-rule="evenodd" clip-rule="evenodd" d="M1.036 0C0.690999 0.239 0.346 0.479 0 0.719C0.346 0.479 0.690999 0.239 1.036 0Z" transform="translate(20.5495 13.543)" fill="#CDE153"/>
<path fill-rule="evenodd" clip-rule="evenodd" d="M0.775002 0C0.516002 0.261 0.258 0.521002 0 0.782002C0.258 0.521002 0.516002 0.261 0.775002 0Z" transform="translate(16.354 17.567)" fill="#CDE153"/>
<path fill-rule="evenodd" clip-rule="evenodd" d="M0 0C0.209 0.258 0.418 0.515995 0.627 0.772995C0.418 0.515995 0.209 0.258 0 0Z" transform="translate(15.0445 67.364)" fill="#CDE153"/>
<path fill-rule="evenodd" clip-rule="evenodd" d="M0 0C0.016 0.302 0.0319998 0.604003 0.0479999 0.905003C0.0319998 0.603003 0.016 0.301 0 0Z" transform="translate(6.37219 45.0649)" fill="#CDE153"/>
<path fill-rule="evenodd" clip-rule="evenodd" d="M0 0C0.024 0.347 0.0469996 0.694 0.0709996 1.042C0.0469996 0.694 0.023 0.347 0 0Z" transform="translate(6.27991 43.405)" fill="#CDE153"/>
<path fill-rule="evenodd" clip-rule="evenodd" d="M0 0.693001C0.277 0.462001 0.553993 0.231 0.830993 0C0.553993 0.231 0.277 0.462001 0 0.693001Z" transform="translate(67.5489 71.676)" fill="#CDE153"/>
<path fill-rule="evenodd" clip-rule="evenodd" d="M0 0C0.168 0.198 0.337 0.396002 0.505 0.594002C0.336 0.396002 0.168 0.198 0 0Z" transform="translate(14.4576 66.673)" fill="#CDE153"/>
<path fill-rule="evenodd" clip-rule="evenodd" d="M0.709999 0C0.472999 0.153 0.236 0.307 0 0.46C0.237 0.307 0.472999 0.153 0.709999 0Z" transform="translate(21.6158 13.063)" fill="#CDE153"/>
<path fill-rule="evenodd" clip-rule="evenodd" d="M0.725001 0C0.483001 0.146 0.242 0.294 0 0.44C0.242 0.294 0.483001 0.146 0.725001 0Z" transform="translate(22.7165 12.371)" fill="#CDE153"/>
<path fill-rule="evenodd" clip-rule="evenodd" d="M0 0.457L0.655998 0L0 0.457Z" transform="translate(66.4473 72.6431)" fill="#B6CE14"/>
<path fill-rule="evenodd" clip-rule="evenodd" d="M0.822998 0L0 0.328L0.822998 0Z" transform="translate(33.9657 7.37903)" fill="#CDE153"/>
<path fill-rule="evenodd" clip-rule="evenodd" d="M0 0C0.106 0.233 0.213 0.467001 0.32 0.700001C0.213 0.467001 0.106 0.233 0 0Z" transform="translate(8.09241 54.694)" fill="#E3E8AD"/>
<path fill-rule="evenodd" clip-rule="evenodd" d="M0 0C0.0999998 0.212 0.199 0.423999 0.299 0.634999C0.199 0.422999 0.0999998 0.212 0 0Z" transform="translate(7.5885 52.9451)" fill="#CDE153"/>
<path fill-rule="evenodd" clip-rule="evenodd" d="M0 0C0.0879999 0.223 0.176 0.444 0.264 0.666C0.176 0.443 0.0879999 0.222 0 0Z" transform="translate(6.7623 49.575)" fill="#CDE153"/>
<path fill-rule="evenodd" clip-rule="evenodd" d="M11.3553 0.809C11.5463 0.539 11.7383 0.27 11.9303 0C15.7193 2.306 10.0443 3.274 11.1663 5.277C11.4003 5.696 11.0063 6.431 11.1123 6.98C11.1413 7.13 11.9333 7.13 12.3733 7.205C13.2363 7.354 14.8463 7.816 13.5903 8.564C12.3883 9.279 11.9753 10.549 12.1253 10.922C13.0243 13.158 6.06831 14.714 11.5663 17.329C11.8173 17.448 9.05531 19.941 12.0953 20.906C15.9213 22.121 16.8013 24.803 16.5493 28.657C16.5063 29.315 20.8723 30.479 23.2903 30.973C24.2883 31.178 25.2193 30.947 25.9063 31.98C29.5463 37.452 32.0613 32.364 34.0833 30.581C37.1443 27.88 41.8923 28.859 44.2733 25.243C44.0473 25.849 43.8223 26.455 43.5963 27.063C43.6223 27.197 43.5993 27.322 43.5303 27.439C43.3623 27.635 43.1823 27.822 43.0583 28.052C42.9093 28.263 42.7233 28.436 42.5023 28.569C42.2203 28.7 41.9693 28.868 41.8253 29.159C41.6723 29.367 41.4943 29.543 41.2493 29.64C41.1853 29.648 41.1223 29.655 41.0573 29.662C40.8273 29.691 40.5953 29.72 40.3643 29.75C40.1273 29.925 39.8653 30.062 39.6323 30.244L37.7373 31.744C37.0583 31.955 36.6733 32.528 36.2023 32.994L36.1843 33.006C35.7513 33.06 35.6863 33.551 35.3433 33.712L35.3413 33.713C35.0893 33.865 34.7983 33.968 34.6753 34.273C34.6313 34.345 34.5823 34.413 34.5243 34.475C34.0073 34.664 33.7523 35.16 33.3483 35.481C32.2963 36.407 31.2463 37.332 30.1953 38.259C28.5623 39.234 26.7963 40.042 25.3323 41.224C23.5373 42.673 22.1453 44.655 20.2613 45.942C19.5863 46.403 19.4033 44.037 17.5833 43.994C15.1923 43.938 14.9873 43.051 17.6893 42.842C17.7623 42.836 17.8923 42.692 17.8813 42.636C17.8443 42.457 17.7453 42.137 17.6853 42.14C14.1003 42.33 11.6783 37.411 10.9123 37.665C6.43631 39.151 5.51731 35.616 5.91031 33.661C6.78031 29.33 2.91931 31.91 1.66331 30.246C-1.29969 26.327 0.338315 23.28 1.65831 19.905C2.00831 19.011 2.37131 18.447 1.37431 17.888C1.08331 16.769 1.55731 15.808 2.00431 14.841C2.26831 14.269 2.53031 13.697 2.79331 13.124C3.42531 12.865 3.23231 12.095 3.66531 11.712C3.73931 11.525 3.81331 11.336 3.88831 11.149C4.66331 10.595 4.77831 9.634 5.27131 8.907C5.31131 8.814 5.36031 8.725 5.41831 8.641C6.03931 8.397 5.83131 7.599 6.33131 7.274C6.51531 6.996 6.69931 6.72 6.88331 6.443C7.39731 6.259 7.32431 5.625 7.72131 5.352C7.75231 5.261 7.79431 5.174 7.84531 5.092C8.22131 4.921 8.33931 4.529 8.58031 4.242L10.7333 1.297C10.9323 1.122 11.1473 0.97 11.3553 0.809Z" transform="translate(17.1116 11.718)" fill="#B6CE14"/>
<path fill-rule="evenodd" clip-rule="evenodd" d="M2.884 0C2.674 1.017 2.464 2.032 2.253 3.047C1.502 4.046 0.751 5.044 0 6.043C0.961 4.028 1.923 2.015 2.884 0Z" transform="translate(16.2323 26.559)" fill="#CDE153"/>
<path fill-rule="evenodd" clip-rule="evenodd" d="M0.865002 0C0.576002 0.562 0.288 1.123 0 1.684C0.288 1.122 0.577002 0.562 0.865002 0Z" transform="translate(39.4388 60.442)" fill="#CDE153"/>
<path fill-rule="evenodd" clip-rule="evenodd" d="M0.367001 0C0.244001 0.28 0.122 0.562003 0 0.842003C0.122 0.561003 0.245001 0.28 0.367001 0Z" transform="translate(38.8211 62.771)" fill="#CDE153"/>
<path fill-rule="evenodd" clip-rule="evenodd" d="M0.628998 0C0.418998 0.28 0.209 0.562 0 0.841C0.21 0.561 0.419998 0.28 0.628998 0Z" transform="translate(40.6509 58.7061)" fill="#CDE153"/>
<path fill-rule="evenodd" clip-rule="evenodd" d="M3.354 1.73914C3.402 1.67014 3.454 1.60314 3.51 1.54114C4.689 1.06114 5.94 0.0671418 7.029 0.221142C8.699 0.460142 11.708 -0.83486 11.768 1.00914C11.824 2.71814 9.609 4.92814 7.854 6.13114C6.479 7.07214 5.794 9.40314 2.485 8.11214C-0.227004 7.05414 0.41 5.77414 0 4.26114L0.0340004 4.24014C0.514001 4.11014 0.729999 3.67114 1.058 3.36114C2.008 3.08314 2.496 2.14714 3.354 1.73914Z" transform="translate(58.1695 37.1179)" fill="#FDFEFC"/>
<path fill-rule="evenodd" clip-rule="evenodd" d="M0 1.251L1.535 0C1.023 0.418 0.512 0.834003 0 1.251Z" transform="translate(53.3136 43.46)" fill="#CDE153"/>
<path fill-rule="evenodd" clip-rule="evenodd" d="M0 1.007C0.392 0.671 0.784003 0.336 1.176 0C0.784003 0.336 0.392 0.671 0 1.007Z" transform="translate(50.46 46.192)" fill="#CDE153"/>
<path fill-rule="evenodd" clip-rule="evenodd" d="M1.137 0C0.758001 0.355 0.379 0.711998 0 1.067C0.38 0.711998 0.758001 0.355 1.137 0Z" transform="translate(65.8016 44.588)" fill="#CDE153"/>
<path fill-rule="evenodd" clip-rule="evenodd" d="M0.749001 0C0.500001 0.266 0.25 0.530001 0 0.796001C0.25 0.530001 0.500001 0.265 0.749001 0Z" transform="translate(51.7892 58.418)" fill="#CDE153"/>
<path fill-rule="evenodd" clip-rule="evenodd" d="M0.779999 0C0.519999 0.263 0.259 0.525998 0 0.788998C0.259 0.525998 0.519999 0.263 0.779999 0Z" transform="translate(53.1234 56.848)" fill="#CDE153"/>
<path fill-rule="evenodd" clip-rule="evenodd" d="M0 0.705997C0.28 0.470997 0.561 0.234 0.841 0L0 0.705997Z" transform="translate(52.4552 44.724)" fill="#CDE153"/>
<path fill-rule="evenodd" clip-rule="evenodd" d="M0.671005 0C0.447005 0.188 0.224 0.378002 0 0.566002C0.224 0.378002 0.447005 0.189 0.671005 0Z" transform="translate(68.3183 42.491)" fill="#CDE153"/>
<path fill-rule="evenodd" clip-rule="evenodd" d="M0 0.493C0.244 0.329 0.487999 0.164 0.730999 0C0.487999 0.164 0.244 0.329 0 0.493Z" transform="translate(56.7442 41.468)" fill="#CDE153"/>
<path fill-rule="evenodd" clip-rule="evenodd" d="M0.653 0C0.435 0.194 0.217 0.389 0 0.582C0.217 0.389 0.435 0.194 0.653 0Z" transform="translate(67.0815 43.79)" fill="#CDE153"/>
<path fill-rule="evenodd" clip-rule="evenodd" d="M0.641003 0C0.427003 0.193 0.213 0.388 0 0.582C0.213 0.388 0.427003 0.194 0.641003 0Z" transform="translate(54.0407 56.031)" fill="#CDE153"/>
<path fill-rule="evenodd" clip-rule="evenodd" d="M0.699997 0C0.466997 0.18 0.233 0.36 0 0.54C0.233 0.36 0.466997 0.18 0.699997 0Z" transform="translate(64.9622 45.853)" fill="#CDE153"/>
<path fill-rule="evenodd" clip-rule="evenodd" d="M0.696998 0L0 0.529999L0.696998 0Z" transform="translate(61.808 48.662)" fill="#CDE153"/>
<path fill-rule="evenodd" clip-rule="evenodd" d="M0.679 0C0.453 0.184 0.227 0.367998 0 0.551998C0.227 0.367998 0.453 0.184 0.679 0Z" transform="translate(63.8142 46.879)" fill="#CDE153"/>
<path fill-rule="evenodd" clip-rule="evenodd" d="M0 0.559998C0.223 0.372998 0.444 0.187 0.666 0C0.444 0.187 0.223 0.372998 0 0.559998Z" transform="translate(51.7872 45.431)" fill="#CDE153"/>
<path fill-rule="evenodd" clip-rule="evenodd" d="M0.695 0C0.464 0.18 0.231 0.359001 0 0.540001C0.231 0.360001 0.464 0.18 0.695 0Z" transform="translate(62.9848 47.645)" fill="#CDE153"/>
<path fill-rule="evenodd" clip-rule="evenodd" d="M9.817 2.74096C10.116 2.71796 10.568 2.81096 10.691 2.65196C15.437 -3.52304 18.1 2.71396 19.924 5.00496C22.307 7.99596 17.204 10.011 16.822 13.177C16.583 15.17 19.298 17.065 16.887 18.976C15.203 19.093 13.877 18.587 12.566 17.373C11.849 16.71 9.746 15.076 9.675 18.28C9.67 18.517 8.943 18.74 8.552 18.969C7.021 14.843 2.983 17.862 0.611 16.169C0.327 15.966 0.2 15.545 0 15.224C0.358 15.053 0.725002 14.897 1.073 14.706C1.979 14.205 2.877 13.688 3.778 13.178C3.165 13.072 2.396 13.167 1.963 12.83C-3.059 8.93497 5.494 11.215 3.813 8.79597C7.466 8.41497 6.652 3.60496 9.817 2.74096Z" transform="translate(60.3208 40.379)" fill="#D9EF17"/>
<path fill-rule="evenodd" clip-rule="evenodd" d="M0.149575 0.876456C0.0755746 0.557456 -0.0454216 0.340458 0.0175784 0.221458C0.0855784 0.0934579 0.362575 -0.0365401 0.482575 0.00945997C0.603575 0.0544599 0.72858 0.334457 0.69458 0.473457C0.66258 0.604457 0.424575 0.684456 0.149575 0.876456Z" transform="translate(67.1034 69.0391)" fill="#B6CE14"/>
<path fill-rule="evenodd" clip-rule="evenodd" d="M2.399 0.0759964C1.675 0.697996 0.953001 1.32 0.229001 1.942C0.0980001 1.905 0.018 1.821 0 1.684C0.007 1.477 0.102 1.325 0.286 1.229C0.438 1.062 0.589001 0.893997 0.742001 0.726997C0.966001 0.536997 1.222 0.387996 1.46 0.214996C1.497 0.139996 1.539 0.069 1.583 0C1.855 0.025 2.127 0.0509964 2.399 0.0759964Z" transform="translate(59.1245 38.781)" fill="#E3E8AD"/>
<path fill-rule="evenodd" clip-rule="evenodd" d="M1.383 0C0.922 0.748 0.461 1.495 0 2.243C0.461 1.495 0.922 0.748 1.383 0Z" transform="translate(20.9994 20.624)" fill="#CDE153"/>
<path fill-rule="evenodd" clip-rule="evenodd" d="M0 1.429C0.265 0.952 0.529 0.477 0.793 0C0.528 0.477 0.264 0.952 0 1.429Z" transform="translate(12.6934 28.791)" fill="#CDE153"/>
<path fill-rule="evenodd" clip-rule="evenodd" d="M0 1.407C0.333 0.938 0.666001 0.47 0.997001 0C0.664001 0.469 0.332 0.938 0 1.407Z" transform="translate(15.5089 23.4141)" fill="#CDE153"/>
<path fill-rule="evenodd" clip-rule="evenodd" d="M0.871999 0C0.580999 0.471 0.29 0.941999 0 1.412C0.29 0.940999 0.580999 0.471 0.871999 0Z" transform="translate(19.9049 23.4299)" fill="#CDE153"/>
<path fill-rule="evenodd" clip-rule="evenodd" d="M0.913 0L0 1.368C0.305 0.911 0.609 0.456 0.913 0Z" transform="translate(22.5295 18.9919)" fill="#CDE153"/>
<path fill-rule="evenodd" clip-rule="evenodd" d="M0.837 0C0.558 0.364 0.279 0.728 0 1.091C0.279 0.728 0.558 0.364 0.837 0Z" transform="translate(23.9956 17.0701)" fill="#CDE153"/>
<path fill-rule="evenodd" clip-rule="evenodd" d="M0.164 0C0.328 0.021 0.492 0.0419997 0.655 0.0629997C0.436 0.344999 0.219 0.626998 0 0.908998C0.055 0.604998 0.11 0.303 0.164 0Z" transform="translate(14.4879 25.583)" fill="#CDE153"/>
<path fill-rule="evenodd" clip-rule="evenodd" d="M0 0.788L0.41 0C0.273 0.263 0.137 0.525 0 0.788Z" transform="translate(13.8385 27.131)" fill="#CDE153"/>
<path fill-rule="evenodd" clip-rule="evenodd" d="M0.735001 0C0.490001 0.283 0.245 0.567002 0 0.851002C0.245 0.566002 0.490001 0.283 0.735001 0Z" transform="translate(24.957 15.959)" fill="#CDE153"/>
<path fill-rule="evenodd" clip-rule="evenodd" d="M0.622 0C0.414 0.163 0.207 0.325 0 0.488C0.208 0.325 0.415 0.163 0.622 0Z" transform="translate(27.8449 12.527)" fill="#D9EF17"/>
<path fill-rule="evenodd" clip-rule="evenodd" d="M0 0.540998C0.192 0.360998 0.384999 0.181 0.576999 0C0.383999 0.18 0.192 0.359998 0 0.540998Z" transform="translate(17.0377 21.766)" fill="#CDE153"/>
<path fill-rule="evenodd" clip-rule="evenodd" d="M0 0.583C0.0930001 0.389 0.185 0.194 0.277 0C0.185 0.194 0.092 0.389 0 0.583Z" transform="translate(11.5743 32.307)" fill="#CDE153"/>
<path fill-rule="evenodd" clip-rule="evenodd" d="M0.705 0.52474C0.485 0.58374 0.292001 0.67774 0.256001 0.63574C0.140001 0.50074 0.081 0.31574 0 0.14974C0.116 0.0977393 0.295999 -0.0282617 0.334999 0.00573835C0.468999 0.123739 0.552 0.29674 0.705 0.52474Z" transform="translate(25.6095 47.7429)" fill="#96AD1A"/>
<path fill-rule="evenodd" clip-rule="evenodd" d="M1.15 0.21373C0.765998 0.42473 0.382 0.636728 0 0.848728C0.118 0.625728 0.235001 0.402729 0.353001 0.179729C0.587001 0.173729 0.772997 -0.138274 1.04 0.0737269C1.076 0.120726 1.113 0.16773 1.15 0.21373Z" transform="translate(58.2036 40.509)" fill="#E3E8AD"/>
<path fill-rule="evenodd" clip-rule="evenodd" d="M0.687 0.572998C0.458 0.607998 0.23 0.644001 0 0.679001C0.285 0.452001 0.57 0.226 0.854 0C0.798 0.19 0.743 0.381998 0.687 0.572998Z" transform="translate(58.5562 40.01)" fill="#CDE153"/>
<path fill-rule="evenodd" clip-rule="evenodd" d="M0.718002 0L0 0.513L0.718002 0Z" transform="translate(59.8661 38.995)" fill="#CDE153"/>
</g>
<defs>
<clipPath id="clip0">
<rect width="86.9599" height="86.959" fill="white"/>
</clipPath>
</defs>
</svg>
