<svg width="83" height="83" viewBox="0 0 83 83" fill="none" xmlns="http://www.w3.org/2000/svg">
<path d="M41.3 82.6C64.1094 82.6 82.6 64.1094 82.6 41.3C82.6 18.4906 64.1094 0 41.3 0C18.4906 0 0 18.4906 0 41.3C0 64.1094 18.4906 82.6 41.3 82.6Z" fill="black"/>
<path d="M28.8964 0.538504C30.1964 -0.361496 31.5964 0.138504 32.8964 0.138504C33.0964 1.2385 32.1964 1.3385 31.4964 1.5385C31.0964 1.6385 30.7964 1.9385 30.2964 1.7385C30.7964 1.9385 31.0964 1.6385 31.4964 1.5385C33.0964 0.938504 34.7964 0.538504 36.5964 0.638504C41.8964 0.0385041 46.6964 1.8385 51.2964 4.1385C51.7964 5.5385 50.7964 5.7385 49.8964 5.8385C48.5964 6.0385 47.2964 5.9385 45.8964 6.1385C41.6964 3.1385 37.1964 2.8385 32.2964 3.7385C23.0964 5.4385 17.1964 11.3385 12.3964 18.7385C11.1964 20.6385 10.1964 22.8385 8.59643 24.5385C6.39643 26.0385 6.19643 28.6385 5.19643 30.8385C5.09643 31.0385 4.99643 31.2385 4.89643 31.4385C4.69643 31.7385 4.59643 32.0385 4.39643 32.2385C4.29643 32.4385 4.09643 32.5385 3.99643 32.6385C3.79643 32.7385 3.69643 32.7385 3.49643 32.7385C3.29643 32.7385 3.19643 32.7385 2.99643 32.7385C2.89643 33.0385 3.09643 33.1385 3.19643 33.4385C5.39643 37.9385 8.79643 41.0385 13.3964 42.8385C17.8964 44.6385 22.4964 45.8385 27.2964 46.2385C27.8964 46.3385 28.4964 46.5385 29.0964 46.9385C29.2964 47.1385 29.4964 47.2385 29.6964 47.4385C29.7964 47.5385 29.7964 47.6385 29.8964 47.7385C29.9964 47.9385 30.0964 48.2385 30.0964 48.4385C29.9964 48.5385 29.9964 48.6385 29.8964 48.7385C29.3964 49.1385 28.8964 49.2385 28.2964 49.1385C22.9964 48.0385 17.5964 47.3385 12.3964 45.4385C8.89643 44.1385 5.79643 42.4385 3.69643 39.2385C3.39643 38.7385 3.09643 38.1385 2.39643 38.2385C1.69643 38.4385 1.89643 39.1385 1.79643 39.7385C1.69643 40.6385 1.89643 41.5385 0.996427 42.2385C-1.00357 34.4385 0.0964265 26.9385 3.49643 19.8385C5.89643 18.7385 6.99643 16.2385 8.69643 14.3385C13.1964 9.2385 18.3964 5.1385 24.5964 2.1385C25.8964 1.3385 27.5964 1.5385 28.8964 0.538504Z" transform="translate(6.40358 5.86145)" fill="white"/>
<path d="M0.149639 5.31075C0.549639 3.51075 -0.950362 0.910754 1.14964 0.110754C3.04964 -0.589246 3.34964 2.21076 4.54964 3.41076C9.14964 8.01076 15.2496 9.01076 21.2496 10.2108C23.8496 10.7108 26.3496 11.9108 29.1496 11.3108C30.7496 11.3108 30.8496 12.8108 31.6496 13.6108C32.1496 14.3108 32.5496 15.1108 32.6496 16.0108C32.6496 17.9108 31.5496 18.6108 29.9496 19.0108C26.5496 19.8108 23.3496 19.1108 20.3496 17.5108C15.1496 14.7108 9.34964 13.2108 4.54964 9.71076C4.14964 9.41076 3.64964 9.11076 3.14964 9.51076C2.64964 9.91076 2.84964 10.4108 3.04964 10.9108C3.24964 11.8108 3.84964 12.6108 4.04964 13.4108C4.24964 14.1108 4.74964 15.1108 3.34964 15.3108C1.14964 12.2108 0.949639 8.71075 0.149639 5.31075Z" transform="translate(7.25037 42.9893)" fill="white"/>
<path d="M1.38851 7.2585C2.48851 5.3585 0.388511 4.3585 0.188511 2.7585C0.0885114 1.8585 -0.311488 0.858501 0.488512 0.258501C1.38851 -0.441499 1.98851 0.4585 2.68851 0.8585C8.58851 4.7585 15.2885 6.8585 21.5885 9.9585C23.7885 11.0585 26.0885 10.4585 28.3885 10.2585C29.7885 10.1585 30.2885 9.1585 30.2885 7.7585C32.0885 8.1585 32.1885 9.8585 32.7885 11.1585C32.9885 13.1585 31.7885 13.9585 30.0885 14.4585C25.5885 15.6585 21.3885 14.1585 17.1885 12.8585C13.0885 11.5585 9.38851 9.5585 5.88851 7.1585C5.18851 6.6585 4.28851 5.4585 3.68851 6.2585C3.18851 6.8585 4.58851 7.6585 5.08851 8.2585C6.38851 9.7585 7.98851 10.7585 9.58851 11.7585C9.78851 11.8585 9.98851 12.0585 10.1885 12.1585C10.4885 12.3585 10.7885 12.4585 11.0885 12.6585C11.2885 12.7585 11.4885 12.8585 11.6885 12.9585C11.9885 13.0585 12.3885 13.1585 12.6885 13.2585C16.4885 14.5585 20.3885 15.5585 24.4885 15.5585C27.0885 15.7585 29.5885 15.2585 32.1885 14.9585C33.0885 14.8585 33.7885 14.7585 34.4885 15.4585C34.7885 17.7585 34.2885 18.6585 32.1885 18.8585C23.9885 19.5585 15.9885 18.6585 8.68851 14.4585C7.48851 13.7585 6.38851 12.8585 4.88851 12.7585C3.28851 11.2585 2.28851 9.2585 1.38851 7.2585Z" transform="translate(9.01149 50.9414)" fill="white"/>
<path d="M-3.8147e-07 0.824249C0.7 -0.575751 1.7 0.124248 2.4 0.624248C9.9 5.82425 18.3 6.62425 27.1 6.32425C28.7 6.22425 29.5 5.52425 29.4 3.82425C32 5.32425 33.7 10.1242 32.4 12.3242C27.2 14.2242 22.1 13.3242 17.1 11.7242C10.5 9.62425 4.3 6.72425 -3.8147e-07 0.824249Z" transform="translate(13.9 62.8757)" fill="white"/>
<path d="M8.57765 2.2C11.9776 9.3 12.5776 16.6 10.0776 24.2C9.97765 24.1 9.87765 24.1 9.87765 24C10.3777 18.7 5.67765 16.2 3.37765 12.4C2.87765 11.9 2.47766 11.4 2.17766 10.8C2.07766 10.6 1.97765 10.4 1.87765 10.2C1.77765 10 1.67765 9.8 1.57765 9.6C1.27765 8.4 -0.722346 7.9 0.277654 6.2C1.77765 5.8 2.47765 4.7 2.97765 3.3C3.47765 2 3.77765 0.6 5.37765 3.8147e-07C6.87765 3.8147e-07 7.27765 1.1 7.87765 2.2C7.97765 2.5 7.77765 2.1 7.87765 2.4C7.97765 2.6 7.97765 2.6 7.97765 2.5C7.97765 2.3 8.07765 2.2 8.27765 2.1C8.37765 2 8.47765 2.1 8.57765 2.2Z" transform="translate(65.6223 25.6)" fill="white"/>
<path d="M18.975 6.7C18.675 7 18.275 7.4 17.975 7.7C17.875 7.7 17.775 7.8 17.775 7.8C16.875 6.7 16.875 6.7 15.375 7.7C11.775 10.1 7.975 11.8 4.175 13.8C3.475 14.2 2.675 13.9 1.975 14C1.875 12 2.475 9.8 0.975001 8C0.575001 7.6 0.375002 7 0.175002 6.5C-0.0249985 6 -0.125 5.6 0.275 5.1C5.375 5.4 9.775 3.5 13.975 0.900002C14.775 0.400002 15.575 0.1 16.575 0C18.675 0.6 18.175 2.6 18.675 4C18.875 4.5 18.375 5.3 19.375 5.4C19.375 5.9 19.375 6.3 18.975 6.7Z" transform="translate(45.725 61)" fill="white"/>
<path d="M25.8394 1.5C27.6394 0.3 30.2394 2.2 31.8394 1.90735e-07C36.9394 2.3 41.2394 5.8 44.3394 10.5C43.2394 11.1 43.2394 11.1 42.0394 9.7C41.8394 9.5 41.6394 9.2 41.4394 8.9C41.5394 9.2 41.8394 9.4 41.9394 9.7C42.1394 10.2 42.2394 10.6 41.9394 11.1C41.6394 11.5 41.2394 11.7 40.6394 11.5C39.0394 8.9 37.6394 6.2 35.1394 4.3C33.6394 3.2 32.1394 2.5 30.3394 2.7C29.6394 2.7 28.9394 2.7 28.2394 2.8C27.9394 2.9 27.5394 2.9 27.2394 3C26.5394 3.2 25.9394 3.2 25.3394 3.6C23.5394 4.3 21.7394 5 20.0394 6C16.2394 8.3 12.9394 11.2 10.2394 14.8C8.73939 16.1 7.63939 17.9 6.43939 19.4C6.23939 19.7 6.03939 19.9 5.83939 20.2C5.63939 20.5 5.33939 20.9 5.13939 21.2C4.93939 21.5 4.83939 21.7 4.63939 22C4.43939 22.4 4.23939 22.7 4.03939 23.1C3.23939 24.2 2.93939 25.8 1.43939 26.3C0.939387 26.3 0.539388 26.1 0.239388 25.7C-0.0606116 25.3 -0.0606119 24.9 0.139388 24.4C0.239388 24.2 0.339387 24 0.439387 23.8C0.539387 23.5 0.739387 23.3 0.839387 23C1.03939 22.5 1.23939 22.1 1.53939 21.7C1.73939 21.4 1.83939 21.2 2.03939 20.9C2.13939 20.7 2.23939 20.5 2.33939 20.3C5.53939 15.6 9.03939 11.1 13.6394 7.4C16.2394 5.3 19.0394 3.5 21.9394 1.9C23.2394 1.8 24.3394 0.8 25.8394 1.5Z" transform="translate(25.9606 9.79993)" fill="#ABABAB"/>
<path d="M12.5 4.6C13.2 6.5 14.6 8.1 15.1 10.2C15.5 11.8 15.1 12.5 13.8 13.1C13.8 13.4 13.6 13.5 13.3 13.6C13.2 13.7 13 13.7 12.9 13.7C13.5 10.3 11.3 7.9 9.9 5.2C6.6 5.4 3.3 5.5 1.52588e-06 5.7C0.300002 4.1 1.9 4.9 2.8 4.4C3.8 4.3 4.9 4.1 5.9 4C7.9 3.7 8.6 2.8 8.3 0.9C8.6 0.3 9.1 -1.52588e-06 9.8 -1.52588e-06C10.2 0.0999985 10.5 0.300001 10.7 0.600001C11.4 1.7 12.7 2.8 12.5 4.6Z" transform="translate(33.4 61.6)" fill="#565656"/>
<path d="M21.4 0.360493C13.4 4.46049 7 10.2605 1.8 17.5605C1.3 18.2605 0.7 18.5605 -3.8147e-07 17.8605C-3.8147e-07 17.6605 0.1 17.5605 0.1 17.3605C0.2 17.1605 0.3 16.9605 0.5 16.8605C0.7 16.5605 0.9 16.1605 1 15.8605C1.2 15.6605 1.3 15.4605 1.4 15.2605C2.1 14.2605 2.7 13.2605 3.4 12.2605C5.9 9.76049 8.2 7.06049 10.9 4.76049C13.4 2.76049 16.5 1.66049 19.4 0.360493C20 0.160493 20.7 -0.339507 21.4 0.360493Z" transform="translate(9.90001 8.03943)" fill="#BDBDBD"/>
<path d="M-7.62939e-07 8.00723C3.7 4.50723 8.9 3.30724 12.8 0.107237C13.6 -0.492763 12.9 1.60723 13.8 1.90723C9.5 4.50723 5.1 7.10723 -7.62939e-07 8.00723Z" transform="translate(49.8 66.6927)" fill="#AEAEAE"/>
<path d="M0.318626 -7.62939e-07C2.21863 2.1 4.11863 4.2 5.91863 6.4C7.41863 8.2 7.11863 10.3 6.81863 12.4C6.21863 13 6.81863 13.8 6.31863 14.4C6.11863 15 5.91863 15.7 5.71863 16.3C4.91863 16.4 4.91863 15.8 4.91863 15.3C5.61863 12.3 4.31863 9.8 3.21863 7.2C2.51863 5.5 1.71863 3.9 0.718628 2.4C0.218628 1.8 -0.381374 0.999999 0.318626 -7.62939e-07Z" transform="translate(68.8814 37.2999)" fill="white"/>
<path d="M1.73363 4.1C1.53363 2.6 -0.266363 1.7 0.0336374 7.62939e-07C1.03364 1.1 2.03364 2.2 3.03364 3.2C3.33364 3.5 3.63363 4.1 4.23363 3.6C6.13363 5.8 7.63363 8.2 8.23363 11.1H8.03364H7.83364C6.73364 10.4 6.33364 8.9 5.03364 8.3C4.13364 6.7 2.23363 6 1.73363 4.1Z" transform="translate(65.9664 16.7)" fill="white"/>
<path d="M9.5 0.690683C9.7 0.990683 9.8 1.29068 10 1.69068C7.6 6.99068 5.1 12.1907 -3.05176e-06 15.5907C-3.05176e-06 15.0907 -3.05176e-06 14.5907 -3.05176e-06 14.0907C-3.05176e-06 13.9907 -3.05176e-06 13.8907 -3.05176e-06 13.7907C1.3 10.9907 4.4 9.79068 5.7 6.99068C6.7 5.29068 7.6 3.59068 7.8 1.59068C7.9 0.690684 8.1 -0.309316 9.4 0.0906842C9.7 0.290684 9.7 0.490683 9.5 0.690683Z" transform="translate(64.7 52.1093)" fill="#B8B8B8"/>
<path d="M10.5 2C7 3.5 3.5 5 -7.62939e-07 6.5C4 2.5 9.2 1.1 14.5 9.53674e-08C14.4 1.2 13.4 0.8 12.8 1.1C12 1.4 11.3 1.7 10.5 2Z" transform="translate(20.8 6.3999)" fill="white"/>
<path d="M15.0129 3.9C10.1129 2.5 5.41287 0.1 0.0128702 0.9C-0.0871298 0.1 0.412872 0.2 0.912872 0.2C1.81287 0.0999998 2.71287 0.4 3.51287 0C4.01287 0 4.51287 0 5.01287 0C5.41287 0.4 6.11287 0 6.51287 0.5C6.81287 0.5 7.21287 0.6 7.51287 0.6C7.81287 0.8 8.21287 0.7 8.51287 1C8.81287 1 9.11287 1.1 9.41287 1.1C9.61287 1.2 9.81287 1.3 10.0129 1.5C11.8129 1.9 13.6129 2.5 15.0129 3.9Z" transform="translate(42.7871 6)" fill="#ACACAC"/>
<path d="M10 0.075C8.8 0.375 7.7 0.675 6.5 0.975C5.7 1.175 4.9 1.375 4.1 1.475C2.7 1.675 1.4 1.775 -7.62939e-07 1.875C0.699999 0.875 2.4 1.375 3 0.075C5.3 -0.025 7.6 -0.025 10 0.075Z" transform="translate(36.3 5.92493)" fill="#AAAAAA"/>
<path d="M7.5 1.90735e-07C5.2 2.7 2.9 5.4 1.90735e-07 7.5C2 4.5 4.3 1.8 7.5 1.90735e-07Z" transform="translate(13.3 12.7999)" fill="#A6A6A6"/>
<path d="M7.62939e-07 0.499998C0.200001 0.299998 0.300001 0.199998 0.500001 -1.52588e-06C1.4 -1.52588e-06 2.2 0.0999969 3.1 0.0999969C2.2 0.899997 1.1 0.399998 7.62939e-07 0.499998Z" transform="translate(46.7 74.6)" fill="#AEAEAE"/>
<path d="M0.0551051 2C0.0551051 1.3 -0.244895 0.499999 0.555105 -7.62939e-07C0.355105 0.699999 0.155105 1.4 0.0551051 2Z" transform="translate(75.2449 49.7999)" fill="#C0C0C0"/>
<path d="M1.5 0.5C0.999999 0.3 0.499999 0.2 -7.62939e-07 9.53674e-08C0.499999 0.2 0.999999 0.4 1.5 0.5Z" transform="translate(47.8 5.8999)" fill="#CBCBCB"/>
<path d="M0.999999 0.4C0.699999 0.3 0.299999 0.1 -7.62939e-07 0C0.299999 0.1 0.599999 0.3 0.999999 0.4Z" transform="translate(50.3 6.5)" fill="#CBCBCB"/>
<path d="M0.4 -7.62939e-07C0.3 0.199999 0.1 0.299999 0 0.499999C0.1 0.399999 0.3 0.199999 0.4 -7.62939e-07Z" transform="translate(10 24.7999)" fill="#CBCBCB"/>
<path d="M0.4 -7.62939e-07C0.3 0.199999 0.1 0.4 0 0.6C0.1 0.4 0.2 0.199999 0.4 -7.62939e-07Z" transform="translate(11 23.2999)" fill="#CBCBCB"/>
<path d="M0.599999 0.4C0.399999 0.3 0.200001 0.1 7.62939e-07 0C0.200001 0.1 0.399999 0.2 0.599999 0.4Z" transform="translate(52.2 7)" fill="#CBCBCB"/>
<path d="M39.2 3.04741C37.9 3.44741 36.6 3.84741 35.2 4.14741C33.3 1.14741 30.3 1.44741 27.6 1.94741C19.8 3.64741 13.3 7.54741 8.8 14.3474C6.9 17.1474 7.3 19.1474 10.3 20.5474C12.5 21.6474 13.2 23.6474 14.3 25.4474C14.1 25.9474 14 26.4474 13.8 26.9474C13.8 27.0474 13.8 27.1474 13.8 27.2474C13.8 27.4474 13.7 27.6474 13.7 27.7474C13.6 27.9474 13.5 28.0474 13.4 28.2474C13.3 28.4474 13.2 28.5474 13.1 28.7474C13 28.8474 13 28.9474 12.9 29.0474C12.8 29.2474 12.7 29.3474 12.5 29.5474C12.4 29.6474 12.3 29.7474 12.3 29.7474C12.1 29.8474 11.9 30.0474 11.7 30.1474C9.9 30.9474 8.3 30.3474 6.8 29.4474C4.8 28.1474 2.7 27.1474 0.4 26.3474C0.2 26.2474 0.1 26.0474 3.8147e-07 25.7474C3.8147e-07 25.3474 0.1 25.0474 0.2 24.7474C0.6 23.7474 0.9 22.7474 1.8 22.0474C5.7 15.2474 9.7 8.14741 16.6 4.14741C23.2 0.247413 30.7 -1.55259 38.4 1.64741C39.2 1.94741 39.6 2.24741 39.2 3.04741Z" transform="translate(12.6 8.25256)" fill="white"/>
<path d="M14.4782 35.3077C13.7782 34.5077 13.1782 33.6077 12.4782 32.8077C12.3782 32.6077 12.1782 32.5077 11.9782 32.3077C11.7782 32.1077 11.6782 32.0077 11.4782 31.8077C10.9782 31.6077 10.4782 31.4077 9.97821 31.2077C7.07821 30.6077 4.17821 30.5077 1.37821 29.3077C0.578212 29.0077 -0.521788 28.8077 0.278212 27.5077C1.37821 27.0077 2.37821 27.4077 3.37821 27.6077C5.87821 28.1077 8.37821 28.6077 10.9782 28.5077C12.7782 28.5077 14.1782 27.8077 15.1782 26.3077C16.5782 24.1077 18.1782 21.9077 19.7782 19.9077C23.0782 15.6077 26.2782 11.4077 30.2782 7.7077C32.2782 5.8077 34.3782 4.1077 36.7782 2.7077C37.0782 2.5077 37.3782 2.4077 37.6782 2.2077C37.8782 2.1077 38.0782 2.0077 38.1782 1.9077C38.3782 1.8077 38.5782 1.7077 38.6782 1.5077C38.8782 1.4077 39.0782 1.3077 39.2782 1.2077C40.3782 0.8077 41.3782 -0.0923011 42.6782 0.00769891C44.4782 1.1077 42.8782 1.6077 42.1782 2.0077C40.6782 3.0077 38.9782 3.8077 37.4782 4.7077C31.0782 8.7077 26.3782 14.3077 22.2782 20.4077C20.3782 23.0077 17.5782 25.0077 17.5782 28.7077C17.4782 29.7077 16.9782 30.5077 16.5782 31.3077C16.1782 32.0077 16.1782 32.8077 15.8782 33.6077C15.4782 34.4077 15.1782 35.0077 14.4782 35.3077Z" transform="translate(23.8218 21.4923)" fill="#838383"/>
<path d="M15.5626 13.7C16.7626 16 19.1626 15.6 21.1626 16.2C22.3626 16.6 23.6626 16.8 24.9626 17.1C15.9626 16.1 7.16265 14.6 1.56265 6.4C0.962646 5.5 0.562646 4.3 0.0626458 3.3C-0.137354 2.8 0.162646 2.6 0.662646 2.8C0.962646 3.1 1.36265 3.1 1.66265 2.8C1.66265 2.7 1.66265 2.5 1.76265 2.4C1.86265 2.2 2.06265 2 2.16265 1.9C2.16265 1.7 2.16265 1.6 2.16265 1.4C2.86265 1.2 2.96265 1.7 3.16265 2.2C3.26265 2.5 3.16265 2.9 3.16265 3.2C2.96265 3.9 2.76265 4.6 3.36265 5.3C4.96265 7.2 6.96265 8.5 9.06265 9.7C11.1626 10.9 11.8626 10.7 12.8626 8.5C13.7626 6.4 14.4626 4.1 16.0626 2.4H16.1626C16.2626 2.2 16.3626 2.1 16.3626 1.9C16.3626 1.7 16.4626 1.5 16.5626 1.4H16.6626C16.7626 1.2 16.9626 1 17.0626 0.900002C17.0626 0.800002 17.1626 0.6 17.1626 0.5C17.2626 0.3 17.4626 0.1 17.5626 0C17.8626 0.2 18.2626 0.3 18.5626 0.5C18.7626 0.6 18.7626 0.8 18.7626 1C18.5626 1.6 18.2626 2.1 18.0626 2.7C17.9626 2.9 17.9626 3.1 17.8626 3.3C17.7626 3.7 17.5626 4.1 17.4626 4.5C17.2626 5 17.0626 5.5 16.8626 6C15.5626 8.3 14.9626 10.9 15.5626 13.7Z" transform="translate(8.83736 35.5)" fill="#8C8C8C"/>
<path d="M0.5 7.5C0.3 7.2 0.2 6.8 -3.8147e-07 6.5C1.2 4.3 0.9 1.4 3.6 -7.62939e-07C3.2 0.999999 2.9 2 2.5 3C2.3 3.2 2.2 3.3 2.1 3.5C2.1 3.7 2.1 3.8 2.1 4C2 5.4 2.2 6.9 0.5 7.5Z" transform="translate(10.9 30.2999)" fill="#9E9E9E"/>
<path d="M1.11207 1.13145C0.912071 1.33145 0.712072 1.53145 0.512072 1.63145C0.012072 1.13145 -0.287928 0.431447 0.412072 0.031447C0.912072 -0.168553 1.01207 0.631446 1.11207 1.13145Z" transform="translate(8.28793 37.1685)" fill="#9E9E9E"/>
<path d="M1 -7.62939e-07C0.7 0.599999 0.4 0.599999 -3.8147e-07 -7.62939e-07C0.3 -7.62939e-07 0.6 -7.62939e-07 1 -7.62939e-07Z" transform="translate(9.40001 38.2999)" fill="#9E9E9E"/>
<path d="M0.4 -7.62939e-07C0.3 0.199999 0.1 0.399999 0 0.499999C0.1 0.299999 0.2 0.199999 0.4 -7.62939e-07Z" transform="translate(10.5 37.2999)" fill="#9E9E9E"/>
<path d="M-7.62939e-07 -7.62939e-07C0.199999 0.199999 0.299999 0.299999 0.499999 0.499999C0.299999 0.299999 0.199999 0.0999992 -7.62939e-07 -7.62939e-07Z" transform="translate(35.3 53.2999)" fill="#ADADAD"/>
<path d="M-7.62939e-07 -7.62939e-07C0.199999 0.199999 0.299999 0.299999 0.499999 0.499999C0.299999 0.299999 0.199999 0.0999992 -7.62939e-07 -7.62939e-07Z" transform="translate(35.8 53.7999)" fill="#ADADAD"/>
<path d="M-7.62939e-07 1.5C-7.62939e-07 0.799999 0.400002 0.199999 1.1 -7.62939e-07C3.5 1.5 4.8 3.7 5 6.5C4.5 6.7 4 6.8 3.5 7C3.4 7.2 3.2 7.2 3.1 7C2.4 5.8 1.8 4.7 1.1 3.5C0.700002 2.8 0.299999 2.1 -7.62939e-07 1.5Z" transform="translate(38.3 55.2999)" fill="#707070"/>
<path d="M30.0217 6.84221C30.1217 6.84221 30.3217 6.84221 30.4217 6.84221C32.1217 12.8422 27.0217 9.74222 25.0217 10.9422C19.9217 11.8422 15.2217 10.7422 10.4217 9.04222C9.5217 8.74222 8.7217 8.04221 7.6217 8.24221C4.8217 7.04221 2.7217 4.84221 0.721703 2.74221C0.0217028 2.04221 -0.278297 1.04221 0.321703 0.242212C1.0217 -0.457788 1.7217 0.542213 2.1217 0.942213C8.1217 5.34221 14.7217 8.54222 22.1217 9.54222C25.0217 9.94221 28.6217 11.2422 30.0217 6.84221Z" transform="translate(11.2783 55.3578)" fill="#9A9A9A"/>
<path d="M-3.8147e-07 0.613369C-3.8147e-07 -0.286631 0.6 0.0133674 1 0.213367C6.2 2.51337 11.7 3.41337 17.4 3.21337C16.4 3.51337 15.4 3.81337 14.5 4.11337C10.1 4.21337 6.1 2.91337 2 1.61337C1.8 1.51337 1.6 1.31337 1.5 1.11337C1.4 1.11337 1.2 1.11337 1.1 1.11337C0.9 1.01337 0.7 0.813369 0.5 0.613369C0.3 0.613369 0.2 0.613369 -3.8147e-07 0.613369Z" transform="translate(18.9 63.0865)" fill="#6F6F6F"/>
<path d="M-3.8147e-07 7.62939e-07C0.2 0.200001 0.4 0.299997 0.6 0.499997C0.3 0.299997 0.0999996 0.200001 -3.8147e-07 7.62939e-07Z" transform="translate(19.4 63.7)" fill="#9A9A9A"/>
<path d="M-3.8147e-07 -3.05176e-06C0.2 0.199997 0.4 0.299997 0.5 0.499997C0.3 0.299997 0.0999996 0.199997 -3.8147e-07 -3.05176e-06Z" transform="translate(20.4 64.2)" fill="#9A9A9A"/>
<path d="M9.55166 2.48772C7.75166 3.48772 7.65166 5.38772 6.95166 6.98772C6.35166 8.28772 5.65166 9.28772 3.95166 8.48772C3.85166 8.48772 3.65166 8.48772 3.55166 8.38772C3.35166 8.28772 3.05166 8.18772 2.85166 7.98772C2.55166 7.78772 2.35166 7.58772 2.15166 7.28772C1.25166 5.78772 -1.04833 4.58772 0.551665 2.38772C2.45167 -0.112282 6.45167 -0.712282 8.75167 0.887718C8.95167 1.18772 9.15166 1.48772 9.45166 1.78772C9.75166 2.08772 9.75166 2.28772 9.55166 2.48772Z" transform="translate(61.6483 23.3123)" fill="white"/>
<path d="M7.35508 17.6648C7.35508 17.4648 7.35508 17.3648 7.25508 17.1648C6.35508 16.1648 6.15508 14.7648 5.75508 13.4648C4.85508 10.5648 3.45509 7.86476 2.05509 5.16476C1.95509 4.96476 1.85508 4.76476 1.75508 4.56476C1.55508 4.26476 1.45508 3.96476 1.25508 3.66476C0.755083 2.66476 -0.244914 1.86476 0.0550865 0.464756C0.255086 0.164756 0.455082 -0.135241 0.855082 0.0647588C0.955082 0.264759 1.15508 0.464759 1.25508 0.564759C1.55508 1.06476 1.95508 1.56476 2.25508 2.06476C3.85508 5.36476 5.55509 8.66476 7.05509 12.0648C7.85509 13.9648 8.55508 15.7648 7.35508 17.6648Z" transform="translate(66.8449 35.1353)" fill="#707070"/>
<path d="M3.4 3.7C3.2 3.9 3 4.1 2.8 4.3C0.999999 3.9 0.300003 2.5 3.05176e-06 0.800002C0.100003 0.400001 0.3 0.1 0.7 3.8147e-07C1 3.8147e-07 1.2 -7.59959e-07 1.4 0.199999C2.1 1.4 2.8 2.5 3.4 3.7Z" transform="translate(64.3 31.6)" fill="#8A8A8A"/>
<path d="M0.199997 0.999999C0.199997 0.799999 0.0999985 0.699999 0.0999985 0.499999C0.0999985 0.499999 0 0.4 0 0.2C0.1 0.1 0.200003 -7.62939e-07 0.300003 -7.62939e-07C1.5 0.699999 2.2 1.8 2.8 3C2.8 3.2 2.8 3.3 2.8 3.5C1.9 2.7 1.1 1.9 0.199997 0.999999Z" transform="translate(71 24.7999)" fill="#A3A3A3"/>
<path d="M-3.05176e-06 -7.62939e-07C0.0999969 -7.62939e-07 0.100002 0.0999996 0.200002 0.0999996C0.100002 0.0999996 0.0999969 0.0999992 -3.05176e-06 -7.62939e-07Z" transform="translate(73.7 28.2999)" fill="#A3A3A3"/>
<path d="M0.399997 0.499999C0.299997 0.299999 0.100003 0.0999992 3.05176e-06 -7.62939e-07C0.100003 0.199999 0.199997 0.299999 0.399997 0.499999Z" transform="translate(67.8 35.2999)" fill="#8A8A8A"/>
<path d="M2.1 9.9C1.4 8.6 0.699999 7.3 -7.62939e-07 5.9C4.2 4.9 8.1 3.2 12 1.2C13.3 0.5 14.6 0.0999992 16 -7.62939e-07C16.2 -7.62939e-07 16.5 1.52737e-06 16.7 0.100002C16.9 0.200002 17.1 0.299999 17.3 0.499999C17.5 0.799999 17.7 0.999999 17.9 1.3C18.2 1.9 18.4 2.5 18.6 3.1C18.7 3.4 18.8 3.7 18.9 4C18.9 4.3 18.9 4.6 18.6 4.9C14.9 6.8 11.4 9.2 7.3 10.2C5.4 10.5 3.8 10.5 2.1 9.9Z" transform="translate(43.8 56.2999)" fill="white"/>
<path d="M1.3 3.3C1.2 3.2 1.2 3 1.2 2.9C1.1 2.7 0.999999 2.6 0.799999 2.5C0.699999 2.4 0.599998 2.4 0.599998 2.3C0.499998 2.2 0.399999 2 0.299999 1.8C0.199999 1.5 0.1 1.3 0 1C0 0.800002 -1.52737e-06 0.599999 0.0999985 0.399999C0.199998 0.199999 0.399998 0.100002 0.599998 1.52588e-06C0.699998 1.52588e-06 0.800002 1.52588e-06 0.900002 1.52588e-06C1.1 0.100002 1.3 0.200001 1.4 0.300001C1.5 0.500001 1.7 0.600001 1.8 0.800001C2 1.1 2.1 1.3 2.3 1.6C2.4 1.8 2.5 2 2.7 2.1C2.9 2.4 3.1 2.7 3.3 2.9C4.5 4.8 5.2 6.8 5.8 9C6.1 10 6.2 11.1 5.4 12C5.2 12.3 5.1 12.7 4.8 12.8C4 13 4.5 12.3 4.4 12.1C4 10.3 4 8.5 2.9 6.9C2.8 6.6 2.8 6.3 2.7 6C2.6 5.8 2.5 5.6 2.4 5.5C2.2 4.9 2 4.3 1.8 3.7C1.6 3.7 1.4 3.5 1.3 3.3Z" transform="translate(59.5 53.8999)" fill="#414141"/>
<path d="M0.963242 19.6071C1.16324 19.3071 1.36324 18.9071 1.46324 18.6071C1.56324 18.4071 1.76324 18.3071 1.86324 18.1071C2.06324 17.8071 2.26324 17.4071 2.36324 17.1071C2.56324 16.9071 2.66324 16.7071 2.86324 16.6071C3.96324 14.8071 5.06324 12.9071 6.86324 11.6071C7.46324 12.3071 7.06324 13.0071 6.76324 13.7071C6.36324 14.8071 5.96324 15.9071 5.46324 16.9071C3.46324 21.7071 5.46324 24.9071 10.6632 25.1071C13.3632 25.2071 15.2632 23.9071 15.9632 21.2071C16.7632 18.3071 16.7632 15.5071 15.7632 12.7071C14.9632 10.5071 15.1632 8.50711 16.3632 6.50711C17.0632 5.30711 17.2632 4.00711 16.8632 2.70711C18.4632 1.40711 20.3632 0.707106 22.3632 0.207106C23.3632 -0.292894 24.1632 0.207106 24.8632 0.707106C27.7632 2.70711 29.7632 5.30711 31.4632 8.30711C32.3632 10.0071 31.5632 11.4071 30.2632 12.4071C28.1632 14.1071 26.0632 15.9071 24.0632 17.7071C21.1632 20.3071 18.5632 23.3071 16.6632 26.6071C14.0632 30.9071 3.16324 29.9071 0.563242 25.0071C-0.636758 23.0071 0.363241 21.4071 0.963242 19.6071Z" transform="translate(28.8368 12.6929)" fill="white"/>
<path d="M13.0718 -3.8147e-07C14.7718 0.6 14.6718 1.6 13.8718 2.9C12.3718 5.3 11.7718 7.6 12.8718 10.6C14.0718 13.9 13.8718 17.5 12.0718 20.6C10.3718 23.6 6.67179 24.1 2.97179 22.2C-0.428215 20.4 -0.528215 17.8 0.771785 14.7C1.57178 12.8 2.27178 10.9 3.07178 9C5.67178 5.1 8.97178 2.1 13.0718 -3.8147e-07Z" transform="translate(32.7282 15.3999)" fill="white"/>
<path d="M4.62034 20.5C3.32034 24.8 5.12034 27.5 9.12034 28.9C14.0203 30.6 17.9203 29.7 20.5203 25.8C23.8203 21.1 27.7203 17 32.4203 13.6C34.8203 11.9 35.6203 10.1 33.4203 7.5C31.2203 5 29.4203 2 26.0203 0.9C26.5203 0.2 27.3203 0.4 28.0203 0.4C28.2203 0.3 28.4203 0.1 28.5203 1.90735e-07C29.3203 1.90735e-07 30.2203 1.90735e-07 31.0203 1.90735e-07C33.3203 1.5 35.3203 3.3 37.4203 5C40.7203 7.6 40.7203 8.9 37.5203 11.5C37.3203 11.6 37.1203 11.8 37.0203 11.9C36.8203 12.2 36.3203 12.1 36.1203 12.5C29.2203 16.8 24.2203 23.1 19.2203 29.4C17.5203 31.3 15.9203 33.3 13.6203 34.6C12.3203 35.4 11.0203 35.5 9.62034 34.9C6.82034 33.8 4.12034 32.5 1.42034 31.3C0.32034 30.8 -0.379661 30.1 0.220339 28.8C0.420339 28.3 0.520339 27.8 0.720339 27.3C1.12034 27.1 0.920339 26.6 1.22034 26.3C1.62034 25.7 1.72034 24.9 2.22034 24.3C2.22034 24.1 2.22034 24 2.32034 23.8C3.02034 22.9 3.82034 21.7 4.62034 20.5Z" transform="translate(25.1797 11.7999)" fill="white"/>
<path d="M15.3026 7.725C10.9026 11.525 7.40258 16.125 3.90258 20.725C2.30258 20.725 2.50258 19.625 2.70258 18.625C3.20258 16.825 2.60258 15.425 1.20258 14.225C-0.197418 13.025 -0.297419 11.525 0.502581 10.025C2.10258 6.925 4.20258 4.425 7.50258 2.925C9.40258 2.125 11.3026 1.325 13.3026 0.625C14.6026 0.125 16.0026 -0.0749996 17.5026 0.0250004C18.9026 0.125 20.5026 0.325 20.9026 1.925C21.3026 3.425 19.8026 3.925 18.8026 4.625C17.6026 5.725 16.2026 6.325 15.3026 7.725Z" transform="translate(24.4974 10.075)" fill="white"/>
<path d="M20.3896 8.49624C20.9896 6.29624 23.2896 5.89624 24.5896 4.49624C24.9896 4.09624 25.5896 3.49624 25.5896 2.89624C25.5896 1.99624 24.5896 1.79624 23.9896 1.59624C18.2896 -0.00375807 7.4896 6.19624 5.8896 11.9962C5.7896 12.2962 5.58961 12.8962 5.68961 12.8962C8.88961 14.8962 8.4896 18.3962 9.0896 21.3962C9.0896 21.5962 8.9896 21.6962 8.9896 21.8962C8.7896 22.0962 8.6896 22.1962 8.4896 22.3962C8.2896 22.8962 8.0896 23.3962 7.8896 23.8962C7.7896 24.0962 7.5896 24.1962 7.4896 24.3962C6.6896 24.3962 6.0896 24.1962 5.9896 23.1962C5.7896 21.4962 4.4896 20.4962 3.1896 20.0962C-0.610395 18.8962 -0.610395 16.1962 1.0896 13.6962C6.4896 5.39624 14.1896 0.496242 24.1896 0.096242C25.7896 -0.003758 28.8896 -0.603758 28.4896 3.09624C25.6896 4.99624 23.0896 6.69624 20.3896 8.49624Z" transform="translate(19.4104 9.30371)" fill="white"/>
<path d="M19.5 11C19.3 11.2 19.1 11.4 18.9 11.6C18.1 11.8 17.6 11.2 17 10.8C14.5 8.4 14.2 8.4 11.9 10.8C9.5 13.3 6.6 15.3 5.1 18.5C5 18.7 5 18.9 4.9 19.1C4.6 19.8 4.3 20.6 3.6 21C2.6 21.2 1.7 21.4 0.700002 21.6C0.300002 21.5 0.100001 21.3 7.62939e-07 20.9C4.7 12.8 11.2 6.6 19.6 2.4C20.7 1.8 20.7 1.8 20.4 0.999999C20.3 0.599999 20.5 0.399999 20.9 0.499999C21.2 0.299999 21.6 0.199999 21.9 -7.62939e-07C23.3 1.1 24.8 2.1 25.4 4C25.2 4.2 25.1 4.2 24.9 4C22.6 2.4 18.2 3 17 5.3C15.7 7.7 18.8 8.6 19.5 10.4C19.6 10.5 19.6 10.6 19.6 10.7C19.6 10.9 19.6 11 19.5 11Z" transform="translate(45.7 20.7999)" fill="#A3A3A3"/>
<path d="M10.5 9.5C10.3 9.7 10.2 9.8 10 10C8.8 10.5 7.7 11 6.5 11.5C9 8.8 8.4 6.9 5.4 4.9C3.5 3.6 1.1 2.4 7.62939e-07 -3.8147e-07C4.6 -3.8147e-07 9.8 4.7 10.5 9.5Z" transform="translate(56.2 11.8999)" fill="white"/>
<path d="M0.399999 -7.62939e-07C0.299999 0.199999 0.0999996 0.299999 -3.8147e-07 0.499999C0.0999996 0.399999 0.299999 0.199999 0.399999 -7.62939e-07Z" transform="translate(30.4 30.7999)" fill="#D7D7D7"/>
<path d="M0.499999 -7.62939e-07C0.299999 0.199999 0.199999 0.299999 -7.62939e-07 0.499999C0.199999 0.399999 0.399999 0.199999 0.499999 -7.62939e-07Z" transform="translate(31.3 29.2999)" fill="#D7D7D7"/>
<path d="M0.500001 0C0.300001 0.1 0.100001 0.3 7.62939e-07 0.4C0.200001 0.2 0.400001 0.1 0.500001 0Z" transform="translate(53.2 12)" fill="#CFCFCF"/>
<path d="M-7.62939e-07 0.499999C0.0999992 0.299999 0.300001 0.199999 0.400001 -7.62939e-07C0.300001 0.199999 0.199999 0.399999 -7.62939e-07 0.499999Z" transform="translate(26.8 33.2999)" fill="#D9D9D9"/>
<path d="M-7.62939e-07 0.5C0.199999 0.3 0.299999 0.2 0.499999 -3.8147e-07C0.299999 0.0999996 0.199999 0.3 -7.62939e-07 0.5Z" transform="translate(27.8 31.3999)" fill="#D9D9D9"/>
<path d="M20.0139 7.04816C20.0139 7.14816 20.1139 7.34816 20.2139 7.44816C20.3139 7.64816 20.4139 7.74816 20.4139 7.94816C20.4139 8.14816 20.5139 8.34816 20.6139 8.44816H20.8139C20.9139 8.64816 20.9139 8.74816 20.8139 8.94816C16.0139 9.84816 12.0139 13.0482 7.41393 14.3482C6.41393 14.6482 5.41393 15.1482 4.41393 14.4482C4.21393 14.2482 4.11393 14.1482 3.91393 13.9482C2.61393 11.7482 1.31393 9.54816 0.0139275 7.44816C0.113927 6.64816 -0.286073 5.64816 0.513927 4.94816C5.41393 3.34816 10.0139 1.24816 15.0139 0.0481599C17.0139 -0.35184 16.9139 1.84816 18.0139 2.64816C18.1139 2.84816 18.2139 2.94816 18.4139 3.14816C18.5139 3.34816 18.6139 3.44816 18.7139 3.64816C18.8139 3.84816 18.9139 4.04816 19.0139 4.14816C19.2139 4.44816 19.3139 4.64816 19.5139 4.94816C19.7139 5.54816 19.9139 6.24816 20.0139 7.04816Z" transform="translate(39.5861 47.8518)" fill="white"/>
<path d="M4.28856 8.36802C4.28856 8.26801 4.28856 8.16802 4.18856 8.06802C3.98856 7.86802 3.88856 7.66802 3.78856 7.46802C3.78856 7.36802 3.68856 7.16802 3.68856 7.06802C3.58856 6.86802 3.48856 6.66802 3.28856 6.56802C2.28856 5.96802 1.88856 4.96802 1.38856 4.06802C1.28856 3.86802 1.18856 3.66802 0.988562 3.56802C0.888562 3.46802 0.888561 3.36802 0.788561 3.26802C0.588561 3.06802 0.488563 2.96802 0.388563 2.76802C0.288563 2.66802 0.288563 2.56802 0.188563 2.46802C-0.0114374 1.86802 -0.211438 1.26802 0.488562 0.868016C1.68856 0.668016 2.28856 1.56802 2.98856 2.26802C4.48856 3.56802 5.98856 3.76802 7.78856 2.86802C9.38857 1.96802 11.0886 1.36802 12.6886 0.568017C13.7886 -0.0319835 14.9886 -0.331983 16.1886 0.568017C16.4886 1.96802 16.8886 3.26802 17.1886 4.66802C15.3886 5.96802 16.6886 8.36802 15.1886 9.86802C14.5886 10.468 14.1886 11.368 13.7886 12.068C13.1886 11.468 13.3886 10.668 13.4886 9.96802C13.5886 8.26802 12.6886 7.96802 11.2886 8.46802C10.6886 8.66802 10.0886 9.06802 9.58856 9.36802C7.88856 10.368 6.38856 10.368 4.88856 8.86802C4.58856 8.76801 4.38856 8.56802 4.28856 8.36802Z" transform="translate(57.0114 47.7319)" fill="white"/>
<path d="M0.141422 1.3038C1.54142 2.1038 2.94142 2.7038 4.44142 1.6038C5.64142 0.703801 7.04142 -0.596198 8.64142 0.303802C10.6414 1.4038 9.04142 3.3038 9.04142 4.8038C7.64142 7.5038 5.04142 9.1038 3.04142 11.3038C3.04142 7.8038 1.64142 4.8038 0.0414198 1.8038C-0.0585802 1.7038 0.0414221 1.5038 0.141422 1.3038Z" transform="translate(61.5586 54.8961)" fill="white"/>
<path d="M0.325 3.5C0.825 2.3 1.325 1.2 1.825 -7.62939e-07C4.325 -7.62939e-07 6.225 1.4 8.125 2.6C9.925 3.7 11.625 4.4 13.725 3.4C12.625 6 11.725 8.6 10.525 11.1C9.925 12.7 8.725 12.7 7.425 12C4.725 10.5 2.225 8.9 0.225 6.5C-0.0749998 5.8 -0.0749998 5.2 0.225 4.5C0.225 4.2 0.325 3.8 0.325 3.5Z" transform="translate(11.075 34.2999)" fill="white"/>
<path d="M0.499999 0.115469C0.299999 0.315469 0.199999 0.515469 -7.62939e-07 0.615469C-7.62939e-07 0.415469 -7.62939e-07 0.315469 -7.62939e-07 0.115469C0.199999 0.0154693 0.399999 -0.0845307 0.499999 0.115469Z" transform="translate(24.8 37.1844)" fill="#ABABAB"/>
<path d="M0.499999 0.499999C0.299999 0.499999 0.199999 0.499999 -7.62939e-07 0.499999C0.199999 0.299999 0.299999 0.199999 0.499999 -7.62939e-07C0.599999 0.199999 0.599999 0.299999 0.499999 0.499999Z" transform="translate(24.8 36.7999)" fill="#C7C7C7"/>
<path d="M0.399999 -7.62939e-07C0.299999 0.199999 0.0999996 0.399999 -3.8147e-07 0.499999C0.0999996 0.399999 0.299999 0.199999 0.399999 -7.62939e-07Z" transform="translate(25.4 36.2999)" fill="#ABABAB"/>
<path d="M0.399999 -7.62939e-07C0.299999 0.199999 0.0999996 0.399999 -3.8147e-07 0.499999C0.2 0.399999 0.299999 0.199999 0.399999 -7.62939e-07Z" transform="translate(25.9 35.2999)" fill="#ABABAB"/>
<path d="M0 0.499999C0.1 0.299999 0.3 0.199999 0.4 -7.62939e-07C0.2 0.199999 0.1 0.399999 0 0.499999Z" transform="translate(13 33.2999)" fill="#C7C7C7"/>
<path d="M1.90374 7.62939e-07C1.90374 0.900001 2.30374 1.5 3.20374 1.9C4.70374 2.5 6.20374 3 7.50374 3.8C13.3037 7.9 17.1037 4 21.0037 0.500001C19.1037 3.2 17.5037 6.1 15.4037 8.6C13.4037 11 10.5037 10 7.90374 9.7C5.60374 9.5 3.40374 8.8 1.10374 8.4C-1.29626 5.4 0.803738 2.8 1.90374 7.62939e-07Z" transform="translate(23.3963 40.7)" fill="white"/>
<path d="M14.9 6.55638C14.8 6.85638 14.7 7.45638 14.6 7.45638C9.5 7.85638 5.3 11.6564 -7.62939e-07 11.4564C0.299999 10.6564 0.699999 9.85638 0.999999 8.95638C2.2 5.85638 3.8 3.05638 6.5 0.956381C7.4 0.256381 8.3 -0.443617 9.5 0.356383C9.6 0.356383 9.7 0.356383 9.8 0.356383C10 0.356383 10.2 0.456384 10.4 0.556384C11.4 1.35638 12 2.45638 12.9 3.25638C13.2 3.55638 13.4 3.85638 13.6 4.25638C13.7 4.45638 13.8 4.55638 13.9 4.75638C14 4.85638 14 4.95638 14.1 4.95638C14.2 5.05638 14.3 5.25638 14.4 5.35638C14.5 5.45638 14.5 5.45638 14.6 5.55638C14.7 5.75638 14.8 5.85638 14.8 6.05638C14.9 6.35638 14.9 6.45638 14.9 6.55638Z" transform="translate(39.8 41.3436)" fill="white"/>
<path d="M5.5027 0.499999C3.7027 3.2 1.8027 5.8 0.00269573 8.5C-0.0973043 4.6 2.6027 2.4 5.0027 -7.62939e-07C5.2027 0.199999 5.3027 0.399999 5.5027 0.499999Z" transform="translate(40.7973 41.7999)" fill="#939393"/>
<path d="M-7.62939e-07 0.6C0.299999 0.4 0.600001 0.199999 0.900001 -7.62939e-07C0.600001 0.199999 0.299999 0.4 -7.62939e-07 0.6Z" transform="translate(61.3 23.7999)" fill="#CFCFCF"/>
<path d="M7.62939e-07 0.399999C0.200001 0.299999 0.400001 0.0999996 0.500001 -3.8147e-07C0.400001 0.0999996 0.200001 0.299999 7.62939e-07 0.399999Z" transform="translate(62.2 23.3999)" fill="#CFCFCF"/>
<path d="M0.999999 -7.62939e-07C0.999999 0.799999 0.699999 1.5 -7.62939e-07 2C-7.62939e-07 1.1 0.199999 0.399999 0.999999 -7.62939e-07Z" transform="translate(26.3 36.2999)" fill="#ABABAB"/>
<path d="M0.45 -7.62939e-07C0.45 0.699999 0.45 1.3 0.45 2C-0.15 1.3 -0.15 0.699999 0.45 -7.62939e-07Z" transform="translate(10.85 38.7999)" fill="#9E9E9E"/>
<path d="M0.499999 -7.62939e-07C0.299999 0.299999 0.199999 0.699999 -7.62939e-07 0.999999C0.199999 0.599999 0.299999 0.299999 0.499999 -7.62939e-07Z" transform="translate(25.8 38.2999)" fill="#ABABAB"/>
<path d="M-3.05176e-06 -3.8147e-07C0.199997 -3.8147e-07 0.299997 -3.8147e-07 0.499997 -3.8147e-07C0.499997 0.2 0.499998 0.3 0.399998 0.5C0.299998 0.3 0.0999969 0.2 -3.05176e-06 -3.8147e-07Z" transform="translate(70.7 24.8999)" fill="#C0C0C0"/>
<path d="M-3.05176e-06 0.499999C-3.05176e-06 0.299999 -3.05176e-06 0.199999 -3.05176e-06 -7.62939e-07C0.0999969 0.199999 0.299998 0.399999 0.399998 0.499999C0.299998 0.599999 0.199997 0.499999 -3.05176e-06 0.499999Z" transform="translate(65.2 31.2999)" fill="#C0C0C0"/>
<path d="M21.1317 8.98694C18.3317 8.68694 16.2317 10.2869 14.0317 11.4869C11.0317 13.0869 8.63171 12.9869 6.53171 10.1869C6.23171 9.88694 5.73171 9.78694 5.23171 9.48694C3.13171 8.88694 2.53171 6.78694 1.23171 5.48694C1.03171 5.28694 0.931711 5.08694 0.831711 4.88694C0.731711 4.78694 0.731711 4.68694 0.631711 4.58694C0.331711 3.88694 -0.568288 3.18694 0.531712 2.38694C0.731712 2.38694 0.931712 2.28694 1.03171 2.38694C5.53171 5.08694 9.43171 3.08694 13.4317 0.986943C14.7317 0.286943 15.8317 -0.613058 17.2317 0.586942C19.0317 3.18694 20.2317 5.98694 21.1317 8.98694Z" transform="translate(51.9683 39.213)" fill="white"/>
<path d="M18.9 8.4C16.1 7.9 14.5 10.4 12.2 11.2C8.5 12.4 5.2 13.1 1.9 10.5C0.400001 10.6 0.199999 9.5 -7.62939e-07 8.4C-7.62939e-07 8.2 -7.62939e-07 8.1 -7.62939e-07 7.9C2 6.9 4 5.9 6.2 5.5C9.2 5 11.2 3.5 12.3 0.699998C12.4 0.399998 12.6 0.0999996 12.9 -3.8147e-07C13.4 0.4 13.8 0.7 14.3 1.1C15.1 2.3 16 3.4 16.8 4.6C17.3 5.6 17.8 6.6 18.4 7.5C18.6 7.6 18.7 7.8 18.8 8C18.8 8.1 18.9 8.2 18.9 8.4Z" transform="translate(50.3 31.3999)" fill="white"/>
<path d="M0.399998 0.499999C0.299998 0.299999 0.199997 0.199999 -3.05176e-06 -7.62939e-07C0.0999969 0.199999 0.199998 0.299999 0.399998 0.499999Z" transform="translate(68.7 38.7999)" fill="#B5B5B5"/>
<path d="M-7.62939e-07 0.500001C-7.62939e-07 0.300001 -7.62939e-07 0.200001 -7.62939e-07 7.62939e-07C0.0999992 0.200001 0.300001 0.399999 0.400001 0.599999C0.300001 0.599999 0.0999992 0.600001 -7.62939e-07 0.500001Z" transform="translate(60.3 56.2)" fill="#535353"/>
<path d="M-7.62939e-07 7.62939e-07C0.0999992 0.200001 0.200001 0.399999 0.400001 0.599999C0.300001 0.399999 0.0999992 0.200001 -7.62939e-07 7.62939e-07Z" transform="translate(60.8 57.2)" fill="#535353"/>
<path d="M7.62939e-07 7.62939e-07C0.100001 0.200001 0.2 0.300001 0.3 0.500001C0.3 0.300001 0.200001 0.200001 7.62939e-07 7.62939e-07Z" transform="translate(61.7 59.7)" fill="#8F8F8F"/>
<path d="M1.57259 1.1C2.07259 2.1 2.6726 3.1 3.1726 4C2.9726 4.2 2.77259 4.4 2.57259 4.6C2.07259 3.9 1.6726 3.2 1.1726 2.5C0.972597 2.4 0.872596 2.2 0.772596 2C0.672596 1.9 0.672597 1.7 0.672597 1.6C0.572597 1.4 0.372596 1.2 0.272596 1C-0.227404 0.400001 -0.0274045 7.62939e-07 0.772596 7.62939e-07C0.872596 0.200001 1.0726 0.300001 1.1726 0.500001C1.3726 0.700001 1.47259 0.899999 1.57259 1.1Z" transform="translate(57.0274 50.2)" fill="#535353"/>
<path d="M7.62939e-07 7.62939e-07C0.100001 0.200001 0.299998 0.300001 0.399998 0.500001C0.299998 0.400001 0.200001 0.200001 7.62939e-07 7.62939e-07Z" transform="translate(60.2 54.2)" fill="#535353"/>
<path d="M-7.62939e-07 0.500001C-7.62939e-07 0.300001 -7.62939e-07 0.200001 -7.62939e-07 7.62939e-07C0.0999992 0.200001 0.300001 0.399999 0.400001 0.599999C0.200001 0.699999 0.0999992 0.700001 -7.62939e-07 0.500001Z" transform="translate(59.8 55.2)" fill="#535353"/>
<path d="M-7.62939e-07 7.62939e-07C0.0999992 0.200001 0.300001 0.399999 0.400001 0.599999C0.300001 0.399999 0.0999992 0.200001 -7.62939e-07 7.62939e-07Z" transform="translate(60.8 55.2)" fill="#535353"/>
<path d="M-7.62939e-07 7.62939e-07C0.0999992 7.62939e-07 0.300001 0.0999992 0.400001 0.0999992C0.400001 0.199999 0.400001 0.400001 0.400001 0.500001C0.200001 0.400001 0.0999992 0.200001 -7.62939e-07 7.62939e-07Z" transform="translate(59.8 55.7)" fill="#9C9C9C"/>
<path d="M0.500001 0.200001C0.500001 0.400001 0.499998 0.500001 0.399998 0.700001C0.299998 0.500001 0.100001 0.3 7.62939e-07 0C0.300001 0.1 0.400001 0.200001 0.500001 0.200001Z" transform="translate(61.2 56)" fill="#535353"/>
<path d="M13 2.5667C13.1 4.9667 11.7 7.0667 9.8 7.6667C6.6 8.7667 3.5 10.3667 -7.62939e-07 10.5667C1.9 6.1667 5.7 3.3667 9.1 0.4667C10.9 -1.0333 11.9 1.4667 13 2.5667Z" transform="translate(50.3 28.7333)" fill="white"/>
<path d="M1.1 7.62939e-07C1.7 0.700001 2.4 1.4 3 2.1C3.3 2.8 3.7 3.4 4 4.1C4 4.6 4.1 5.2 3.5 5.6C2.5 4.6 1.5 3.6 0.500001 2.6C0.300001 2.5 0.200001 2.3 7.62939e-07 2.1C0.400001 1.4 0.799999 0.700001 1.1 7.62939e-07Z" transform="translate(49.2 39.7)" fill="#919191"/>
<path d="M-7.62939e-07 1.5C0.199999 0.999999 0.299999 0.499999 0.499999 -7.62939e-07C0.599999 0.199999 0.799999 0.299999 0.999999 0.499999C2.2 2 3.3 3.5 4.5 5C4.7 5.5 4.8 6 5 6.5C4.8 6.8 4.7 7.2 4.5 7.5C3.6 6.4 2.8 5.3 1.9 4.1C1.8 3.9 1.7 3.7 1.5 3.6C1.4 3.4 1.2 3.2 1.1 3.1C0.900002 2.9 0.800002 2.8 0.600002 2.5C0.300002 2.1 0.199999 1.8 -7.62939e-07 1.5Z" transform="translate(52.8 43.7999)" fill="#737373"/>
<path d="M-7.62939e-07 7.62939e-07C0.0999992 0.200001 0.300001 0.399999 0.400001 0.599999C0.300001 0.399999 0.0999992 0.200001 -7.62939e-07 7.62939e-07Z" transform="translate(57.3 51.2)" fill="#737373"/>
<path d="M-7.62939e-07 7.62939e-07C0.0999992 0.200001 0.300001 0.300001 0.400001 0.500001C0.300001 0.400001 0.199999 0.200001 -7.62939e-07 7.62939e-07Z" transform="translate(57.8 52.2)" fill="#737373"/>
<path d="M0.400001 0.499999C0.300001 0.299999 0.0999992 0.0999992 -7.62939e-07 -7.62939e-07C0.0999992 0.0999992 0.300001 0.299999 0.400001 0.499999Z" transform="translate(57.8 50.2999)" fill="#737373"/>
<path d="M0.399998 0.499999C0.299998 0.299999 0.100001 0.199999 7.62939e-07 -7.62939e-07C0.200001 0.199999 0.299998 0.299999 0.399998 0.499999Z" transform="translate(58.2 50.7999)" fill="#737373"/>
<path d="M-7.62939e-07 -7.62939e-07C0.199999 0.199999 0.299999 0.299999 0.499999 0.499999C0.299999 0.299999 0.199999 0.0999992 -7.62939e-07 -7.62939e-07Z" transform="translate(49.3 41.7999)" fill="#A3A3A3"/>
<path d="M-7.62939e-07 7.62939e-07C0.199999 0.200001 0.299999 0.399999 0.499999 0.599999C0.299999 0.399999 0.199999 0.200001 -7.62939e-07 7.62939e-07Z" transform="translate(53.3 46.2)" fill="#ADADAD"/>
<path d="M-7.62939e-07 -7.62939e-07C0.0999992 0.199999 0.300001 0.299999 0.400001 0.499999C0.300001 0.299999 0.0999992 0.199999 -7.62939e-07 -7.62939e-07Z" transform="translate(53.8 46.7999)" fill="#ADADAD"/>
<path d="M7.62939e-07 -7.62939e-07C0.100001 0.199999 0.299998 0.299999 0.399998 0.499999C0.299998 0.299999 0.200001 0.199999 7.62939e-07 -7.62939e-07Z" transform="translate(54.2 47.2999)" fill="#ADADAD"/>
<path d="M0.500001 0.499999C0.300001 0.299999 0.200001 0.199999 7.62939e-07 -7.62939e-07C0.200001 0.199999 0.400001 0.299999 0.500001 0.499999Z" transform="translate(53.2 43.7999)" fill="#919191"/>
</svg>
