<svg width="87" height="87" viewBox="0 0 87 87" fill="none" xmlns="http://www.w3.org/2000/svg">
<g clip-path="url(#clip0)">
<path d="M85.5505 24.7C85.5505 23.7 85.4505 22.7 85.4505 21.7C85.3505 21.2 85.1505 20.7 85.0505 20.1C84.9505 19.7 84.9505 19.4 84.8505 19C84.6505 18.5 84.5505 18 84.3505 17.5C84.3505 17.4 84.3505 17.2 84.2505 17.1C82.8505 12.4 81.5505 7.7 76.9505 5H76.8505C76.6505 4.9 76.5505 4.7 76.3505 4.6C76.2505 4.6 76.1505 4.5 76.0505 4.5C75.8505 4.4 75.5505 4.3 75.3505 4.2C75.5505 4.3 75.8505 4.4 76.0505 4.5C71.7505 1.3 66.7505 0.5 61.5505 0C57.8505 0 54.2505 0 50.5505 0C49.9505 0 49.3505 0 48.7505 0C48.4505 0 48.2505 0 47.9505 0C39.7505 0.2 32.3505 3 25.4505 7.1C25.2505 7.3 24.9505 7.4 24.7505 7.6C24.6505 7.6 24.5505 7.7 24.5505 7.7C24.3505 7.9 24.1505 8.1 24.0505 8.2C23.5505 8.6 22.9505 8.9 22.4505 9.3C22.0505 9.5 21.6505 9.8 21.3505 10C21.1505 10.2 21.0505 10.4 20.8505 10.6C20.8505 10.7 20.7505 10.7 20.6505 10.7C20.4505 10.9 20.2505 11 20.0505 11.2C19.9505 11.4 19.8505 11.5 19.7505 11.7C19.5505 11.9 19.3505 12.1 19.2505 12.3C19.4505 12.1 19.6505 11.9 19.7505 11.7C19.5505 11.7 19.3505 11.8 19.2505 11.8C19.0505 12 18.8505 12.1 18.6505 12.3C18.4505 12.5 18.3505 12.7 18.1505 12.9C18.1505 13 18.0505 13 17.9505 13C17.7505 13.2 17.5505 13.3 17.3505 13.5C11.5505 18.9 6.95046 25.1 3.95046 32.6C3.75046 32.9 3.55046 33.3 3.35046 33.6C3.25046 33.8 3.25046 34 3.15046 34.2C3.05046 34.4 2.95046 34.7 2.75046 34.9C2.65046 35.2 2.65046 35.5 2.55046 35.8C2.45046 36 2.35046 36.3 2.25046 36.5C2.15046 36.8 2.15046 37.1 2.05046 37.4C1.35046 41.7 0.650458 45.9 0.0504578 50.2C-0.0495422 59 -0.449542 67.7 4.55046 75.5C4.95046 76.1 5.25046 76.7 5.65046 77.4C5.65046 77.5 5.75046 77.6 5.75046 77.7C6.85046 78.7 7.85046 79.7 8.95046 80.6H9.05046C9.65046 81 10.2505 81.3 10.8505 81.7C12.1505 82.2 13.3505 82.7 14.6505 83.3C14.8505 83.4 15.0505 83.4 15.2505 83.5C19.8505 85.4 24.6505 85.8 29.5505 85.7C29.9505 85.7 30.4505 85.7 30.8505 85.7C33.2505 85.5 35.5505 85.4 37.9505 85.2C63.6505 82.6 82.9505 63.6 85.5505 38C86.4505 33.6 86.3505 29.2 85.5505 24.7Z" transform="translate(1)" fill="#050303"/>
<path d="M26.437 58.6C26.037 58.6 25.637 58.6 25.337 58.6C21.237 58 17.037 57.3 12.937 56.7C12.737 56.7 12.637 56.6 12.437 56.6C11.337 56.1 10.237 55.7 9.13698 55.2C8.63698 54.9 8.03698 54.6 7.53698 54.3C6.63698 53.4 5.73698 52.6 4.73698 51.7C4.73698 51.6 4.73698 51.5 4.63698 51.5C4.33698 51 4.03698 50.4 3.73698 49.9C1.33698 44.3 -0.163015 38.5 0.436985 32.5C0.536985 31 -1.16302 28.7 1.53698 27.8C3.53698 28.8 5.43698 29.8 7.43698 30.8C7.43698 30.9 7.43698 30.9 7.43698 31C7.43698 31.1 7.33698 31.3 7.33698 31.4C7.03698 31.4 6.73698 31.4 6.43698 31.4C6.33698 31.3 6.33698 31.2 6.23698 31.1L6.13698 31.2C6.23698 31.3 6.33698 31.3 6.43698 31.4C8.73698 30.9 4.13698 35.5 8.13698 33.6C8.63698 33.3 8.93699 32.5 9.33698 31.9C9.53698 31.5 9.83698 31.1 10.037 30.6C10.037 30.5 10.137 30.4 10.137 30.3C10.237 30.1 10.337 29.9 10.437 29.7C10.737 28.9 11.137 28.2 11.437 27.4C11.537 27.2 11.737 27 11.837 26.9C12.437 25.6 12.937 24.4 13.537 23.1C14.437 21.6 15.237 20.1 16.137 18.7C16.637 19.2 17.137 19.6 17.737 20.1C16.837 21.6 15.937 23 15.037 24.5C13.637 27.5 12.137 30.4 10.737 33.4C10.337 34.5 9.93699 35.5 9.63698 36.6C9.53698 37.1 9.93699 37.7 10.137 38.2C10.137 38.3 10.337 38.3 10.437 38.3C10.437 38.1 10.537 37.8 10.537 37.6C10.637 37.1 10.837 36.6 10.937 36.1C11.337 36.3 12.037 36.4 12.037 36.6C12.137 37.2 12.037 37.9 11.937 38.5C11.837 38.8 11.637 39.1 11.537 39.4C11.737 39.5 11.937 39.6 12.037 39.5C14.037 38.1 14.437 39.8 15.137 41C15.237 41.2 15.437 41.3 15.537 41.5C15.537 41.3 15.737 41 15.637 40.8C14.937 39.3 14.237 37.8 13.437 36.4C15.037 37.7 16.537 38.9 18.137 40.2V40.1C18.337 40.3 18.437 40.4 18.637 40.6H18.537C18.737 40.8 18.837 40.9 19.037 41.1V41H18.937C18.937 41.1 19.037 41.3 19.037 41.4C21.137 43.9 23.137 46.6 25.537 48.8C27.437 50.6 27.737 54.6 31.837 53.5C34.337 52.8 36.737 52.1 39.237 51.5C38.037 49.7 36.837 48 35.637 46.2C35.037 45.3 34.337 44.4 33.737 43.4C33.537 43.2 33.437 43 33.237 42.7C33.137 42.5 32.937 42.4 32.837 42.2C32.737 42 32.537 41.9 32.437 41.7C32.337 41.6 32.337 41.6 32.337 41.5C32.037 40.3 31.537 39.3 30.237 38.9C30.137 38.7 29.937 38.6 29.837 38.4C29.237 37.8 28.637 37.3 28.037 36.7C27.737 36.4 27.437 36.1 27.137 35.7C26.837 35.2 26.537 34.8 26.137 34.3C27.337 35.2 28.337 36.2 29.637 36.9C30.437 37.3 31.437 37 32.437 37.1C32.437 36.9 32.437 36.7 32.437 36.5C32.437 36 32.237 35.1 32.437 34.9C33.037 34.6 33.737 34.6 34.437 34.5C34.437 35.2 34.537 35.9 34.537 36.7C34.537 36.9 34.337 37.2 34.237 37.4C34.537 37.3 34.937 37.4 35.037 37.2C36.037 35.4 36.737 33.2 39.537 33.7C39.337 30.9 43.037 32 43.537 29.2C43.937 27.4 46.937 26.4 47.637 23.9C47.837 23.2 48.837 24.3 49.437 24.5C50.037 24.7 51.037 23.9 51.837 23.6C52.037 23.5 52.137 23.3 52.237 23.1C51.837 23.1 51.437 23 51.137 23C50.637 23.1 50.137 23.2 49.737 23.4C49.837 22.4 49.837 21.4 50.237 20.5C50.437 19.9 51.037 19.7 51.937 19.9C52.937 20.1 54.137 19.3 55.237 18.9C55.137 18.6 55.037 18.2 54.837 18.2C53.337 18.4 53.137 17.5 53.337 16.5C53.537 15.3 54.637 15.4 55.537 15.1C56.437 14.8 57.037 13.7 57.737 12.9C57.737 12.9 57.537 12.6 57.537 12.5C57.237 12.7 56.737 12.9 56.537 13.3C56.037 14.5 55.137 14.1 54.537 13.7C54.137 13.4 53.937 12.4 54.137 11.9C54.437 11.1 55.237 10.7 56.137 11.3C56.937 11.9 56.837 11.5 57.237 10.8C58.037 9.1 58.837 7.2 60.237 6.2C62.237 4.9 61.037 4.1 60.437 2.9C60.137 2.4 60.337 1.6 60.237 1C60.537 1 61.037 0.8 61.237 1C62.637 2.4 62.437 1.1 62.537 0.299999C62.637 0.199999 62.737 0.1 62.837 0C65.037 2.4 67.237 4.8 69.437 7.1C69.537 7.2 69.737 7.4 69.837 7.5C69.837 7.6 69.937 7.7 69.937 7.7C70.237 8.1 70.537 8.5 70.837 8.8C70.837 8.9 70.937 8.9 70.937 9C71.637 10 72.237 10.9 72.937 11.9C72.937 11.9 73.037 11.9 73.037 12C73.337 12.3 73.637 12.6 73.837 12.9C73.937 13.2 73.937 13.5 74.037 13.8C74.137 14.2 74.237 14.5 74.337 14.9C74.337 15.5 74.337 16.1 74.337 16.7C73.937 18.5 73.637 20.2 73.237 22C70.837 33 65.637 42.5 56.237 48.7C44.637 56.3 44.337 56 40.337 52.9C39.837 53 39.437 53 38.937 53.1C38.837 53.2 38.637 53.3 38.537 53.4C36.737 53.8 34.837 54.1 33.037 54.5C32.937 54.6 32.737 54.6 32.637 54.7C32.237 55.4 30.537 54 30.737 55.8C31.937 60.6 27.237 57 26.437 58.6Z" transform="translate(6.91347 21.5)" fill="#A75631"/>
<path d="M63.2722 4C63.3722 4 63.4722 4.1 63.5722 4.1C63.6722 4.2 63.8722 4.4 63.9722 4.5C67.0722 7.4 68.4722 11.4 70.3722 15.1C70.3722 15.2 70.3722 15.3 70.4722 15.5C70.6722 15.9 70.7722 16.4 70.9722 16.8C71.0722 17.1 71.0722 17.4 71.1722 17.7C71.1722 18.2 71.1722 18.6 71.1722 19.1C70.9722 19.3 70.6722 19.5 70.4722 19.6C68.5722 17 66.9722 14 64.6722 11.8C61.8722 9.1 59.9722 5 55.2722 4.6C54.9722 4.7 54.7722 4.7 54.4722 4.8C53.5722 5 52.6722 5.2 51.7722 5.5C47.8722 7 51.9722 7.6 52.2722 8C54.7722 10.8 57.4722 13.4 60.1722 16C60.0722 16.1 59.9722 16.2 59.8722 16.3C59.2722 15.9 58.2722 15.1 58.0722 15.2C55.7722 17 55.6722 13 53.7722 13.5C53.3722 13.6 52.8722 12.7 53.1722 11.7C53.3722 11 52.7722 10 52.4722 9.2C52.4722 9.1 52.1722 9.1 51.9722 9.1C51.8722 9.8 51.7722 10.4 51.6722 11.1C51.5722 11.7 51.4722 12.2 51.3722 12.8C50.6722 17.7 45.7722 19.1 43.3722 22.4C38.3722 29.3 31.2722 34.1 25.2722 39.9C23.2722 41.8 20.1722 42.3 17.4722 41.6C16.3722 41.3 17.2722 39.2 17.5722 37.9C17.7722 37 18.1722 36.2 18.4722 35.3C18.8722 35.6 19.2722 35.9 19.6722 36.2C19.1722 37.5 18.6722 38.8 18.1722 40.1C19.2722 40.2 20.4722 40.5 21.4722 40.2C23.0722 39.7 24.8722 39.2 26.0722 38C33.4722 31.1 40.8722 24.1 48.0722 16.9C49.3722 15.6 51.0722 13.7 49.9722 11.7C49.5722 10.8 47.6722 11.2 46.5722 12C44.8722 10.7 47.0722 8.7 46.1722 7.9C42.1722 4.1 37.9722 3.9 33.6722 7.7C33.6722 7.8 33.5722 8 33.5722 8.1C33.5722 7.5 33.5722 7 33.5722 6.4C33.9722 6.2 34.4722 6 34.8722 5.8C34.8722 5.7 34.7722 5.6 34.7722 5.5C34.3722 5.8 33.9722 6 33.6722 6.3C31.8722 6.9 32.5722 9.9 30.0722 10C27.8722 10.1 25.5722 10.1 23.4722 10.7C21.9722 11.2 20.1722 11.8 20.4722 14.5C20.6722 16.8 17.2722 15.3 16.1722 17.5C14.2722 21.4 10.1722 24.1 10.0722 29.2C10.0722 30.3 9.1722 31.6 9.6722 33C10.5722 32.1 11.4722 31.2 12.3722 30.3C13.1722 30.6 13.6722 31 12.8722 31.8C12.6722 32 12.5722 32.1 12.3722 32.3H12.2722H12.3722C10.8722 32.2 8.3722 38 7.9722 31.6C7.9722 31.3 7.7722 31 7.5722 30.7C7.2722 30.9 6.7722 31.1 6.5722 31.4C6.4722 31.5 6.8722 32 7.1722 32.2C8.4722 33.7 6.2722 35.8 8.0722 37.2C7.6722 37 7.3722 36.9 6.9722 36.7C6.7722 36.5 6.4722 36.4 6.2722 36.2C6.0722 36 5.7722 35.9 5.5722 35.7C5.5722 35.7 5.4722 35.6 5.3722 35.7C4.1722 35 2.9722 34.3 1.7722 33.6C-1.8278 31.8 1.0722 29.6 1.6722 28C3.5722 21.6 8.0722 16.7 12.4722 11.7C12.4722 11.6 12.4722 11.4 12.5722 11.3C12.6722 11.3 12.6722 11.3 12.7722 11.2C12.8722 11.2 13.0722 11.2 13.1722 11.2C13.3722 11 13.5722 10.9 13.6722 10.7C13.8722 10.5 13.9722 10.4 14.1722 10.2C14.2722 10.1 14.3722 9.9 14.4722 9.8C14.6722 9.7 14.8722 9.5 14.9722 9.4C15.0722 9.4 15.0722 9.4 15.1722 9.3C15.2722 9.3 15.4722 9.3 15.5722 9.3C15.7722 9.1 15.9722 9 16.1722 8.8C16.3722 8.6 16.4722 8.4 16.6722 8.1C17.1722 7.8 17.5722 7.5 18.0722 7.2C18.1722 7.2 18.3722 7.2 18.4722 7.2C18.6722 7.1 18.8722 6.9 18.9722 6.8C19.0722 6.7 19.2722 6.6 19.3722 6.5C21.0722 5.7 22.8722 4.8 24.5722 4C29.1722 1.7 34.1722 1.2 38.9722 9.53674e-08C39.1722 9.53674e-08 39.3722 9.53674e-08 39.6722 9.53674e-08C41.0722 0.6 42.5722 1.2 43.9722 1.8C44.0722 1.9 44.2722 1.9 44.3722 2C44.5722 2.2 44.7722 2.3 44.8722 2.5C44.9722 2.5 45.0722 2.6 45.2722 2.6C45.4722 2.7 45.5722 2.9 45.7722 3C48.2722 6.3 51.2722 4.1 54.0722 3.9C57.0722 2.6 60.1722 2.6 63.2722 4ZM48.1722 10.3C48.6722 10.1 49.2722 9.9 49.7722 9.8C49.5722 9.3 49.3722 8.9 49.0722 8.4C48.2722 8.9 47.3722 9.3 46.5722 9.8C47.0722 9.9 47.5722 10.1 48.1722 10.3Z" transform="translate(9.57825 5.40002)" fill="#A75631"/>
<path d="M4.2 0.9C5.4 1.6 6.6 2.3 7.8 3C6.2 3.7 7.3 4.9 7.2 5.9C6.7 8.7 9.5 11.3 7.7 14.2C5.7 13.2 3.8 12.2 1.8 11.2C1.2 11.2 0.6 11.2 -1.90735e-07 11.2C0.6 7.5 1.2 3.8 1.8 -1.52588e-06C2.5 0.299998 3.4 0.6 4.2 0.9Z" transform="translate(6.75046 38.1)" fill="#EADFCB"/>
<path d="M-7.62939e-07 42.1C0.899999 40.5 5.5 44 4 39.2C5.4 39 6.9 38.9 8.2 38.4C10 37.7 12.4 38.3 13.6 36.2C17.6 39.2 17.9 39.6 29.5 32C38.9 25.8 44.1 16.3 46.5 5.3C46.9 3.6 47.2 1.8 47.6 0C47.6 0.2 47.7 0.3 47.7 0.5C45.5 22.9 28.7 39.5 6.1 41.7C4.1 41.9 2 42 -7.62939e-07 42.1Z" transform="translate(33.3505 38)" fill="#CC714B"/>
<path d="M4 2.6C3.9 2.6 3.8 2.5 3.6 2.5C3.4 2.3 3.2 2.2 3.1 2C3 1.9 2.8 1.9 2.7 1.8C1.8 1.2 0.900001 0.6 7.62939e-07 0C3.2 0 6.4 0 9.6 0C9.9 0.3 10.2 0.7 10.6 0.9C14.2 3 14.2 2.9 12.9 3.9C10.1 4 7 6.3 4.6 3C4.3 2.8 4.2 2.7 4 2.6Z" transform="translate(50.7505 5.5)" fill="#EADFCB"/>
<path d="M3.3 3.9C4.6 3 4.6 3 1 0.9C0.600001 0.7 0.300001 0.3 7.62939e-07 0C4.5 0.4 8.9 1.2 12.6 3.9C9.5 2.5 6.4 2.5 3.3 3.9Z" transform="translate(60.2505 5.5)" fill="#CC714B"/>
<path d="M2.6 21.9C1.7 21.6 0.9 21.3 1.90735e-07 21C1.90735e-07 20.7 0.1 20.5 0.1 20.2C0.2 20 0.3 19.8 0.4 19.6C0.5 19.3 0.5 19.1 0.6 18.8C0.7 18.6 0.8 18.4 0.9 18.2C0.9 18 1 17.8 1 17.6C1.2 17.3 1.3 17 1.5 16.7C4.1 10.2 8.1 4.8 13.1 3.8147e-07C13.3 3.8147e-07 13.4 3.8147e-07 13.6 3.8147e-07C9.2 4.9 4.7 9.9 2.4 16.3C2 18 -0.9 20.2 2.6 21.9Z" transform="translate(8.35046 17.1)" fill="#CC714B"/>
<path d="M0.109488 -7.62939e-07C0.709488 -7.62939e-07 1.30949 -7.62939e-07 1.90949 -7.62939e-07C-0.790512 0.899999 0.909488 3.2 0.809488 4.7C0.209488 10.7 1.60949 16.4 3.90949 22C-0.490513 15.2 -0.0905124 7.6 0.109488 -7.62939e-07Z" transform="translate(6.54097 49.3)" fill="#CC714B"/>
<path d="M19.6 0C14.8 1.2 9.7 1.7 5.2 4C3.5 4.9 1.7 5.7 -7.62939e-07 6.5C-7.62939e-07 6.4 -7.62939e-07 6.3 -7.62939e-07 6.3C6 2.6 12.4 0.2 19.6 0Z" transform="translate(28.8505 5.5)" fill="#CC714B"/>
<path d="M6.4 10.6C4.5 7 3.1 3 0 -3.8147e-07C4.1 2.4 5.2 6.5 6.4 10.6Z" transform="translate(73.5505 9.90002)" fill="#CC714B"/>
<path d="M0.300002 0.5C0.500002 0.3 0.799998 0.1 0.999998 0C1.1 0 1.2 0 1.3 0C1.3 0.9 1.3 1.8 1.4 2.6C1.2 5 1 7.5 0.800002 9.9C0.500001 9.6 0.199998 9.3 -1.52588e-06 9C0.0999985 6.1 0.200002 3.3 0.300002 0.5Z" transform="translate(79.6505 24.5)" fill="#CC714B"/>
<path d="M0 7.3C0.2 4.9 0.399998 2.4 0.599998 0C1.3 3.8 1.4 7.7 0.699997 11.6C0.699997 11.4 0.599998 11.3 0.599998 11.1C0.599998 10.5 0.599998 9.9 0.599998 9.3C0.499998 8.9 0.400003 8.6 0.300003 8.2C0.100003 7.9 0 7.6 0 7.3Z" transform="translate(80.5505 27)" fill="#EADFCB"/>
<path d="M7.62939e-07 -3.05176e-06C4.1 0.599997 8.3 1.3 12.4 1.9C8.2 2.1 4 1.7 7.62939e-07 -3.05176e-06Z" transform="translate(19.7505 78.2)" fill="#CC714B"/>
<path d="M-3.8147e-07 -3.05176e-06C0.9 0.899997 1.8 1.7 2.8 2.6C1.9 1.7 1 0.799997 -3.8147e-07 -3.05176e-06Z" transform="translate(11.4505 73.2)" fill="#CC714B"/>
<path d="M1.6 0C2.5 0.6 3.4 1.2 4.3 1.8C2.9 1.2 1.4 0.6 0 0C0.6 0 1.1 0 1.6 0Z" transform="translate(49.0505 5.5)" fill="#CC714B"/>
<path d="M-3.8147e-07 -3.05176e-06C1.1 0.499997 2.2 0.899998 3.3 1.4C2.2 0.899998 1.1 0.499997 -3.8147e-07 -3.05176e-06Z" transform="translate(15.9505 76.7)" fill="#CC714B"/>
<path d="M-3.8147e-07 3.05176e-06C0.3 0.500003 0.6 1.1 0.9 1.6C0.7 1.1 0.3 0.600003 -3.8147e-07 3.05176e-06Z" transform="translate(10.4505 71.3)" fill="#CC714B"/>
<path d="M1.4 -1.90735e-07C0.9 0.3 0.5 0.6 0 0.9C0.5 0.6 0.9 0.3 1.4 -1.90735e-07Z" transform="translate(26.0505 12.7)" fill="#EADFCB"/>
<path d="M1.90735e-07 3.05176e-06C0.5 0.300003 1.1 0.599997 1.6 0.899997C1 0.599997 0.5 0.300003 1.90735e-07 3.05176e-06Z" transform="translate(14.3505 75.8)" fill="#CC714B"/>
<path d="M0.500002 1.3C0.300002 0.9 0.200002 0.399999 1.52588e-06 -7.62939e-07C0.200002 0.399999 0.400002 0.9 0.500002 1.3Z" transform="translate(79.9505 20.8)" fill="#CC714B"/>
<path d="M0.3 1.4C0.2 1.4 0.0999969 1.4 -3.05176e-06 1.4C-3.05176e-06 0.9 -3.05176e-06 0.5 -3.05176e-06 0C-3.05176e-06 0.5 0.2 0.9 0.3 1.4Z" transform="translate(80.7505 23)" fill="#EADFCB"/>
<path d="M1 3.8147e-07C0.8 0.2 0.7 0.4 0.5 0.7C0.3 0.7 0.2 0.7 0 0.7C0.3 0.5 0.7 0.3 1 3.8147e-07Z" transform="translate(25.0505 13.6)" fill="#EADFCB"/>
<path d="M0.5 1.52588e-06C0.3 0.300002 0.2 0.599999 -3.8147e-07 0.899999C0.2 0.499999 0.4 0.300002 0.5 1.52588e-06Z" transform="translate(9.45045 33.9)" fill="#EADFCB"/>
<path d="M0.699999 -1.90735e-07C0.699999 0.0999998 0.699999 0.2 0.699999 0.2C0.599999 0.3 0.4 0.4 0.3 0.5C0.2 0.5 0.1 0.4 3.8147e-07 0.4C0.2 0.3 0.399999 0.2 0.699999 -1.90735e-07Z" transform="translate(28.1505 11.7)" fill="#EADFCB"/>
<path d="M0.2 -1.90735e-07C0.3 -1.90735e-07 0.4 0.1 0.5 0.1C0.3 0.2 0.0999996 0.4 -3.8147e-07 0.5C-3.8147e-07 0.4 0 0.2 0.1 0.1C0.1 1.86265e-07 0.1 -1.90735e-07 0.2 -1.90735e-07Z" transform="translate(27.9505 12.2)" fill="#CC714B"/>
<path d="M0.4 0.5C0.3 0.5 0.1 0.5 0 0.5C0.1 0.3 0.3 0.2 0.4 1.90735e-07L0.5 0.0999996C0.5 0.2 0.5 0.3 0.4 0.5Z" transform="translate(24.5505 14.3)" fill="#EADFCB"/>
<path d="M0.5 -3.8147e-07C0.3 0.0999996 0.0999996 0.3 -3.8147e-07 0.4C0.0999996 0.2 0.3 0.0999996 0.5 -3.8147e-07Z" transform="translate(23.9505 14.9)" fill="#EADFCB"/>
<path d="M3.8147e-07 0.400001C0.2 0.300001 0.3 0.1 0.5 1.90735e-07C0.5 0.2 0.5 0.299999 0.5 0.499999C0.4 0.399999 0.2 0.400001 3.8147e-07 0.400001Z" transform="translate(22.6505 15.8)" fill="#EADFCB"/>
<path d="M3.8147e-07 0.600001C3.8147e-07 0.400001 3.8147e-07 0.3 3.8147e-07 0.0999998C0.2 0.0999998 0.3 0.1 0.5 3.8147e-07C0.4 0.3 0.2 0.400001 3.8147e-07 0.600001Z" transform="translate(23.1505 15.6)" fill="#CC714B"/>
<path d="M0.4 0.500001C0.3 0.500001 0.100001 0.500001 7.62939e-07 0.500001C0.100001 0.300001 0.3 0.200001 0.4 7.62939e-07L0.500001 0.0999992C0.500001 0.199999 0.4 0.300001 0.4 0.500001Z" transform="translate(22.2505 16.2)" fill="#EADFCB"/>
<path d="M0.5 0.4C0.3 0.4 0.2 0.4 0 0.4C0.2 0.3 0.4 0.100001 0.5 7.62939e-07C0.5 0.200001 0.5 0.3 0.5 0.4Z" transform="translate(21.5505 16.7)" fill="#EADFCB"/>
<path d="M0.5 -1.90735e-07C0.5 0.0999998 0.499999 0.3 0.399999 0.4C0.299999 0.4 0.0999996 0.4 -3.8147e-07 0.4C0.2 0.3 0.3 0.2 0.5 -1.90735e-07Z" transform="translate(27.4505 12.2)" fill="#EADFCB"/>
<path d="M0.3 -7.62939e-07C0.2 0.199999 0.1 0.400002 0 0.600002C0.1 0.400002 0.2 0.199999 0.3 -7.62939e-07Z" transform="translate(9.05046 35.3)" fill="#EADFCB"/>
<path d="M0.3 7.62939e-07C0.2 0.200001 0.1 0.399999 0 0.599999C0.1 0.399999 0.2 0.200001 0.3 7.62939e-07Z" transform="translate(8.55046 36.7)" fill="#EADFCB"/>
<path d="M0.4 0.4C0.3 0.3 0.0999985 0.1 -1.52588e-06 0C0.0999985 0.1 0.2 0.3 0.4 0.4Z" transform="translate(73.1505 9.5)" fill="#CC714B"/>
<path d="M6.3 26.2C6 27.1 5.6 27.9 5.4 28.8C5.1 30.1 4.2 32.2 5.3 32.5C8 33.2 11.1 32.7 13.1 30.8C19.2 25 26.2 20.3 31.2 13.3C33.6 9.9 38.5 8.5 39.2 3.7C39.3 3.1 39.4 2.6 39.5 2C39.6 1.3 39.7 0.7 39.8 0C40 0 40.3 3.7998e-07 40.3 0.1C40.6 0.9 41.2 1.9 41 2.6C40.8 3.6 41.3 4.5 41.6 4.4C43.5 3.9 43.5 7.8 45.9 6.1C46.1 5.9 47.1 6.8 47.7 7.2C47.6 8 47.8 9.4 46.4 7.9C46.2 7.7 45.8 7.9 45.4 7.9C45.5 8.6 45.3 9.3 45.6 9.8C46.2 11 47.3 11.8 45.4 13.1C44 14.1 43.2 16.1 42.4 17.7C42.1 18.4 42.1 18.8 41.3 18.2C40.4 17.5 39.6 18 39.3 18.8C39.1 19.3 39.3 20.3 39.7 20.6C40.3 21 41.2 21.4 41.7 20.2C41.8 19.9 42.3 19.7 42.7 19.4C42.8 19.5 43 19.8 42.9 19.8C42.2 20.6 41.6 21.7 40.7 22C39.8 22.3 38.8 22.1 38.5 23.4C38.3 24.5 38.5 25.3 39.8 25.6C40 25.6 40.1 26.1 40.2 26.3C39.1 26.7 37.9 27.4 36.9 27.3C36 27.1 35.4 27.4 35.2 27.9C34.9 28.8 34.9 29.9 34.7 30.8C35.2 30.7 35.6 30.5 36.1 30.4C36.5 30.3 36.8 30.4 37.2 30.5C37.1 30.7 37 30.9 36.8 31C36 31.4 35 32.2 34.4 31.9C33.8 31.7 32.8 30.6 32.6 31.3C31.9 33.8 28.9 34.8 28.5 36.6C28 39.3 24.2 38.3 24.5 41.1C21.7 40.6 21 42.7 20 44.6C19.9 44.8 19.5 44.7 19.2 44.8C19.3 44.6 19.5 44.3 19.5 44.1C19.5 43.4 19.4 42.7 19.4 41.9C18.7 42 17.9 42 17.4 42.3C17.2 42.4 17.4 43.3 17.4 43.9C17.4 44.1 17.4 44.3 17.4 44.5C16.5 44.5 15.4 44.7 14.6 44.3C13.3 43.6 12.2 42.6 11.1 41.7C10.9 41.7 10.8 41.7 10.6 41.7C7.1 38.3 3.5 34.9 3.8147e-07 31.5C0.9 30 1.8 28.6 2.7 27.1C4.5 28.4 4.6 24.4 6.3 26.2ZM42.7 11.9C42.2 12.6 41.7 13.1 41.7 13.5C41.8 14 42.3 14.4 42.7 14.8C43.1 14.3 43.6 13.8 43.8 13.3C43.9 13.1 43.2 12.6 42.7 11.9ZM43.7 12C44.2 11.3 44.8 10.9 44.7 10.6C44.5 10.2 44 9.8 43.6 9.5C43.5 9.4 42.8 10 42.8 10.1C43 10.7 43.3 11.2 43.7 12Z" transform="translate(21.6505 14.5)" fill="#CC714B"/>
<path d="M6.76972 30.6156C5.06972 28.8156 4.96972 32.8156 3.36972 31.5156C2.86972 31.0156 2.36972 30.6156 1.76972 30.1156C0.969722 29.4156 0.0697229 28.8156 0.469723 27.6156H0.369722H0.469723C0.669723 27.4156 0.769723 27.3156 0.969723 27.1156C1.76972 26.3156 1.16972 25.9156 0.469723 25.6156C-0.430277 24.2156 0.0697232 22.9156 1.06972 21.8156C2.06972 20.8156 2.86972 19.9156 4.66972 20.6156C6.16972 21.2156 6.36972 19.0156 7.36972 18.3156C7.46972 18.2156 7.56972 17.7156 7.46972 17.6156C4.86972 15.2156 7.06972 13.9156 8.76972 13.0156C10.5697 12.1156 13.3697 13.6156 14.6697 10.8156C15.1697 10.5156 15.3697 10.3156 14.6697 10.0156C14.4697 9.91562 14.3697 9.81562 14.1697 9.71562C13.2697 8.61562 14.4697 8.31562 14.8697 7.61562C16.5697 4.61562 20.6697 7.61562 22.3697 4.61562C22.7697 4.31562 23.0697 4.11562 23.4697 3.81562C23.0697 3.61562 22.7697 3.31562 22.3697 3.11562C22.2697 3.01562 22.1697 2.91562 21.9697 2.71562C26.1697 -1.08438 30.4697 -0.784378 34.4697 2.91562C35.3697 3.71562 33.1697 5.71562 34.8697 7.01562C34.9697 7.21562 34.9697 7.41562 35.0697 7.61562C33.6697 8.31562 32.6697 10.0156 30.7697 9.61562C29.9697 8.91562 28.9697 7.41562 28.4697 7.51562C27.1697 7.91562 26.1697 9.11562 24.9697 9.91562C25.2697 10.2156 25.5697 10.5156 25.8697 10.9156C26.0697 11.9156 26.1697 13.0156 26.3697 14.0156C26.0697 14.2156 25.8697 14.4156 25.5697 14.6156C25.4697 14.7156 25.3697 14.8156 25.3697 14.9156C25.0697 15.2156 24.6697 15.6156 24.3697 15.9156C22.7697 16.6156 21.9697 15.1156 20.8697 14.5156C18.9697 13.1156 18.8697 15.6156 17.7697 16.0156C17.4697 16.1156 16.5697 16.6156 17.5697 17.1156C18.1697 18.1156 18.8697 19.2156 19.4697 20.2156C19.2697 20.5156 19.0697 20.7156 18.8697 21.0156C17.1697 22.9156 15.4697 24.1156 13.1697 21.9156C13.1697 21.7156 13.0697 21.5156 13.0697 21.3156C13.3697 21.1156 13.6697 20.6156 13.9697 20.7156C15.3697 21.0156 16.4697 20.3156 16.4697 19.1156C16.4697 17.4156 14.8697 16.5156 13.5697 15.8156C12.3697 15.1156 11.2697 16.0156 10.8697 16.9156C9.66972 19.2156 11.9697 20.0156 13.0697 21.3156C12.7697 21.3156 12.4697 21.3156 12.2697 21.3156C10.9697 20.3156 10.2697 20.6156 8.96972 21.8156C8.16972 22.5156 9.96972 24.3156 8.26972 23.5156C7.06972 22.9156 6.26972 23.3156 5.66972 23.7156C4.96972 24.2156 4.26972 25.5156 4.46972 26.2156C4.76972 27.3156 5.66972 28.6156 6.66972 29.0156C9.36972 30.0156 9.96972 27.7156 10.6697 25.8156C10.7697 25.9156 10.8697 26.0156 10.9697 26.1156C10.9697 26.0156 11.0697 25.9156 11.0697 25.8156C12.3697 26.3156 12.6697 27.3156 12.6697 28.6156C12.3697 28.9156 12.0697 29.2156 11.6697 29.6156C11.5697 29.7156 11.4697 29.8156 11.3697 29.9156C11.2697 30.0156 11.2697 30.1156 11.1697 30.3156C10.8697 30.6156 10.6697 31.0156 10.3697 31.3156C10.2697 31.3156 10.2697 31.3156 10.2697 31.4156C9.46972 31.4156 8.66972 31.3156 7.96972 31.3156C7.46972 31.2156 7.16972 30.9156 6.76972 30.6156Z" transform="translate(21.1807 10.0844)" fill="#EADFCB"/>
<path d="M15.6 6.4C16.2 7.3 16.9 8.2 17.5 9.2C18.7 10.9 19.9 12.7 21.1 14.5C18.6 15.2 16.2 15.9 13.7 16.5C9.6 17.6 9.3 13.5 7.4 11.8C5 9.6 3 6.9 0.9 4.4C1 4.3 1.1 4.2 1.3 4.1C1.1 4.1 0.999999 4 0.799999 4H0.9V4.1C0.7 3.9 0.6 3.8 0.4 3.6H0.5C0.3 3.4 0.2 3.3 0 3.1V3.2C0.4 2.9 0.800001 2.5 1.2 2.4C4.1 1.7 7.2 1.8 9.7 -7.62939e-07C10.3 0.599999 10.9 1.1 11.5 1.7C11.6 1.9 11.8 2 11.9 2.2C12.6 3.1 13.3 3.9 14 4.8C14 4.9 14 4.9 14.1 5C14.2 5.2 14.4 5.3 14.5 5.5C14.6 5.7 14.8 5.8 14.9 6C15.2 5.9 15.4 6.2 15.6 6.4Z" transform="translate(25.0505 58.8)" fill="#EADFCB"/>
<path d="M20.5731 14.9C20.4731 17.7 20.3731 20.6 20.2731 23.4C20.2731 23.4 20.2731 23.3 20.1731 23.3C19.4731 22.3 18.8731 21.4 18.1731 20.4C18.1731 20.3 18.0731 20.3 18.0731 20.2C17.7731 19.8 17.4731 19.4 17.1731 19.1C17.1731 19 17.0731 18.9 17.0731 18.9C16.9731 18.8 16.7731 18.6 16.6731 18.5C14.4731 16.1 12.2731 13.7 10.0731 11.4C7.37309 8.7 4.67309 6.2 2.17309 3.4C1.87309 3.1 -2.22691 2.4 1.67309 0.9C2.57309 0.6 3.47309 0.4 4.37309 0.2C4.67309 0.1 4.87309 0.1 5.17309 3.8147e-07C9.87309 0.4 11.6731 4.5 14.5731 7.2C17.0731 9.3 18.6731 12.2 20.5731 14.9Z" transform="translate(59.3774 10.1)" fill="#EADFCB"/>
<path d="M17.2 12.7C14.6 14.5 11.5 14.4 8.7 15.1C8.3 15.2 7.9 15.6 7.5 15.9C5.9 14.6 4.4 13.4 2.8 12.1C2.8 12 2.7 11.9 2.7 11.7C1.8 10.8 0.9 9.8 0 8.9C1.4 5.9 2.9 3 4.3 1.52588e-06C7.8 3.4 11.4 6.8 14.9 10.2C15.4 10.7 15.8 11.1 16.3 11.6C16.6 12 16.9 12.4 17.2 12.7Z" transform="translate(17.5505 45.9)" fill="#FEFDFC"/>
<path d="M0.684578 11.2C2.48458 8.3 -0.315422 5.7 0.184578 2.9C0.384578 1.9 -0.715422 0.699998 0.884578 -1.52588e-06C0.984578 -1.52588e-06 0.984578 -1.52588e-06 1.08458 -1.52588e-06C1.28458 0.199998 1.58458 0.299998 1.78458 0.499998C1.98458 0.699998 2.28458 0.799998 2.48458 0.999998C2.88458 1.2 3.18458 1.3 3.58458 1.5C4.58458 2.2 5.68458 2.9 6.68458 3.6C6.08458 4.9 5.58458 6.1 4.98458 7.4C4.88458 7.6 4.68458 7.8 4.58458 7.9C4.28458 8.7 3.88458 9.4 3.58458 10.2C3.48458 10.4 3.38458 10.6 3.28458 10.8C3.28458 10.9 3.18458 11 3.18458 11.1C2.68458 11.3 2.18458 11.5 1.58458 11.7C1.28458 11.6 0.984578 11.5 0.684578 11.4C0.584578 11.4 0.684578 11.3 0.684578 11.2Z" transform="translate(13.7659 41.1)" fill="#FEFDFC"/>
<path d="M4.6 8.6C3.6 7.9 2.5 7.2 1.5 6.5C-0.300001 5.1 1.9 3 0.6 1.5C0.4 1.2 1.90735e-07 0.799999 1.90735e-07 0.699999C0.2 0.399999 0.7 0.199998 1 -1.52588e-06C1.1 0.299998 1.3 0.6 1.4 0.9C1.9 7.3 4.3 1.5 5.8 1.6C5.4 2.9 6.3 3.5 7.1 4.1C6.3 5.6 5.4 7.1 4.6 8.6Z" transform="translate(15.8505 36.1)" fill="#CC714B"/>
<path d="M1.01579 -7.62939e-07C1.91579 0.899999 2.81579 1.9 3.71579 2.8C3.61579 2.9 3.51579 3 3.31579 3.1C3.51579 3.1 3.61579 3.1 3.81579 3.1C4.51579 4.6 5.31579 6.1 6.01579 7.5C6.11579 7.7 6.01579 8 5.91579 8.2C5.71579 8 5.61579 7.9 5.51579 7.7C4.81579 6.5 4.41579 4.8 2.41579 6.2C2.31579 6.3 2.11579 6.1 1.91579 6.1C2.01579 5.8 2.31579 5.5 2.31579 5.2C2.41579 4.6 2.51579 3.9 2.41579 3.3C2.31579 3 1.71579 2.9 1.31579 2.8C1.21579 3.3 1.01579 3.8 0.915785 4.3C0.815785 4.5 0.815785 4.8 0.815785 5C0.715785 5 0.515786 5 0.515786 4.9C0.315786 4.4 -0.0842142 3.8 0.0157858 3.3C0.115786 2.2 0.615786 1.1 1.01579 -7.62939e-07Z" transform="translate(16.5347 54.8)" fill="#CC714B"/>
<path d="M9.63524 -3.05176e-06C8.43524 2.1 6.03524 1.5 4.23524 2.2C2.93524 2.7 1.43524 2.7 0.0352377 3C-0.264762 1.2 1.43524 2.5 1.93524 1.9C2.03524 1.8 2.23524 1.8 2.33524 1.7C4.13524 1.3 6.03524 1 7.83524 0.600003C7.93524 0.500003 8.13524 0.4 8.23524 0.3C8.73524 0.2 9.23524 0.0999969 9.63524 -3.05176e-06Z" transform="translate(37.3152 74.2)" fill="#EADFCB"/>
<path d="M1.20743 0C1.50743 0.1 1.80743 0.199999 2.10743 0.299999C2.40743 0.499999 2.70743 0.8 2.90743 1C2.50743 1.6 2.30743 2.4 1.70743 2.7C-2.29257 4.6 2.30743 -0.1 0.00743469 0.5C0.307435 0.5 0.607434 0.5 0.907434 0.5C1.00743 0.6 1.20743 0.800002 1.30743 0.900002C1.30743 0.800002 1.40743 0.800001 1.40743 0.700001C1.20743 0.600001 1.00743 0.500002 0.807434 0.400002C1.20743 0.300002 1.20743 0.2 1.20743 0Z" transform="translate(13.143 52.5)" fill="#CC714B"/>
<path d="M2.1 2.6C1.4 1.7 0.7 0.900001 0 7.62939e-07C1.3 0.400001 1.8 1.4 2.1 2.6Z" transform="translate(37.0505 60.7)" fill="#CC714B"/>
<path d="M-1.52588e-06 0C0.699998 1 1.3 1.9 2 2.9C1.3 1.9 0.699998 1 -1.52588e-06 0Z" transform="translate(77.6505 30.5)" fill="#CC714B"/>
<path d="M1.4 1.4C0.899999 0.899998 0.5 0.500001 -3.8147e-07 7.62939e-07C0.2 7.62939e-07 0.3 7.62939e-07 0.5 7.62939e-07C0.7 0.500001 1.1 0.999998 1.4 1.4Z" transform="translate(32.4505 56.2)" fill="#EADFCB"/>
<path d="M0.8 1.3C0.5 1.1 0.2 0.799999 1.90735e-07 0.599999C0.5 0.399999 1 0.200001 1.6 7.62939e-07C1.3 0.500001 1 0.9 0.8 1.3Z" transform="translate(15.3505 52.2)" fill="#EADFCB"/>
<path d="M0.900001 0.999998C0.600001 0.699998 0.299999 0.399998 -7.62939e-07 -1.52588e-06C0.299999 0.299998 0.600001 0.699998 0.900001 0.999998Z" transform="translate(33.8505 57.6)" fill="#EADFCB"/>
<path d="M-1.52588e-06 7.62939e-07C0.299998 0.400001 0.6 0.799999 0.9 1.1C0.6 0.699999 0.299998 0.400001 -1.52588e-06 7.62939e-07Z" transform="translate(76.6505 29.2)" fill="#CC714B"/>
<path d="M-3.05176e-06 7.62939e-07C0.0999969 0.400001 0.2 0.699999 0.3 1.1C0.2 0.699999 0.0999969 0.400001 -3.05176e-06 7.62939e-07Z" transform="translate(80.7505 35.2)" fill="#CC714B"/>
<path d="M0.499998 0.699997C0.299998 0.499997 0.199998 0.3 -1.52588e-06 0C0.0999985 0.2 0.299998 0.499997 0.499998 0.699997Z" transform="translate(40.1505 64.5)" fill="#CC714B"/>
<path d="M0.399998 3.05176e-06C0.299998 0.100003 0.100001 0.1 7.62939e-07 0.2C0.100001 0.2 0.299998 0.100003 0.399998 3.05176e-06Z" transform="translate(39.2505 75.8)" fill="#CC714B"/>
<path d="M0.3 0.300002C0.2 0.200002 0.1 0.200001 0 0.100001L0.1 -1.52588e-06C0.1 0.0999985 0.2 0.200002 0.3 0.300002Z" transform="translate(13.0505 52.6)" fill="#CC714B"/>
<path d="M0.399998 0.5C0.299998 0.3 0.100001 0.2 7.62939e-07 0C0.100001 0.2 0.199998 0.3 0.399998 0.5Z" transform="translate(39.7505 64)" fill="#CC714B"/>
<path d="M0.399998 0.5C0.299998 0.3 0.100001 0.2 7.62939e-07 0C0.200001 0.2 0.299998 0.3 0.399998 0.5Z" transform="translate(39.2505 63.5)" fill="#CC714B"/>
<path d="M-3.8147e-07 7.62939e-07C0.2 0.200001 0.3 0.300001 0.5 0.500001C0.4 0.300001 0.2 0.200001 -3.8147e-07 7.62939e-07Z" transform="translate(25.4505 62.2)" fill="#FEFDFC"/>
<path d="M-3.8147e-07 7.62939e-07C0.2 7.62939e-07 0.3 0.0999992 0.5 0.0999992C0.4 0.199999 0.3 0.299998 0.1 0.399998C0 0.199998 -3.8147e-07 0.100001 -3.8147e-07 7.62939e-07Z" transform="translate(25.9505 62.7)" fill="#FEFDFC"/>
<path d="M0.4 0.499999C0.3 0.299999 0.0999985 0.199999 -1.52588e-06 -7.62939e-07C0.0999985 0.0999992 0.2 0.299999 0.4 0.499999Z" transform="translate(36.6505 60.3)" fill="#CC714B"/>
<path d="M-3.8147e-07 7.62939e-07C0.2 0.200001 0.3 0.300001 0.5 0.500001C0.4 0.400001 0.2 0.200001 -3.8147e-07 7.62939e-07Z" transform="translate(24.9505 61.7)" fill="#FEFDFC"/>
<path d="M0.4 0C0.3 0.1 0.0999985 0.200003 -1.52588e-06 0.300003C0.0999985 0.100003 0.3 0 0.4 0Z" transform="translate(45.1505 74.5)" fill="#CC714B"/>
<path d="M-1.52588e-06 0C0.0999985 0.1 0.3 0.3 0.4 0.4C0.3 0.3 0.199998 0.1 -1.52588e-06 0Z" transform="translate(76.1505 28.5)" fill="#CC714B"/>
<path d="M-7.62939e-07 0.5C0.0999992 0.3 0.300001 0.1 0.400001 0C0.200001 0.1 0.0999992 0.3 -7.62939e-07 0.5Z" transform="translate(18.3505 48.5)" fill="#EADFCB"/>
<path d="M-3.8147e-07 0.600002C0.0999996 0.400002 0.200001 0.199999 0.300001 -7.62939e-07C0.200001 0.199999 0.0999996 0.400002 -3.8147e-07 0.600002Z" transform="translate(16.9505 51.3)" fill="#EADFCB"/>
<path d="M19.9 7.81361C19.7 6.81361 19.6 5.71361 19.4 4.71361C20.4 2.11361 22.2 2.01361 24.3 3.41361C24.9 3.61361 25.7 4.21361 26 4.01361C26.9 3.31361 28.9 3.41361 28.6 1.41361C28.5 1.21361 28.5 1.01361 28.4 0.813612C29.5 0.0136124 31.3 -0.386387 31.8 0.513613C32.8 2.61361 31.1 4.51361 29.9 5.71361C22.7 12.9136 15.3 19.9136 7.9 26.8136C6.7 27.9136 4.9 28.5136 3.3 29.0136C2.3 29.3136 1.1 28.9136 0 28.9136C0.5 27.6136 1 26.3136 1.5 25.0136C2.3 25.0136 3.1 25.1136 3.8 25.1136C4 25.2136 4.5 25.4136 4.5 25.4136C5.1 24.4136 5.6 23.4136 6.2 22.3136C6.3 21.0136 5.9 20.0136 4.6 19.5136C4.5 19.5136 4.3 19.5136 4.2 19.5136C3.9 19.0136 3.7 18.6136 3.4 18.1136C3.5 18.0136 3.6 17.8136 3.7 17.7136C4.2 17.2136 4.7 16.7136 5.2 16.2136C5.7 16.0136 6.2 15.8136 6.7 15.7136C9 17.9136 10.7 16.7136 12.4 14.8136C13.4 15.1136 12.7 14.2136 13 14.0136C12.4 13.0136 11.7 11.9136 11.1 10.9136C12.2 10.0136 13.3 9.21361 14.4 8.31361C15.5 8.91361 16.3 10.3136 17.9 9.71361C18.6 9.41361 19.2 9.11361 19.8 8.71361C20 8.61361 19.9 8.11361 19.9 7.81361Z" transform="translate(27.5505 16.5864)" fill="#CC714B"/>
<path d="M24.7512 3C23.0512 6 18.9512 2.9 17.2512 6C16.8512 6.6 15.6512 7 16.5512 8.1C16.7512 8.5 16.8512 8.8 17.0512 9.2C15.7512 11.9 13.0512 10.4 11.1512 11.4C9.45123 12.3 7.25123 13.6 9.85123 16C9.95123 16.1 9.95123 16.6 9.75123 16.7C8.75123 17.4 8.55123 19.6 7.05123 19C5.25123 18.3 4.45123 19.1 3.45123 20.2C2.45123 21.3 1.95123 22.5 2.85123 24C1.95123 24.9 1.05123 25.8 0.151228 26.7C-0.348772 25.3 0.551229 24 0.551229 22.9C0.65123 17.8 4.75123 15.1 6.65123 11.2C7.75123 9.1 11.1512 10.6 10.9512 8.2C10.6512 5.5 12.5512 4.9 13.9512 4.4C16.0512 3.8 18.3512 3.8 20.5512 3.7C23.0512 3.6 22.3512 0.6 24.1512 -3.8147e-07C24.1512 0.6 24.1512 1.1 24.1512 1.7C24.4512 2 24.6512 2.5 24.7512 3Z" transform="translate(18.6992 11.9)" fill="#CC714B"/>
<path d="M1.6 1.9C1 1.7 0.499998 1.5 -1.52588e-06 1.4C0.799998 0.9 1.7 0.5 2.5 1.90735e-07C2.7 0.5 2.9 0.9 3.2 1.4C2.7 1.5 2.2 1.7 1.6 1.9Z" transform="translate(56.1505 13.8)" fill="#CC714B"/>
<path d="M1.52588e-06 0.8C0.400002 0.5 0.8 0.3 1.1 0C1.1 0.1 1.2 0.2 1.2 0.3C0.899998 0.4 0.500002 0.6 1.52588e-06 0.8Z" transform="translate(42.9505 11)" fill="#CC714B"/>
<path d="M0.800001 -3.8147e-07C0.500001 0.0999996 0.300002 0.1 1.52588e-06 0.2C0.300002 0.2 0.600001 0.0999996 0.800001 -3.8147e-07Z" transform="translate(63.9505 9.90002)" fill="#CC714B"/>
<path d="M0.7 0.499998C0.5 0.299998 0.2 0.199998 -1.90735e-07 -1.52588e-06C0.2 0.199998 0.5 0.399998 0.7 0.499998Z" transform="translate(14.7505 41.1)" fill="#EADFCB"/>
<path d="M0.7 0.499998C0.5 0.299998 0.2 0.199998 -3.8147e-07 -1.52588e-06C0.2 0.199998 0.5 0.399998 0.7 0.499998Z" transform="translate(15.4505 41.6)" fill="#EADFCB"/>
<path d="M-3.8147e-07 0.4C-3.8147e-07 0.3 0.1 0.0999996 0.1 -3.8147e-07C0.3 -3.8147e-07 0.4 -3.8147e-07 0.6 -3.8147e-07C0.4 0.0999996 0.2 0.2 -3.8147e-07 0.4Z" transform="translate(24.9505 14.4)" fill="#CC714B"/>
<path d="M3.8147e-07 0.400001C3.8147e-07 0.300001 0.100001 0.0999992 0.100001 -7.62939e-07C0.200001 -7.62939e-07 0.4 -7.62939e-07 0.5 -7.62939e-07C0.4 0.0999992 0.2 0.200001 3.8147e-07 0.400001Z" transform="translate(22.6505 16.3)" fill="#CC714B"/>
<path d="M0.5 7.62939e-07C0.3 0.200001 0.2 0.300001 3.8147e-07 0.500001C0.2 0.400001 0.3 0.200001 0.5 7.62939e-07Z" transform="translate(21.6505 37.2)" fill="#CC714B"/>
<path d="M7.62939e-07 3.8147e-07C0.200001 0.1 0.300001 0.3 0.500001 0.4C0.300001 0.2 0.200001 0.1 7.62939e-07 3.8147e-07Z" transform="translate(54.7505 8.09998)" fill="#CC714B"/>
<path d="M-7.62939e-07 0C0.199999 0.2 0.399999 0.3 0.499999 0.5C0.299999 0.3 0.199999 0.1 -7.62939e-07 0Z" transform="translate(53.8505 7.5)" fill="#CC714B"/>
<path d="M0.0999985 0C0.199998 0.1 0.3 0.2 0.5 0.4C0.3 0.4 0.2 0.4 0 0.5C0 0.3 -1.52737e-06 0.1 0.0999985 0Z" transform="translate(43.0505 13)" fill="#CC714B"/>
<path d="M0.999999 -3.8147e-07C1.5 0.6 2.1 1.1 2.1 1.4C1.9 2 1.4 2.4 0.999999 2.9C0.699999 2.5 0.0999992 2 -7.62939e-07 1.6C-7.62939e-07 1.2 0.499999 0.7 0.999999 -3.8147e-07Z" transform="translate(63.3505 26.4)" fill="#A75631"/>
<path d="M0.900003 2.4112C0.500003 1.6112 0.100002 1.1112 1.52588e-06 0.611198C1.52588e-06 0.511198 0.699997 -0.0888021 0.799997 0.0111979C1.3 0.211198 1.8 0.611198 1.9 1.1112C2 1.3112 1.4 1.7112 0.900003 2.4112Z" transform="translate(64.4505 24.0887)" fill="#A75631"/>
<path d="M5.43468 3.70198C5.73468 4.20198 5.93468 4.60198 6.23468 5.10198C5.53468 7.00198 4.93468 9.30198 2.23468 8.30198C1.23468 7.90198 0.434684 6.60198 0.0346843 5.50198C-0.165316 4.80198 0.534683 3.50198 1.23468 3.00198C1.73468 2.60198 2.63468 2.30198 3.83468 2.80198C5.53468 3.60198 3.73468 1.80198 4.53468 1.10198C5.83468 -0.0980198 6.53469 -0.39802 7.83469 0.60198C7.63469 1.00198 7.43468 1.40198 7.23468 1.80198C6.73468 2.30198 6.23468 2.80198 5.73468 3.30198C5.63468 3.30198 5.43468 3.30198 5.33468 3.40198C5.33468 3.50198 5.43468 3.60198 5.43468 3.70198Z" transform="translate(25.6158 31.098)" fill="#FEFDFC"/>
<path d="M2.53764 5.76469C1.43764 4.46469 -0.862358 3.66469 0.337642 1.36469C0.837642 0.364689 1.93764 -0.435312 3.03764 0.264688C4.33764 1.06469 5.93764 1.86469 5.93764 3.56469C5.93764 4.76469 4.73764 5.36469 3.43764 5.16469C3.13764 5.06469 2.83764 5.56469 2.53764 5.76469Z" transform="translate(31.7128 26.0353)" fill="#FEFDFC"/>
<path d="M5.8 2.10508C3.7 0.705081 2 0.80508 0.900002 3.40508C0.600002 3.10508 0.3 2.80508 0 2.40508C1.1 1.50508 2.2 0.40508 3.5 0.00508025C4 -0.0949197 5 1.30508 5.8 2.10508Z" transform="translate(46.0505 17.8949)" fill="#A75631"/>
<path d="M3.78289 0.411145C2.68289 1.31115 1.58289 2.11115 0.482889 3.01115C-0.517111 2.51115 0.28289 2.01115 0.68289 1.91115C1.78289 1.61115 1.88289 -0.988855 3.78289 0.411145Z" transform="translate(38.1676 24.4889)" fill="#A75631"/>
<path d="M4.3 0C4.6 1.9 2.7 1.8 1.7 2.6C1.5 2.8 0.599999 2.2 -7.62939e-07 2C1.9 2.3 2.9 0.7 4.3 0Z" transform="translate(51.8505 18)" fill="#A75631"/>
<path d="M2.4 1.52588e-06C1.9 1 1.3 2.1 0.7 3.1C0.7 3.1 0.2 2.9 -3.8147e-07 2.8C-3.8147e-07 2.7 0.1 2.7 0.1 2.7C0.4 2.4 0.599999 2 0.899999 1.7C0.999999 1.6 1 1.5 1.1 1.3C1.2 1.2 1.3 1.1 1.4 1C1.7 0.700002 2 0.400002 2.4 1.52588e-06Z" transform="translate(31.4505 38.9)" fill="#A75631"/>
<path d="M2 -3.8147e-07C2 0.3 2.1 0.799999 1.9 0.899999C1.3 1.3 0.600002 1.6 1.52588e-06 1.9C0.300002 1.6 0.700002 1.2 1 0.899999C1.1 0.799999 1.2 0.7 1.2 0.6C1.5 0.4 1.8 0.2 2 -3.8147e-07Z" transform="translate(45.4505 24.4)" fill="#A75631"/>
<path d="M1.52588e-06 0.0999996C0.200002 0.0999996 0.300002 0.1 0.500002 1.90735e-07C0.900002 0.2 1.2 0.5 1.6 0.7C1.2 1 0.900002 1.2 0.500002 1.5C0.400002 1.1 0.200002 0.6 1.52588e-06 0.0999996Z" transform="translate(42.9505 13.3)" fill="#A75631"/>
<path d="M-7.62939e-07 1.2C0.199999 0.800002 0.400002 0.400001 0.600002 7.62939e-07C0.900002 7.62939e-07 1.2 7.62939e-07 1.4 7.62939e-07C1.4 0.200001 1.5 0.399999 1.5 0.599999C0.999999 0.899999 0.499999 1.1 -7.62939e-07 1.2Z" transform="translate(32.8505 31.7)" fill="#A75631"/>
<path d="M0.799999 -1.52588e-06C0.499999 0.299998 0.3 0.699998 0 0.999998C0.3 0.699998 0.499999 0.299998 0.799999 -1.52588e-06Z" transform="translate(31.5505 40.6)" fill="#CC714B"/>
<path d="M0.500001 1.1C0.300001 0.7 0.200001 0.4 7.62939e-07 -3.8147e-07C0.200001 0.0999996 0.300001 0.200001 0.500001 0.300001C0.500001 0.500001 0.500001 0.8 0.500001 1.1Z" transform="translate(35.2505 19.9)" fill="#A75631"/>
<path d="M0.599998 7.62939e-07C0.399998 0.200001 1.1 1.1 0 0.8C0.2 0.5 0.399998 0.300001 0.599998 7.62939e-07Z" transform="translate(40.0505 30.7)" fill="#A75631"/>
<path d="M7.62939e-07 0.8C7.62939e-07 0.5 7.62939e-07 0.300001 7.62939e-07 7.62939e-07C0.700001 0.200001 0.500001 0.5 7.62939e-07 0.8Z" transform="translate(35.7505 20.2)" fill="#CC714B"/>
<path d="M0.299999 1.52588e-06C0.199999 0.100002 0.1 0.200001 0 0.300001C0.1 0.200001 0.199999 0.100002 0.299999 1.52588e-06Z" transform="translate(32.5505 39.9)" fill="#CC714B"/>
<path d="M0.199998 0C0.0999985 0.1 1.52588e-06 0.199999 1.52588e-06 0.299999C0.100002 0.199999 0.199998 0.1 0.199998 0Z" transform="translate(46.4505 25)" fill="#CC714B"/>
<path d="M-7.62939e-07 7.62939e-07C0.0999992 7.62939e-07 0.300001 7.62939e-07 0.400001 7.62939e-07C0.400001 0.100001 0.3 0.2 0.3 0.3C0.1 0.2 0.0999992 0.100001 -7.62939e-07 7.62939e-07Z" transform="translate(31.8505 36.2)" fill="#FEFDFC"/>
<path d="M0.499999 0.3C0.299999 0.3 0.199999 0.3 -7.62939e-07 0.3C0.0999992 0.2 0.200001 0.100001 0.400001 7.62939e-07C0.400001 7.62939e-07 0.399999 0.2 0.499999 0.3Z" transform="translate(19.8505 57.7)" fill="#A75631"/>
<path d="M-1.90735e-07 1.52588e-06C0.2 0.100002 0.4 0.200001 0.6 0.300001C0.6 0.400001 0.5 0.400002 0.5 0.500002C0.3 0.300002 0.2 0.200002 -1.90735e-07 1.52588e-06Z" transform="translate(14.2505 52.9)" fill="#A75631"/>
<path d="M0.2 0.499999C0.1 0.399999 0.0999992 0.300002 -7.62939e-07 0.100002C0.0999992 0.100002 0.300001 0.0999992 0.400001 -7.62939e-07C0.400001 0.299999 0.3 0.399999 0.2 0.499999Z" transform="translate(30.8505 34.3)" fill="#EADFCB"/>
</g>
<defs>
<clipPath id="clip0">
<rect width="86.9599" height="86.959" fill="white"/>
</clipPath>
</defs>
</svg>
